Balinese Script Rebranding.glyphspackage
{
glyphname = exclam;
layers = (
{
layerId = m009;
shapes = (
{
closed = 1;
nodes = (
(147,195,l),
(158,700,l),
(69,700,l),
(80,195,l)
);
},
{
closed = 1;
nodes = (
(155,0,l),
(155,90,l),
(67,90,l),
(67,0,l)
);
}
);
width = 223;
}
);
unicode = 33;
}
{
glyphname = numbersign;
layers = (
{
background = {
shapes = (
{
pos = (3,0);
ref = H;
}
);
};
layerId = m009;
shapes = (
{
closed = 1;
nodes = (
(391,0,l),
(410,202,l),
(410,212,l),
(435,478,l),
(436,487,l),
(457,700,l),
(433,700,l),
(413,490,l),
(412,483,l),
(387,216,l),
(386,206,l),
(367,0,l)
);
},
{
closed = 1;
nodes = (
(532,198,l),
(532,219,l),
(35,219,l),
(35,198,l)
);
},
{
closed = 1;
nodes = (
(166,0,l),
(186,205,l),
(186,213,l),
(210,475,l),
(211,486,l),
(232,700,l),
(207,700,l),
(188,487,l),
(187,477,l),
(162,215,l),
(161,205,l),
(141,0,l)
);
},
{
closed = 1;
nodes = (
(560,474,l),
(560,495,l),
(63,495,l),
(63,474,l)
);
}
);
width = 585;
},
{
background = {
shapes = (
{
pos = (3,0);
ref = H;
}
);
};
layerId = m002;
shapes = (
{
closed = 1;
nodes = (
(416,0,l),
(434,188,l),
(438,232,l),
(459,463,l),
(462,500,l),
(482,700,l),
(408,700,l),
(389,503,l),
(386,468,l),
(365,236,l),
(360,192,l),
(342,0,l)
);
},
{
closed = 1;
nodes = (
(532,175,l),
(532,252,l),
(35,252,l),
(35,175,l)
);
},
{
closed = 1;
nodes = (
(191,0,l),
(209,192,l),
(214,238,l),
(234,463,l),
(239,501,l),
(257,700,l),
(183,700,l),
(165,502,l),
(162,465,l),
(141,240,l),
(135,192,l),
(117,0,l)
);
},
{
closed = 1;
nodes = (
(560,438,l),
(560,515,l),
(63,515,l),
(63,438,l)
);
}
);
width = 585;
},
{
background = {
shapes = (
{
pos = (3,0);
ref = H;
}
);
};
layerId = m003;
shapes = (
{
closed = 1;
nodes = (
(436,0,l),
(454,188,l),
(458,232,l),
(479,463,l),
(482,500,l),
(502,700,l),
(388,700,l),
(369,503,l),
(366,468,l),
(345,236,l),
(340,192,l),
(322,0,l)
);
},
{
closed = 1;
nodes = (
(552,159,l),
(552,265,l),
(15,265,l),
(15,159,l)
);
},
{
closed = 1;
nodes = (
(211,0,l),
(229,192,l),
(234,238,l),
(254,463,l),
(259,501,l),
(277,700,l),
(163,700,l),
(145,502,l),
(142,465,l),
(121,240,l),
(115,192,l),
(97,0,l)
);
},
{
closed = 1;
nodes = (
(580,422,l),
(580,528,l),
(43,528,l),
(43,422,l)
);
}
);
width = 585;
}
);
unicode = 35;
}
{
glyphname = percent;
layers = (
{
layerId = m009;
shapes = (
{
closed = 1;
nodes = (
(129,-60,l),
(526,740,l),
(500,740,l),
(100,-60,l)
);
},
{
closed = 1;
nodes = (
(226,352,o),
(272,428,o),
(272,530,cs),
(272,633,o),
(225,710,o),
(154,710,cs),
(81,710,o),
(35,630,o),
(35,530,cs),
(35,431,o),
(81,352,o),
(154,352,cs)
);
},
{
closed = 1;
nodes = (
(102,377,o),
(62,440,o),
(62,531,cs),
(62,620,o),
(100,685,o),
(154,685,cs),
(205,685,o),
(247,626,o),
(247,530,cs),
(247,434,o),
(205,377,o),
(155,377,cs)
);
},
{
closed = 1;
nodes = (
(561,-10,o),
(607,66,o),
(607,168,cs),
(607,271,o),
(560,348,o),
(489,348,cs),
(416,348,o),
(370,268,o),
(370,168,cs),
(370,69,o),
(416,-10,o),
(489,-10,cs)
);
},
{
closed = 1;
nodes = (
(437,15,o),
(397,78,o),
(397,169,cs),
(397,258,o),
(435,323,o),
(489,323,cs),
(540,323,o),
(582,264,o),
(582,168,cs),
(582,72,o),
(540,15,o),
(490,15,cs)
);
}
);
width = 688;
},
{
layerId = m002;
shapes = (
{
closed = 1;
nodes = (
(175,-60,l),
(572,740,l),
(500,740,l),
(100,-60,l)
);
},
{
closed = 1;
nodes = (
(231,352,o),
(277,427,o),
(277,530,cs),
(277,632,o),
(230,710,o),
(154,710,cs),
(76,710,o),
(30,629,o),
(30,530,cs),
(30,430,o),
(76,352,o),
(154,352,cs)
);
},
{
closed = 1;
nodes = (
(108,408,o),
(84,458,o),
(84,530,cs),
(84,602,o),
(107,654,o),
(154,654,cs),
(199,654,o),
(224,603,o),
(224,530,cs),
(224,456,o),
(199,408,o),
(154,408,cs)
);
},
{
closed = 1;
nodes = (
(612,-10,o),
(658,65,o),
(658,168,cs),
(658,270,o),
(611,348,o),
(535,348,cs),
(457,348,o),
(411,267,o),
(411,168,cs),
(411,68,o),
(457,-10,o),
(535,-10,cs)
);
},
{
closed = 1;
nodes = (
(489,46,o),
(465,96,o),
(465,168,cs),
(465,240,o),
(488,292,o),
(535,292,cs),
(580,292,o),
(605,241,o),
(605,168,cs),
(605,94,o),
(580,46,o),
(535,46,cs)
);
}
);
width = 688;
},
{
layerId = m003;
shapes = (
{
closed = 1;
nodes = (
(235,-60,l),
(632,740,l),
(500,740,l),
(100,-60,l)
);
},
{
closed = 1;
nodes = (
(244,352,o),
(302,429,o),
(302,532,cs),
(302,635,o),
(243,710,o),
(154,710,cs),
(63,710,o),
(5,632,o),
(5,532,cs),
(5,432,o),
(63,352,o),
(154,352,cs)
);
},
{
closed = 1;
nodes = (
(122,448,o),
(109,484,o),
(109,530,cs),
(109,576,o),
(121,614,o),
(154,614,cs),
(186,614,o),
(199,577,o),
(199,530,cs),
(199,483,o),
(186,448,o),
(154,448,cs)
);
},
{
closed = 1;
nodes = (
(687,-10,o),
(745,67,o),
(745,170,cs),
(745,273,o),
(686,348,o),
(597,348,cs),
(506,348,o),
(448,270,o),
(448,170,cs),
(448,70,o),
(506,-10,o),
(597,-10,cs)
);
},
{
closed = 1;
nodes = (
(565,86,o),
(552,122,o),
(552,168,cs),
(552,214,o),
(564,252,o),
(597,252,cs),
(629,252,o),
(642,215,o),
(642,168,cs),
(642,121,o),
(629,86,o),
(597,86,cs)
);
}
);
width = 758;
}
);
unicode = 37;
}
{
glyphname = ampersand;
layers = (
{
background = {
shapes = (
{
pos = (526,0);
ref = S;
scale = (-1,1);
}
);
};
layerId = m009;
shapes = (
{
closed = 1;
nodes = (
(593,0,l),
(350,295,ls),
(220,453,o),
(170,503,o),
(170,558,cs),
(170,608,o),
(211,645,o),
(260,645,cs),
(306,645,o),
(339,612,o),
(339,564,cs),
(339,512,o),
(298,473,o),
(231,413,c),
(272,364,l),
(367,445,o),
(416,494,o),
(416,565,cs),
(416,644,o),
(353,710,o),
(259,710,cs),
(164,710,o),
(91,645,o),
(91,561,cs),
(91,501,o),
(127,446,o),
(287,252,cs),
(494,0,l)
);
},
{
closed = 1;
nodes = (
(425,-10,o),
(529,119,o),
(529,352,c),
(461,352,l),
(461,158,o),
(390,62,o),
(270,62,cs),
(179,62,o),
(119,114,o),
(119,181,cs),
(119,242,o),
(167,291,o),
(252,348,c),
(208,398,l),
(84,308,o),
(33,249,o),
(33,175,cs),
(33,78,o),
(125,-10,o),
(263,-10,cs)
);
}
);
width = 598;
}
);
unicode = 38;
}
{
glyphname = quotesingle;
layers = (
{
anchors = (
{
name = _quotesingle;
pos = (70,700);
},
{
name = quotesingle;
pos = (151,700);
}
);
layerId = m009;
shapes = (
{
closed = 1;
nodes = (
(95,504,l),
(95,700,l),
(70,700,l),
(70,504,l)
);
}
);
width = 165;
},
{
anchors = (
{
name = _quotesingle;
pos = (40,700);
},
{
name = quotesingle;
pos = (171,700);
}
);
layerId = m002;
shapes = (
{
closed = 1;
nodes = (
(115,494,l),
(115,700,l),
(40,700,l),
(40,494,l)
);
}
);
width = 155;
},
{
anchors = (
{
name = _quotesingle;
pos = (20,700);
},
{
name = quotesingle;
pos = (191,700);
}
);
layerId = m003;
shapes = (
{
closed = 1;
nodes = (
(135,464,l),
(135,700,l),
(20,700,l),
(20,464,l)
);
}
);
width = 155;
}
);
metricRight = "=|";
unicode = 39;
}
{
glyphname = parenleft;
layers = (
{
layerId = m009;
shapes = (
{
closed = 1;
nodes = (
(268,-250,l),
(184,-86,o),
(131,77,o),
(131,232,cs),
(131,394,o),
(190,547,o),
(268,700,c),
(181,700,l),
(103,546,o),
(43,393,o),
(43,232,cs),
(43,76,o),
(97,-87,o),
(181,-250,c)
);
}
);
width = 292;
}
);
unicode = 40;
}
{
glyphname = asterisk;
layers = (
{
layerId = m009;
shapes = (
{
closed = 1;
nodes = (
(235,489,l),
(217,489,l),
(322,366,l),
(383,408,l),
(279,535,l),
(280,516,l),
(427,585,l),
(401,645,l),
(248,577,l),
(264,577,l),
(264,750,l),
(189,750,l),
(189,575,l),
(208,578,l),
(58,645,l),
(30,585,l),
(181,516,l),
(175,531,l),
(69,413,l),
(126,366,l)
);
}
);
width = 457;
}
);
unicode = 42;
}
{
glyphname = plus;
layers = (
{
layerId = m009;
shapes = (
{
closed = 1;
nodes = (
(265,155,l),
(265,545,l),
(195,545,l),
(195,155,l)
);
},
{
closed = 1;
nodes = (
(409,319,l),
(409,384,l),
(50,384,l),
(50,319,l)
);
}
);
width = 459;
}
);
unicode = 43;
}
{
glyphname = comma;
layers = (
{
anchors = (
{
name = _colon;
pos = (40,91);
},
{
name = colon;
pos = (40,545);
}
);
layerId = m009;
shapes = (
{
closed = 1;
nodes = (
(113,-111,o),
(137,-64,o),
(137,-5,cs),
(137,91,l),
(39,91,l),
(39,0,l),
(78,0,ls),
(83,0,o),
(87,-3,o),
(87,-9,cs),
(87,-57,o),
(75,-73,o),
(35,-81,c),
(42,-115,l)
);
}
);
width = 172;
},
{
associatedMasterId = m009;
layerId = "4F650BAF-FCAF-42C6-A5B2-30417802B601";
name = "16 Jun 23 17.41";
shapes = (
{
closed = 1;
nodes = (
(109,-100,l),
(175,90,l),
(79,90,l),
(63,-100,l)
);
}
);
width = 238;
},
{
associatedMasterId = m009;
layerId = "6B584AC1-0E79-40B0-9790-B268D9A43937";
name = "16 Jun 23 17.44";
shapes = (
{
closed = 1;
nodes = (
(82,-110,l),
(138,0,l),
(138,91,l),
(40,91,l),
(40,0,l),
(79,0,l),
(44,-96,l)
);
}
);
width = 238;
},
{
associatedMasterId = m009;
layerId = "96E5ECBD-A230-4FF4-B0FA-643CCE29424B";
name = "16 Jun 23 17.51";
shapes = (
{
closed = 1;
nodes = (
(115,-101,o),
(140,-57,o),
(140,-7,cs),
(140,91,l),
(42,91,l),
(42,0,l),
(90,0,l),
(92,-38,o),
(82,-56,o),
(63,-56,cs),
(56,-56,o),
(48,-55,o),
(39,-52,c),
(50,-38,l),
(36,-99,l),
(36,-90,l),
(45,-96,o),
(58,-101,o),
(74,-101,cs)
);
}
);
width = 180;
},
{
associatedMasterId = m009;
layerId = "675CEC62-1B2D-421B-A0D5-6BD68EFCB263";
name = "16 Jun 23 17.53";
shapes = (
{
closed = 1;
nodes = (
(113,-101,o),
(138,-47,o),
(138,3,cs),
(138,91,l),
(40,91,l),
(40,0,l),
(79,0,ls),
(84,0,o),
(88,-3,o),
(88,-9,cs),
(88,-42,o),
(72,-60,o),
(40,-64,c),
(40,-101,l)
);
}
);
width = 178;
}
);
metricRight = "=|";
unicode = 44;
}
{
glyphname = hyphen;
layers = (
{
layerId = m009;
shapes = (
{
closed = 1;
nodes = (
(245,236,l),
(245,319,l),
(45,319,l),
(45,236,l)
);
}
);
width = 290;
},
{
layerId = m002;
shapes = (
{
closed = 1;
nodes = (
(245,236,l),
(245,319,l),
(45,319,l),
(45,236,l)
);
}
);
width = 290;
},
{
layerId = m003;
shapes = (
{
closed = 1;
nodes = (
(245,236,l),
(245,319,l),
(45,319,l),
(45,236,l)
);
}
);
width = 290;
}
);
metricRight = "=|";
unicode = 45;
}
{
glyphname = period;
kernLeft = period;
kernRight = period;
layers = (
{
anchors = (
{
name = _colon;
pos = (65,47);
},
{
name = colon;
pos = (65,537);
}
);
layerId = m009;
shapes = (
{
closed = 1;
nodes = (
(115,0,l),
(115,47,l),
(65,47,l),
(65,0,l)
);
}
);
width = 180;
},
{
anchors = (
{
name = _colon;
pos = (40,91);
},
{
name = colon;
pos = (40,545);
}
);
layerId = m002;
shapes = (
{
closed = 1;
nodes = (
(138,0,l),
(138,91,l),
(40,91,l),
(40,0,l)
);
}
);
width = 178;
},
{
anchors = (
{
name = _colon;
pos = (30,146);
},
{
name = colon;
pos = (30,553);
}
);
layerId = m003;
shapes = (
{
closed = 1;
nodes = (
(188,0,l),
(188,146,l),
(30,146,l),
(30,0,l)
);
}
);
width = 218;
}
);
metricRight = "=|";
unicode = 46;
}
{
glyphname = slash;
layers = (
{
layerId = m009;
shapes = (
{
closed = 1;
nodes = (
(26,-10,l),
(365,710,l),
(339,710,l),
(-1,-10,l)
);
}
);
width = 364;
},
{
layerId = m002;
shapes = (
{
closed = 1;
nodes = (
(57,-10,l),
(396,710,l),
(316,710,l),
(-24,-10,l)
);
}
);
width = 364;
},
{
layerId = m003;
shapes = (
{
closed = 1;
nodes = (
(102,-10,l),
(441,710,l),
(312,710,l),
(-28,-10,l)
);
}
);
width = 404;
}
);
unicode = 47;
}
{
color = 0;
glyphname = zero;
layers = (
{
anchors = (
{
name = tail_Q;
pos = (346,43);
}
);
layerId = m009;
shapes = (
{
closed = 1;
nodes = (
(506,-10,o),
(607,120,o),
(607,350,cs),
(607,580,o),
(506,710,o),
(334,710,cs),
(160,710,o),
(60,574,o),
(60,350,cs),
(60,126,o),
(159,-10,o),
(334,-10,cs)
);
},
{
closed = 1;
nodes = (
(216,65,o),
(146,160,o),
(146,350,cs),
(146,540,o),
(215,635,o),
(334,635,cs),
(451,635,o),
(521,544,o),
(521,350,cs),
(521,156,o),
(451,65,o),
(335,65,cs)
);
}
);
width = 667;
}
);
unicode = 48;
}
{
color = 0;
glyphname = one;
layers = (
{
layerId = m009;
shapes = (
{
closed = 1;
nodes = (
(343,0,l),
(343,700,l),
(319,700,l),
(186,627,l),
(186,585,l),
(294,600,l),
(256,633,l),
(256,0,l)
);
}
);
width = 600;
}
);
unicode = 49;
}
{
glyphname = two;
layers = (
{
guides = (
{
angle = 270;
pos = (45,68);
}
);
layerId = m009;
shapes = (
{
closed = 1;
nodes = (
(442,0,l),
(442,78,l),
(105,78,l),
(135,41,l),
(131,59,o),
(127,77,o),
(127,95,cs),
(128,284,o),
(442,268,o),
(442,515,cs),
(442,652,o),
(334,710,o),
(233,710,cs),
(162,710,o),
(90,681,o),
(32,626,c),
(36,653,l),
(95,561,l),
(70,557,l),
(116,602,o),
(169,631,o),
(230,631,cs),
(305,631,o),
(356,589,o),
(356,511,cs),
(356,318,o),
(40,337,o),
(40,73,cs),
(40,50,o),
(42,24,o),
(45,0,c)
);
}
);
width = 477;
},
{
associatedMasterId = m009;
layerId = "A5873F7F-71E3-4CC6-B906-996ABED7F8EA";
name = "16 Jun 23 11.18";
shapes = (
{
closed = 1;
nodes = (
(440,0,l),
(440,70,l),
(85,70,l),
(127,41,l),
(376,359,ls),
(433,432,o),
(455,485,o),
(455,536,cs),
(455,640,o),
(369,710,o),
(258,710,cs),
(185,710,o),
(107,679,o),
(50,623,c),
(53,674,l),
(117,539,l),
(80,555,l),
(134,604,o),
(196,632,o),
(254,632,cs),
(329,632,o),
(375,598,o),
(375,539,cs),
(375,502,o),
(357,462,o),
(318,412,cs),
(49,69,l),
(49,0,l)
);
}
);
width = 493;
},
{
guides = (
{
angle = 270;
pos = (45,68);
}
);
layerId = m002;
shapes = (
{
closed = 1;
nodes = (
(442,0,l),
(442,78,l),
(105,78,l),
(135,41,l),
(131,59,o),
(127,77,o),
(127,95,cs),
(128,284,o),
(442,268,o),
(442,515,cs),
(442,652,o),
(334,710,o),
(233,710,cs),
(162,710,o),
(90,681,o),
(32,626,c),
(36,653,l),
(95,561,l),
(70,557,l),
(116,602,o),
(169,631,o),
(230,631,cs),
(305,631,o),
(356,589,o),
(356,511,cs),
(356,318,o),
(40,337,o),
(40,73,cs),
(40,50,o),
(42,24,o),
(45,0,c)
);
}
);
width = 477;
},
{
associatedMasterId = m002;
layerId = "217662F6-B780-46B5-B0FD-3AB740827F8C";
name = "16 Jun 23 11.18";
shapes = (
{
closed = 1;
nodes = (
(440,0,l),
(440,70,l),
(85,70,l),
(127,41,l),
(376,359,ls),
(433,432,o),
(455,485,o),
(455,536,cs),
(455,640,o),
(369,710,o),
(258,710,cs),
(185,710,o),
(107,679,o),
(50,623,c),
(53,674,l),
(117,539,l),
(80,555,l),
(134,604,o),
(196,632,o),
(254,632,cs),
(329,632,o),
(375,598,o),
(375,539,cs),
(375,502,o),
(357,462,o),
(318,412,cs),
(49,69,l),
(49,0,l)
);
}
);
width = 493;
},
{
guides = (
{
angle = 270;
pos = (45,68);
}
);
layerId = m003;
shapes = (
{
closed = 1;
nodes = (
(442,0,l),
(442,78,l),
(105,78,l),
(135,41,l),
(131,59,o),
(127,77,o),
(127,95,cs),
(128,284,o),
(442,268,o),
(442,515,cs),
(442,652,o),
(334,710,o),
(233,710,cs),
(162,710,o),
(90,681,o),
(32,626,c),
(36,653,l),
(95,561,l),
(70,557,l),
(116,602,o),
(169,631,o),
(230,631,cs),
(305,631,o),
(356,589,o),
(356,511,cs),
(356,318,o),
(40,337,o),
(40,73,cs),
(40,50,o),
(42,24,o),
(45,0,c)
);
}
);
width = 477;
},
{
associatedMasterId = m003;
layerId = "9472215E-CC56-495C-9642-F04F7AF057C2";
name = "16 Jun 23 11.18";
shapes = (
{
closed = 1;
nodes = (
(440,0,l),
(440,70,l),
(85,70,l),
(127,41,l),
(376,359,ls),
(433,432,o),
(455,485,o),
(455,536,cs),
(455,640,o),
(369,710,o),
(258,710,cs),
(185,710,o),
(107,679,o),
(50,623,c),
(53,674,l),
(117,539,l),
(80,555,l),
(134,604,o),
(196,632,o),
(254,632,cs),
(329,632,o),
(375,598,o),
(375,539,cs),
(375,502,o),
(357,462,o),
(318,412,cs),
(49,69,l),
(49,0,l)
);
}
);
width = 493;
}
);
unicode = 50;
}
{
color = 4;
glyphname = three;
layers = (
{
background = {
shapes = (
{
pos = (-80,0);
ref = two;
}
);
};
layerId = m009;
shapes = (
{
closed = 1;
nodes = (
(354,-10,o),
(426,78,o),
(426,192,cs),
(426,288,o),
(375,359,o),
(294,382,c),
(294,384,l),
(358,411,o),
(399,465,o),
(399,542,cs),
(399,645,o),
(327,710,o),
(230,710,cs),
(180,710,o),
(118,693,o),
(54,641,c),
(56,650,l),
(79,616,l),
(69,621,l),
(128,668,o),
(181,684,o),
(228,684,cs),
(325,684,o),
(369,614,o),
(369,539,cs),
(369,444,o),
(297,393,o),
(222,393,cs),
(154,393,l),
(154,369,l),
(218,369,ls),
(334,369,o),
(396,298,o),
(396,194,cs),
(396,95,o),
(339,16,o),
(224,16,cs),
(158,16,o),
(98,42,o),
(46,85,c),
(63,85,l),
(38,45,l),
(32,62,l),
(88,15,o),
(152,-10,o),
(222,-10,cs)
);
}
);
width = 505;
},
{
associatedMasterId = m009;
background = {
shapes = (
{
pos = (-73,0);
ref = two;
}
);
};
layerId = "49BF2BEE-ABD9-4C1D-B986-A3EC20E39DDA";
name = "16 Jun 23 13.37";
shapes = (
{
closed = 1;
nodes = (
(180,68,o),
(112,88,o),
(47,145,c),
(84,161,l),
(18,26,l),
(16,77,l),
(72,21,o),
(138,-10,o),
(225,-10,cs),
(364,-10,o),
(457,70,o),
(457,192,cs),
(457,276,o),
(414,343,o),
(330,362,c),
(330,365,l),
(391,386,o),
(440,456,o),
(440,534,cs),
(440,640,o),
(348,710,o),
(235,710,cs),
(160,710,o),
(89,679,o),
(31,623,c),
(35,674,l),
(97,539,l),
(60,555,l),
(102,596,o),
(157,632,o),
(229,632,cs),
(304,632,o),
(361,592,o),
(361,528,cs),
(361,452,o),
(281,395,o),
(204,395,cs),
(137,395,l),
(136,325,l),
(207,325,ls),
(304,325,o),
(381,275,o),
(381,191,cs),
(381,108,o),
(308,68,o),
(233,68,cs)
);
}
);
width = 510;
},
{
associatedMasterId = m009;
background = {
shapes = (
{
pos = (-73,0);
ref = two;
}
);
};
layerId = "93A679E2-2ED8-40A9-B942-CA237744A9BF";
name = "16 Jun 23 13.45";
shapes = (
{
closed = 1;
nodes = (
(378,-10,o),
(457,68,o),
(457,192,cs),
(457,277,o),
(406,344,o),
(311,362,c),
(311,365,l),
(381,384,o),
(437,446,o),
(437,532,cs),
(437,652,o),
(343,710,o),
(242,710,cs),
(160,710,o),
(93,683,o),
(30,626,c),
(34,653,l),
(93,561,l),
(68,561,l),
(114,604,o),
(169,633,o),
(237,631,cs),
(303,629,o),
(354,591,o),
(354,523,cs),
(354,435,o),
(281,396,o),
(174,396,cs),
(137,396,l),
(136,324,l),
(178,324,ls),
(304,324,o),
(371,275,o),
(371,191,cs),
(371,100,o),
(305,69,o),
(242,69,cs),
(174,69,o),
(129,88,o),
(61,134,c),
(74,138,l),
(20,45,l),
(17,64,l),
(91,14,o),
(161,-10,o),
(238,-10,cs)
);
}
);
width = 510;
},
{
background = {
shapes = (
{
pos = (-80,0);
ref = two;
}
);
};
layerId = m002;
shapes = (
{
closed = 1;
nodes = (
(373,-10,o),
(451,78,o),
(451,197,cs),
(451,292,o),
(402,359,o),
(320,380,c),
(320,382,l),
(382,406,o),
(425,465,o),
(425,542,cs),
(425,650,o),
(341,710,o),
(230,710,cs),
(155,710,o),
(86,683,o),
(23,626,c),
(27,653,l),
(86,561,l),
(61,562,l),
(112,609,o),
(169,634,o),
(233,632,cs),
(305,630,o),
(344,589,o),
(344,528,cs),
(344,446,o),
(274,408,o),
(167,408,cs),
(130,408,l),
(129,336,l),
(210,336,ls),
(301,336,o),
(365,293,o),
(365,200,cs),
(365,121,o),
(318,69,o),
(228,69,cs),
(169,69,o),
(117,91,o),
(54,134,c),
(67,138,l),
(13,45,l),
(10,64,l),
(84,14,o),
(154,-10,o),
(229,-10,cs)
);
}
);
width = 505;
},
{
associatedMasterId = m002;
background = {
shapes = (
{
pos = (-73,0);
ref = two;
}
);
};
layerId = "3FF2F475-1D40-4F0F-872E-9E762A718D8D";
name = "16 Jun 23 13.37";
shapes = (
{
closed = 1;
nodes = (
(180,68,o),
(112,88,o),
(47,145,c),
(84,161,l),
(18,26,l),
(16,77,l),
(72,21,o),
(138,-10,o),
(225,-10,cs),
(364,-10,o),
(457,70,o),
(457,192,cs),
(457,276,o),
(414,343,o),
(330,362,c),
(330,365,l),
(391,386,o),
(440,456,o),
(440,534,cs),
(440,640,o),
(348,710,o),
(235,710,cs),
(160,710,o),
(89,679,o),
(31,623,c),
(35,674,l),
(97,539,l),
(60,555,l),
(102,596,o),
(157,632,o),
(229,632,cs),
(304,632,o),
(361,592,o),
(361,528,cs),
(361,452,o),
(281,395,o),
(204,395,cs),
(137,395,l),
(136,325,l),
(207,325,ls),
(304,325,o),
(381,275,o),
(381,191,cs),
(381,108,o),
(308,68,o),
(233,68,cs)
);
}
);
width = 510;
},
{
associatedMasterId = m002;
background = {
shapes = (
{
pos = (-73,0);
ref = two;
}
);
};
layerId = "C6419FBE-14AA-4D28-BA0B-02DD71C21405";
name = "16 Jun 23 13.45";
shapes = (
{
closed = 1;
nodes = (
(378,-10,o),
(457,68,o),
(457,192,cs),
(457,277,o),
(406,344,o),
(311,362,c),
(311,365,l),
(381,384,o),
(437,446,o),
(437,532,cs),
(437,652,o),
(343,710,o),
(242,710,cs),
(160,710,o),
(93,683,o),
(30,626,c),
(34,653,l),
(93,561,l),
(68,561,l),
(114,604,o),
(169,633,o),
(237,631,cs),
(303,629,o),
(354,591,o),
(354,523,cs),
(354,435,o),
(281,396,o),
(174,396,cs),
(137,396,l),
(136,324,l),
(178,324,ls),
(304,324,o),
(371,275,o),
(371,191,cs),
(371,100,o),
(305,69,o),
(242,69,cs),
(174,69,o),
(129,88,o),
(61,134,c),
(74,138,l),
(20,45,l),
(17,64,l),
(91,14,o),
(161,-10,o),
(238,-10,cs)
);
}
);
width = 510;
},
{
background = {
shapes = (
{
pos = (-80,0);
ref = two;
}
);
};
layerId = m003;
shapes = (
{
closed = 1;
nodes = (
(391,-10,o),
(499,69,o),
(499,204,cs),
(499,293,o),
(452,352,o),
(378,380,c),
(378,382,l),
(440,406,o),
(473,466,o),
(473,529,cs),
(473,627,o),
(394,710,o),
(239,710,cs),
(155,710,o),
(72,686,o),
(0,633,c),
(8,653,l),
(81,511,l),
(59,516,l),
(114,556,o),
(168,575,o),
(221,575,cs),
(285,575,o),
(317,546,o),
(317,502,cs),
(317,453,o),
(282,425,o),
(189,425,cs),
(109,425,l),
(108,308,l),
(192,308,ls),
(307,308,o),
(337,267,o),
(337,216,cs),
(337,159,o),
(299,125,o),
(220,125,cs),
(152,125,o),
(88,150,o),
(38,187,c),
(58,189,l),
(-18,47,l),
(-21,70,l),
(46,24,o),
(124,-10,o),
(230,-10,cs)
);
}
);
width = 505;
},
{
associatedMasterId = m003;
background = {
shapes = (
{
pos = (-73,0);
ref = two;
}
);
};
layerId = "F8B4875D-71FF-4CE5-A3D3-ECAC9FEC25AF";
name = "16 Jun 23 13.37";
shapes = (
{
closed = 1;
nodes = (
(180,68,o),
(112,88,o),
(47,145,c),
(84,161,l),
(18,26,l),
(16,77,l),
(72,21,o),
(138,-10,o),
(225,-10,cs),
(364,-10,o),
(457,70,o),
(457,192,cs),
(457,276,o),
(414,343,o),
(330,362,c),
(330,365,l),
(391,386,o),
(440,456,o),
(440,534,cs),
(440,640,o),
(348,710,o),
(235,710,cs),
(160,710,o),
(89,679,o),
(31,623,c),
(35,674,l),
(97,539,l),
(60,555,l),
(102,596,o),
(157,632,o),
(229,632,cs),
(304,632,o),
(361,592,o),
(361,528,cs),
(361,452,o),
(281,395,o),
(204,395,cs),
(137,395,l),
(136,325,l),
(207,325,ls),
(304,325,o),
(381,275,o),
(381,191,cs),
(381,108,o),
(308,68,o),
(233,68,cs)
);
}
);
width = 510;
},
{
associatedMasterId = m003;
background = {
shapes = (
{
pos = (-73,0);
ref = two;
}
);
};
layerId = "F71961DF-747A-406F-A480-EDAB6638D0A5";
name = "16 Jun 23 13.45";
shapes = (
{
closed = 1;
nodes = (
(378,-10,o),
(457,68,o),
(457,192,cs),
(457,277,o),
(406,344,o),
(311,362,c),
(311,365,l),
(381,384,o),
(437,446,o),
(437,532,cs),
(437,652,o),
(343,710,o),
(242,710,cs),
(160,710,o),
(93,683,o),
(30,626,c),
(34,653,l),
(93,561,l),
(68,561,l),
(114,604,o),
(169,633,o),
(237,631,cs),
(303,629,o),
(354,591,o),
(354,523,cs),
(354,435,o),
(281,396,o),
(174,396,cs),
(137,396,l),
(136,324,l),
(178,324,ls),
(304,324,o),
(371,275,o),
(371,191,cs),
(371,100,o),
(305,69,o),
(242,69,cs),
(174,69,o),
(129,88,o),
(61,134,c),
(74,138,l),
(20,45,l),
(17,64,l),
(91,14,o),
(161,-10,o),
(238,-10,cs)
);
}
);
width = 510;
},
{
associatedMasterId = m009;
background = {
shapes = (
{
pos = (-80,0);
ref = two;
}
);
};
layerId = "CB7EF867-7982-436C-9A61-61BDCC2FE6F4";
name = "6 Jul 23 18.00";
shapes = (
{
closed = 1;
nodes = (
(348,-10,o),
(426,62,o),
(426,190,cs),
(426,289,o),
(373,360,o),
(294,382,c),
(294,384,l),
(358,411,o),
(399,465,o),
(399,542,cs),
(399,645,o),
(327,710,o),
(222,710,cs),
(159,710,o),
(97,686,o),
(46,649,c),
(50,657,l),
(69,627,l),
(61,628,l),
(114,668,o),
(170,684,o),
(219,684,cs),
(324,684,o),
(369,615,o),
(369,540,cs),
(369,444,o),
(297,393,o),
(222,393,cs),
(154,393,l),
(154,369,l),
(218,369,ls),
(334,369,o),
(396,298,o),
(396,192,cs),
(396,82,o),
(338,16,o),
(227,16,cs),
(169,16,o),
(108,39,o),
(47,97,c),
(67,105,l),
(37,55,l),
(33,74,l),
(104,5,o),
(172,-10,o),
(227,-10,cs)
);
}
);
width = 505;
}
);
unicode = 51;
}
{
color = 4;
glyphname = four;
layers = (
{
layerId = m009;
shapes = (
{
closed = 1;
nodes = (
(402,0,l),
(402,190,l),
(396,180,l),
(479,180,l),
(479,206,l),
(392,206,l),
(402,193,l),
(402,700,l),
(381,700,l),
(43,213,l),
(43,180,l),
(381,180,l),
(375,192,l),
(375,0,l)
);
},
{
closed = 1;
nodes = (
(387,668,l),
(384,670,l),
(377,651,o),
(375,632,o),
(375,610,cs),
(375,200,l),
(379,206,l),
(101,206,ls),
(83,206,o),
(69,204,o),
(57,202,c),
(61,197,l)
);
}
);
width = 525;
},
{
layerId = m002;
shapes = (
{
closed = 1;
nodes = (
(430,0,l),
(430,186,l),
(409,152,l),
(507,152,l),
(507,230,l),
(409,230,l),
(430,202,l),
(430,700,l),
(351,700,l),
(25,231,l),
(25,152,l),
(358,152,l),
(345,179,l),
(345,0,l)
);
},
{
closed = 1;
nodes = (
(367,588,l),
(364,596,l),
(351,574,o),
(347,555,o),
(347,531,cs),
(347,213,l),
(358,230,l),
(142,230,ls),
(114,230,o),
(98,225,o),
(81,215,c),
(97,200,l)
);
}
);
width = 525;
},
{
layerId = m003;
shapes = (
{
closed = 1;
nodes = (
(492,0,l),
(492,186,l),
(470,125,l),
(568,125,l),
(569,255,l),
(471,255,l),
(492,228,l),
(492,700,l),
(344,700,l),
(18,231,l),
(18,125,l),
(358,125,l),
(346,179,l),
(346,0,l)
);
},
{
closed = 1;
nodes = (
(366,504,l),
(364,510,l),
(354,495,o),
(352,481,o),
(352,464,cs),
(352,243,l),
(358,255,l),
(209,255,ls),
(190,255,o),
(179,252,o),
(166,245,c),
(178,234,l)
);
}
);
width = 585;
}
);
unicode = 52;
}
{
color = 0;
glyphname = five;
layers = (
{
layerId = m009;
shapes = (
{
closed = 1;
nodes = (
(361,-10,o),
(443,85,o),
(443,214,cs),
(443,346,o),
(349,441,o),
(186,441,cs),
(132,441,l),
(159,416,l),
(196,670,l),
(145,632,l),
(421,632,l),
(421,700,l),
(125,700,l),
(85,409,l),
(122,372,l),
(189,372,ls),
(313,372,o),
(364,305,o),
(364,217,cs),
(364,124,o),
(308,68,o),
(213,68,cs),
(159,68,o),
(102,87,o),
(39,150,c),
(82,162,l),
(14,26,l),
(12,78,l),
(68,22,o),
(135,-10,o),
(218,-10,cs)
);
}
);
width = 500;
}
);
unicode = 53;
}
{
color = 4;
glyphname = six;
layers = (
{
background = {
shapes = (
{
pos = (-5,0);
ref = zero;
}
);
};
layerId = m009;
shapes = (
{
closed = 1;
nodes = (
(423,-10,o),
(496,89,o),
(496,221,cs),
(496,362,o),
(413,441,o),
(301,441,cs),
(211,441,o),
(138,392,o),
(105,294,c),
(104,294,l),
(95,469,o),
(148,684,o),
(334,684,cs),
(378,684,o),
(425,672,o),
(477,624,c),
(463,625,l),
(490,664,l),
(491,648,l),
(440,695,o),
(387,710,o),
(335,710,cs),
(178,710,o),
(76,570,o),
(76,323,cs),
(76,82,o),
(173,-10,o),
(296,-10,cs)
);
},
{
closed = 1;
nodes = (
(185,16,o),
(119,110,o),
(119,221,cs),
(119,343,o),
(202,415,o),
(300,415,cs),
(405,415,o),
(466,335,o),
(466,217,cs),
(466,97,o),
(402,16,o),
(298,16,cs)
);
}
);
width = 561;
},
{
associatedMasterId = m009;
background = {
shapes = (
{
pos = (46,0);
ref = five;
}
);
};
layerId = "ABBE1C7C-6AB8-4962-8F50-C77A14345A97";
name = "16 Jun 23 14.38";
shapes = (
{
closed = 1;
nodes = (
(407,-10,o),
(501,79,o),
(501,200,cs),
(501,323,o),
(406,416,o),
(287,416,cs),
(213,416,o),
(154,378,o),
(94,305,c),
(101,231,l),
(153,302,o),
(204,344,o),
(279,344,cs),
(365,344,o),
(425,289,o),
(425,203,cs),
(425,119,o),
(368,65,o),
(284,65,cs),
(193,65,o),
(127,130,o),
(127,281,cs),
(127,485,o),
(250,630,o),
(427,630,cs),
(461,630,l),
(461,700,l),
(429,700,ls),
(209,700,o),
(47,520,o),
(47,273,cs),
(47,94,o),
(141,-10,o),
(280,-10,cs)
);
}
);
width = 528;
},
{
associatedMasterId = m009;
background = {
shapes = (
{
pos = (46,0);
ref = five;
}
);
};
layerId = "B6DADB05-F3AF-47A1-8FBE-C2E0D01930EF";
name = "16 Jun 23 14.56";
shapes = (
{
angle = 180;
pos = (558,690);
ref = nine;
}
);
width = 558;
},
{
associatedMasterId = m009;
background = {
shapes = (
{
pos = (46,0);
ref = five;
}
);
};
layerId = "68A525AD-1089-48B6-8476-0474E7DCECF9";
name = "16 Jun 23 15.01";
shapes = (
{
closed = 1;
nodes = (
(148,710,o),
(42,588,o),
(42,342,cs),
(42,119,o),
(121,-10,o),
(281,-10,cs),
(414,-10,o),
(511,90,o),
(511,231,cs),
(511,380,o),
(407,451,o),
(298,451,cs),
(239,451,o),
(148,424,o),
(113,334,c),
(123,320,l),
(124,490,o),
(164,631,o),
(300,631,cs),
(364,631,o),
(416,606,o),
(468,563,c),
(449,560,l),
(504,652,l),
(506,638,l),
(449,680,o),
(386,710,o),
(301,710,cs)
);
},
{
closed = 1;
nodes = (
(380,374,o),
(430,315,o),
(430,226,cs),
(430,136,o),
(376,68,o),
(283,68,cs),
(201,68,o),
(145,125,o),
(145,218,cs),
(145,320,o),
(200,374,o),
(291,374,cs)
);
}
);
width = 528;
},
{
background = {
shapes = (
{
pos = (-5,0);
ref = zero;
}
);
};
layerId = m002;
shapes = (
{
closed = 1;
nodes = (
(424,-10,o),
(519,89,o),
(519,231,cs),
(519,380,o),
(413,451,o),
(307,451,cs),
(249,451,o),
(175,430,o),
(129,349,c),
(128,350,l),
(130,485,o),
(187,632,o),
(329,632,cs),
(380,632,o),
(430,613,o),
(478,569,c),
(461,565,l),
(511,656,l),
(516,638,l),
(457,691,o),
(388,710,o),
(327,710,cs),
(159,710,o),
(47,566,o),
(47,328,cs),
(47,115,o),
(136,-10,o),
(288,-10,cs)
);
},
{
closed = 1;
nodes = (
(206,68,o),
(150,135,o),
(150,224,cs),
(150,320,o),
(216,374,o),
(300,374,cs),
(387,374,o),
(438,315,o),
(438,227,cs),
(438,136,o),
(384,68,o),
(295,68,cs)
);
}
);
width = 561;
},
{
associatedMasterId = m002;
background = {
shapes = (
{
pos = (46,0);
ref = five;
}
);
};
layerId = "E5AA859F-47FA-4BAB-AEFB-F4E6DA978E94";
name = "16 Jun 23 14.38";
shapes = (
{
closed = 1;
nodes = (
(407,-10,o),
(501,79,o),
(501,200,cs),
(501,323,o),
(406,416,o),
(287,416,cs),
(213,416,o),
(154,378,o),
(94,305,c),
(101,231,l),
(153,302,o),
(204,344,o),
(279,344,cs),
(365,344,o),
(425,289,o),
(425,203,cs),
(425,119,o),
(368,65,o),
(284,65,cs),
(193,65,o),
(127,130,o),
(127,281,cs),
(127,485,o),
(250,630,o),
(427,630,cs),
(461,630,l),
(461,700,l),
(429,700,ls),
(209,700,o),
(47,520,o),
(47,273,cs),
(47,94,o),
(141,-10,o),
(280,-10,cs)
);
}
);
width = 528;
},
{
associatedMasterId = m002;
background = {
shapes = (
{
pos = (46,0);
ref = five;
}
);
};
layerId = "AAC11661-C787-430A-B803-B2E04281E09F";
name = "16 Jun 23 14.56";
shapes = (
{
angle = 180;
pos = (558,690);
ref = nine;
}
);
width = 558;
},
{
associatedMasterId = m002;
background = {
shapes = (
{
pos = (46,0);
ref = five;
}
);
};
layerId = "D439A4A6-789A-4A4C-9E7A-321CA2DB9BE3";
name = "16 Jun 23 15.01";
shapes = (
{
closed = 1;
nodes = (
(148,710,o),
(42,588,o),
(42,342,cs),
(42,119,o),
(121,-10,o),
(281,-10,cs),
(414,-10,o),
(511,90,o),
(511,231,cs),
(511,380,o),
(407,451,o),
(298,451,cs),
(239,451,o),
(148,424,o),
(113,334,c),
(123,320,l),
(124,490,o),
(164,631,o),
(300,631,cs),
(364,631,o),
(416,606,o),
(468,563,c),
(449,560,l),
(504,652,l),
(506,638,l),
(449,680,o),
(386,710,o),
(301,710,cs)
);
},
{
closed = 1;
nodes = (
(380,374,o),
(430,315,o),
(430,226,cs),
(430,136,o),
(376,68,o),
(283,68,cs),
(201,68,o),
(145,125,o),
(145,218,cs),
(145,320,o),
(200,374,o),
(291,374,cs)
);
}
);
width = 528;
},
{
background = {
shapes = (
{
pos = (-5,0);
ref = zero;
}
);
};
layerId = m003;
shapes = (
{
closed = 1;
nodes = (
(425,-10,o),
(537,87,o),
(537,247,cs),
(537,398,o),
(437,474,o),
(329,474,cs),
(275,474,o),
(204,454,o),
(155,388,c),
(153,389,l),
(158,475,o),
(210,577,o),
(337,577,cs),
(389,577,o),
(434,560,o),
(481,525,c),
(461,517,l),
(536,656,l),
(542,638,l),
(481,688,o),
(414,710,o),
(341,710,cs),
(158,710,o),
(20,573,o),
(20,335,cs),
(20,114,o),
(138,-10,o),
(290,-10,cs)
);
},
{
closed = 1;
nodes = (
(222,114,o),
(179,166,o),
(179,235,cs),
(179,310,o),
(231,350,o),
(294,350,cs),
(362,350,o),
(401,304,o),
(401,236,cs),
(401,167,o),
(359,114,o),
(290,114,cs)
);
}
);
width = 561;
},
{
associatedMasterId = m003;
background = {
shapes = (
{
pos = (46,0);
ref = five;
}
);
};
layerId = "BE995DCA-5AA7-4618-B264-766DAAE86468";
name = "16 Jun 23 14.38";
shapes = (
{
closed = 1;
nodes = (
(407,-10,o),
(501,79,o),
(501,200,cs),
(501,323,o),
(406,416,o),
(287,416,cs),
(213,416,o),
(154,378,o),
(94,305,c),
(101,231,l),
(153,302,o),
(204,344,o),
(279,344,cs),
(365,344,o),
(425,289,o),
(425,203,cs),
(425,119,o),
(368,65,o),
(284,65,cs),
(193,65,o),
(127,130,o),
(127,281,cs),
(127,485,o),
(250,630,o),
(427,630,cs),
(461,630,l),
(461,700,l),
(429,700,ls),
(209,700,o),
(47,520,o),
(47,273,cs),
(47,94,o),
(141,-10,o),
(280,-10,cs)
);
}
);
width = 528;
},
{
associatedMasterId = m003;
background = {
shapes = (
{
pos = (46,0);
ref = five;
}
);
};
layerId = "0F36424D-F4E8-443F-AB54-4282164F6CF4";
name = "16 Jun 23 14.56";
shapes = (
{
angle = 180;
pos = (558,690);
ref = nine;
}
);
width = 558;
},
{
associatedMasterId = m003;
background = {
shapes = (
{
pos = (46,0);
ref = five;
}
);
};
layerId = "6000C1C6-B286-46E2-B6C4-267BC372A7F3";
name = "16 Jun 23 15.01";
shapes = (
{
closed = 1;
nodes = (
(148,710,o),
(42,588,o),
(42,342,cs),
(42,119,o),
(121,-10,o),
(281,-10,cs),
(414,-10,o),
(511,90,o),
(511,231,cs),
(511,380,o),
(407,451,o),
(298,451,cs),
(239,451,o),
(148,424,o),
(113,334,c),
(123,320,l),
(124,490,o),
(164,631,o),
(300,631,cs),
(364,631,o),
(416,606,o),
(468,563,c),
(449,560,l),
(504,652,l),
(506,638,l),
(449,680,o),
(386,710,o),
(301,710,cs)
);
},
{
closed = 1;
nodes = (
(380,374,o),
(430,315,o),
(430,226,cs),
(430,136,o),
(376,68,o),
(283,68,cs),
(201,68,o),
(145,125,o),
(145,218,cs),
(145,320,o),
(200,374,o),
(291,374,cs)
);
}
);
width = 528;
}
);
unicode = 54;
}
{
color = 0;
export = 0;
glyphname = seven;
layers = (
{
background = {
shapes = (
{
pos = (21,0);
ref = four;
}
);
};
layerId = m009;
shapes = (
{
closed = 1;
nodes = (
(170,0,l),
(412,630,l),
(412,700,l),
(34,700,l),
(34,630,l),
(373,630,l),
(346,665,l),
(85,0,l)
);
}
);
width = 454;
}
);
unicode = 55;
}
{
color = 4;
glyphname = eight;
layers = (
{
background = {
shapes = (
{
pos = (-40,0);
ref = zero;
}
);
};
layerId = m009;
shapes = (
{
closed = 1;
nodes = (
(164,391,o),
(110,449,o),
(110,533,cs),
(110,622,o),
(170,684,o),
(259,684,cs),
(349,684,o),
(407,622,o),
(407,534,cs),
(407,450,o),
(354,391,o),
(259,391,cs)
);
},
{
closed = 1;
nodes = (
(387,-10,o),
(465,81,o),
(465,193,cs),
(465,291,o),
(405,357,o),
(336,379,c),
(336,381,l),
(404,411,o),
(436,472,o),
(436,538,cs),
(436,638,o),
(362,710,o),
(260,710,cs),
(157,710,o),
(81,637,o),
(81,536,cs),
(81,466,o),
(119,405,o),
(183,380,c),
(183,378,l),
(113,352,o),
(55,285,o),
(55,189,cs),
(55,80,o),
(130,-10,o),
(258,-10,cs)
);
},
{
closed = 1;
nodes = (
(149,16,o),
(85,96,o),
(85,191,cs),
(85,286,o),
(149,367,o),
(261,367,cs),
(373,367,o),
(434,287,o),
(434,191,cs),
(434,94,o),
(372,16,o),
(261,16,cs)
);
}
);
width = 525;
},
{
associatedMasterId = m009;
background = {
shapes = (
{
closed = 1;
nodes = (
(357,-10,o),
(446,59,o),
(446,158,cs),
(446,272,o),
(373,306,o),
(272,392,cs),
(210,445,o),
(135,488,o),
(135,559,cs),
(135,601,o),
(173,649,o),
(240,649,cs),
(310,649,o),
(349,606,o),
(349,548,cs),
(349,487,o),
(307,427,o),
(257,377,c),
(294,345,l),
(378,426,o),
(430,480,o),
(430,555,cs),
(430,636,o),
(364,710,o),
(240,710,cs),
(115,710,o),
(52,632,o),
(52,562,cs),
(52,468,o),
(123,415,o),
(227,324,cs),
(300,260,o),
(361,225,o),
(361,155,cs),
(361,98,o),
(316,64,o),
(240,64,cs),
(166,64,o),
(111,105,o),
(111,173,cs),
(111,237,o),
(140,286,o),
(223,360,c),
(185,387,l),
(76,304,o),
(24,255,o),
(24,156,cs),
(24,66,o),
(110,-10,o),
(235,-10,cs)
);
}
);
};
layerId = "24E2B385-55FD-4CAF-97F1-F9749B1E1E80";
name = "16 Jun 23 16.30";
shapes = (
{
closed = 1;
nodes = (
(357,-10,o),
(456,59,o),
(456,171,cs),
(456,288,o),
(346,331,o),
(267,388,cs),
(202,435,o),
(124,470,o),
(124,553,cs),
(124,608,o),
(173,649,o),
(240,649,cs),
(307,649,o),
(356,608,o),
(356,550,cs),
(356,473,o),
(295,430,o),
(233,385,c),
(286,342,l),
(362,398,o),
(438,446,o),
(438,546,cs),
(438,639,o),
(355,710,o),
(240,710,cs),
(125,710,o),
(42,639,o),
(42,547,cs),
(42,440,o),
(136,399,o),
(216,339,cs),
(291,283,o),
(374,242,o),
(374,166,cs),
(374,103,o),
(323,64,o),
(240,64,cs),
(164,64,o),
(107,103,o),
(107,169,cs),
(107,241,o),
(173,293,o),
(246,347,c),
(191,389,l),
(114,336,o),
(24,282,o),
(24,173,cs),
(24,59,o),
(123,-10,o),
(240,-10,cs)
);
}
);
width = 485;
},
{
background = {
shapes = (
{
pos = (-40,0);
ref = zero;
}
);
};
layerId = m002;
shapes = (
{
closed = 1;
nodes = (
(188,413,o),
(137,455,o),
(137,522,cs),
(137,597,o),
(191,634,o),
(259,634,cs),
(327,634,o),
(380,597,o),
(380,523,cs),
(380,455,o),
(330,413,o),
(258,413,cs)
);
},
{
closed = 1;
nodes = (
(384,-10,o),
(487,64,o),
(487,199,cs),
(487,282,o),
(443,347,o),
(374,378,c),
(374,380,l),
(435,414,o),
(462,467,o),
(462,530,cs),
(462,627,o),
(383,710,o),
(259,710,cs),
(135,710,o),
(56,626,o),
(56,530,cs),
(56,467,o),
(87,407,o),
(145,379,c),
(145,377,l),
(79,344,o),
(33,284,o),
(33,193,cs),
(33,68,o),
(132,-10,o),
(258,-10,cs)
);
},
{
closed = 1;
nodes = (
(184,66,o),
(119,110,o),
(119,204,cs),
(119,290,o),
(183,339,o),
(258,339,cs),
(336,339,o),
(399,292,o),
(399,204,cs),
(399,113,o),
(336,66,o),
(259,66,cs)
);
}
);
width = 525;
},
{
associatedMasterId = m002;
background = {
shapes = (
{
closed = 1;
nodes = (
(357,-10,o),
(446,59,o),
(446,158,cs),
(446,272,o),
(373,306,o),
(272,392,cs),
(210,445,o),
(135,488,o),
(135,559,cs),
(135,601,o),
(173,649,o),
(240,649,cs),
(310,649,o),
(349,606,o),
(349,548,cs),
(349,487,o),
(307,427,o),
(257,377,c),
(294,345,l),
(378,426,o),
(430,480,o),
(430,555,cs),
(430,636,o),
(364,710,o),
(240,710,cs),
(115,710,o),
(52,632,o),
(52,562,cs),
(52,468,o),
(123,415,o),
(227,324,cs),
(300,260,o),
(361,225,o),
(361,155,cs),
(361,98,o),
(316,64,o),
(240,64,cs),
(166,64,o),
(111,105,o),
(111,173,cs),
(111,237,o),
(140,286,o),
(223,360,c),
(185,387,l),
(76,304,o),
(24,255,o),
(24,156,cs),
(24,66,o),
(110,-10,o),
(235,-10,cs)
);
}
);
};
layerId = "2226893A-8639-427E-A108-8AC0B2450A98";
name = "16 Jun 23 16.30";
shapes = (
{
closed = 1;
nodes = (
(357,-10,o),
(456,59,o),
(456,171,cs),
(456,288,o),
(346,331,o),
(267,388,cs),
(202,435,o),
(124,470,o),
(124,553,cs),
(124,608,o),
(173,649,o),
(240,649,cs),
(307,649,o),
(356,608,o),
(356,550,cs),
(356,473,o),
(295,430,o),
(233,385,c),
(286,342,l),
(362,398,o),
(438,446,o),
(438,546,cs),
(438,639,o),
(355,710,o),
(240,710,cs),
(125,710,o),
(42,639,o),
(42,547,cs),
(42,440,o),
(136,399,o),
(216,339,cs),
(291,283,o),
(374,242,o),
(374,166,cs),
(374,103,o),
(323,64,o),
(240,64,cs),
(164,64,o),
(107,103,o),
(107,169,cs),
(107,241,o),
(173,293,o),
(246,347,c),
(191,389,l),
(114,336,o),
(24,282,o),
(24,173,cs),
(24,59,o),
(123,-10,o),
(240,-10,cs)
);
}
);
width = 485;
},
{
background = {
shapes = (
{
pos = (-40,0);
ref = zero;
}
);
};
layerId = m003;
shapes = (
{
closed = 1;
nodes = (
(244,438,o),
(203,466,o),
(203,512,cs),
(203,559,o),
(245,586,o),
(299,586,cs),
(351,586,o),
(393,560,o),
(393,512,cs),
(393,467,o),
(354,438,o),
(299,438,cs)
);
},
{
closed = 1;
nodes = (
(446,-10,o),
(565,72,o),
(565,205,cs),
(565,287,o),
(519,349,o),
(444,378,c),
(444,380,l),
(505,413,o),
(535,464,o),
(535,523,cs),
(535,625,o),
(447,710,o),
(301,710,cs),
(154,710,o),
(63,624,o),
(63,525,cs),
(63,465,o),
(96,407,o),
(155,379,c),
(155,377,l),
(87,349,o),
(35,289,o),
(35,202,cs),
(35,74,o),
(149,-10,o),
(298,-10,cs)
);
},
{
closed = 1;
nodes = (
(237,114,o),
(184,145,o),
(184,211,cs),
(184,276,o),
(237,310,o),
(299,310,cs),
(361,310,o),
(413,277,o),
(413,212,cs),
(413,146,o),
(361,114,o),
(299,114,cs)
);
}
);
width = 605;
},
{
associatedMasterId = m003;
background = {
shapes = (
{
closed = 1;
nodes = (
(357,-10,o),
(446,59,o),
(446,158,cs),
(446,272,o),
(373,306,o),
(272,392,cs),
(210,445,o),
(135,488,o),
(135,559,cs),
(135,601,o),
(173,649,o),
(240,649,cs),
(310,649,o),
(349,606,o),
(349,548,cs),
(349,487,o),
(307,427,o),
(257,377,c),
(294,345,l),
(378,426,o),
(430,480,o),
(430,555,cs),
(430,636,o),
(364,710,o),
(240,710,cs),
(115,710,o),
(52,632,o),
(52,562,cs),
(52,468,o),
(123,415,o),
(227,324,cs),
(300,260,o),
(361,225,o),
(361,155,cs),
(361,98,o),
(316,64,o),
(240,64,cs),
(166,64,o),
(111,105,o),
(111,173,cs),
(111,237,o),
(140,286,o),
(223,360,c),
(185,387,l),
(76,304,o),
(24,255,o),
(24,156,cs),
(24,66,o),
(110,-10,o),
(235,-10,cs)
);
}
);
};
layerId = "D282F943-A9AC-4DB3-822C-0937208CCDE3";
name = "16 Jun 23 16.30";
shapes = (
{
closed = 1;
nodes = (
(357,-10,o),
(456,59,o),
(456,171,cs),
(456,288,o),
(346,331,o),
(267,388,cs),
(202,435,o),
(124,470,o),
(124,553,cs),
(124,608,o),
(173,649,o),
(240,649,cs),
(307,649,o),
(356,608,o),
(356,550,cs),
(356,473,o),
(295,430,o),
(233,385,c),
(286,342,l),
(362,398,o),
(438,446,o),
(438,546,cs),
(438,639,o),
(355,710,o),
(240,710,cs),
(125,710,o),
(42,639,o),
(42,547,cs),
(42,440,o),
(136,399,o),
(216,339,cs),
(291,283,o),
(374,242,o),
(374,166,cs),
(374,103,o),
(323,64,o),
(240,64,cs),
(164,64,o),
(107,103,o),
(107,169,cs),
(107,241,o),
(173,293,o),
(246,347,c),
(191,389,l),
(114,336,o),
(24,282,o),
(24,173,cs),
(24,59,o),
(123,-10,o),
(240,-10,cs)
);
}
);
width = 485;
}
);
unicode = 56;
}
{
color = 0;
glyphname = nine;
layers = (
{
layerId = m009;
shapes = (
{
closed = 1;
nodes = (
(305,37,o),
(503,188,o),
(507,432,cs),
(510,599,o),
(406,701,o),
(275,701,cs),
(152,701,o),
(65,613,o),
(63,480,cs),
(61,342,o),
(148,255,o),
(260,255,cs),
(329,255,o),
(395,288,o),
(438,342,c),
(444,409,l),
(401,347,o),
(336,318,o),
(277,318,cs),
(180,318,o),
(133,395,o),
(134,478,cs),
(135,565,o),
(191,632,o),
(274,632,cs),
(358,632,o),
(432,565,o),
(430,430,cs),
(426,220,o),
(279,109,o),
(123,44,c),
(147,-10,l)
);
}
);
width = 604;
}
);
unicode = 57;
}
{
glyphname = colon;
layers = (
{
layerId = m009;
shapes = (
{
closed = 1;
nodes = (
(145,455,l),
(145,545,l),
(50,545,l),
(50,455,l)
);
},
{
closed = 1;
nodes = (
(145,0,l),
(145,90,l),
(50,90,l),
(50,0,l)
);
}
);
width = 195;
}
);
unicode = 58;
}
{
glyphname = less;
layers = (
{
layerId = m009;
shapes = (
{
closed = 1;
nodes = (
(454,90,l),
(463,71,l),
(132,248,ls),
(105,262,o),
(74,280,o),
(55,283,c),
(55,280,l),
(74,284,o),
(94,291,o),
(139,313,cs),
(450,466,l),
(453,454,l),
(432,498,l),
(448,488,l),
(28,282,l),
(40,302,l),
(40,260,l),
(32,278,l),
(452,54,l),
(434,52,l)
);
}
);
width = 516;
},
{
layerId = m002;
shapes = (
{
closed = 1;
nodes = (
(470,119,l),
(476,85,l),
(172,248,ls),
(145,262,o),
(111,280,o),
(82,283,c),
(82,280,l),
(111,284,o),
(134,291,o),
(179,313,cs),
(490,466,l),
(463,430,l),
(423,518,l),
(448,516,l),
(14,303,l),
(30,322,l),
(30,233,l),
(16,258,l),
(452,27,l),
(418,22,l)
);
}
);
width = 516;
},
{
layerId = m003;
shapes = (
{
closed = 1;
nodes = (
(486,149,l),
(490,110,l),
(235,248,ls),
(208,262,o),
(174,280,o),
(145,283,c),
(145,280,l),
(174,284,o),
(197,291,o),
(242,313,cs),
(486,433,l),
(480,392,l),
(412,541,l),
(448,536,l),
(-10,311,l),
(20,344,l),
(20,216,l),
(-10,252,l),
(437,15,l),
(406,4,l)
);
}
);
width = 516;
}
);
unicode = 60;
}
{
glyphname = equal;
layers = (
{
background = {
shapes = (
{
ref = plus;
}
);
};
layerId = m009;
shapes = (
{
closed = 1;
nodes = (
(479,384,l),
(479,449,l),
(120,449,l),
(120,384,l)
);
},
{
closed = 1;
nodes = (
(479,254,l),
(479,319,l),
(120,319,l),
(120,254,l)
);
}
);
width = 600;
}
);
unicode = 61;
}
{
glyphname = greater;
layers = (
{
background = {
shapes = (
{
pos = (-95,0);
ref = plus;
}
);
};
layerId = m009;
shapes = (
{
closed = 1;
nodes = (
(393,341,l),
(393,363,l),
(20,526,l),
(20,466,l),
(310,346,l),
(310,358,l),
(20,240,l),
(20,180,l)
);
}
);
width = 413;
}
);
unicode = 62;
}
{
glyphname = question;
layers = (
{
background = {
shapes = (
{
closed = 1;
nodes = (
(375,0,l),
(375,70,l),
(20,70,l),
(62,41,l),
(311,359,ls),
(368,432,o),
(390,485,o),
(390,536,cs),
(390,640,o),
(304,710,o),
(193,710,cs),
(120,710,o),
(42,679,o),
(-15,623,c),
(-12,674,l),
(52,539,l),
(15,555,l),
(69,604,o),
(131,632,o),
(189,632,cs),
(264,632,o),
(310,598,o),
(310,539,cs),
(310,502,o),
(292,462,o),
(253,412,cs),
(-16,69,l),
(-16,0,l)
);
}
);
};
layerId = m009;
shapes = (
{
closed = 1;
nodes = (
(246,153,l),
(246,207,ls),
(246,308,o),
(416,373,o),
(416,525,cs),
(416,650,o),
(321,710,o),
(211,710,cs),
(137,710,o),
(64,681,o),
(6,626,c),
(10,653,l),
(69,561,l),
(44,557,l),
(90,602,o),
(144,631,o),
(214,631,cs),
(281,631,o),
(331,596,o),
(331,524,cs),
(331,403,o),
(168,340,o),
(168,209,cs),
(168,153,l)
);
},
{
pos = (118,0);
ref = period;
}
);
width = 466;
},
{
associatedMasterId = m009;
background = {
shapes = (
{
closed = 1;
nodes = (
(412,0,l),
(412,70,l),
(57,70,l),
(99,41,l),
(348,359,ls),
(405,432,o),
(427,485,o),
(427,536,cs),
(427,640,o),
(341,710,o),
(230,710,cs),
(157,710,o),
(79,679,o),
(22,623,c),
(25,674,l),
(89,539,l),
(52,555,l),
(106,604,o),
(168,632,o),
(226,632,cs),
(301,632,o),
(347,598,o),
(347,539,cs),
(347,502,o),
(329,462,o),
(290,412,cs),
(21,69,l),
(21,0,l)
);
}
);
};
layerId = "7304DB79-A701-41CE-91CD-E7187B8B4103";
name = "19 Jun 23 10.26";
shapes = (
{
closed = 1;
nodes = (
(240,195,l),
(240,218,ls),
(240,274,o),
(264,305,o),
(318,353,cs),
(368,398,o),
(427,446,o),
(427,535,cs),
(427,643,o),
(341,710,o),
(231,710,cs),
(157,710,o),
(79,679,o),
(22,623,c),
(25,674,l),
(89,539,l),
(52,555,l),
(106,604,o),
(168,632,o),
(230,632,cs),
(301,632,o),
(347,596,o),
(347,538,cs),
(347,482,o),
(304,440,o),
(262,400,cs),
(215,356,o),
(167,305,o),
(167,222,cs),
(167,195,l)
);
},
{
closed = 1;
nodes = (
(243,0,l),
(243,90,l),
(155,90,l),
(155,0,l)
);
}
);
width = 465;
}
);
unicode = 63;
}
{
glyphname = at;
layers = (
{
background = {
shapes = (
{
pos = (55,0);
ref = C;
}
);
};
layerId = m009;
shapes = (
{
closed = 1;
nodes = (
(535,-10,o),
(599,38,o),
(627,116,c),
(637,116,l),
(636,205,l),
(629,205,l),
(618,88,o),
(555,17,o),
(462,17,cs),
(376,17,o),
(333,80,o),
(333,154,cs),
(333,247,o),
(402,292,o),
(487,292,cs),
(548,292,o),
(599,269,o),
(641,244,c),
(641,268,l),
(605,291,o),
(550,315,o),
(484,315,cs),
(383,315,o),
(305,259,o),
(305,153,cs),
(305,67,o),
(358,-10,o),
(457,-10,cs)
);
},
{
closed = 1;
nodes = (
(626,-203,o),
(725,-168,o),
(794,-112,c),
(791,-118,l),
(773,-91,l),
(785,-87,l),
(703,-150,o),
(605,-177,o),
(511,-177,cs),
(275,-177,o),
(95,-9,o),
(95,253,cs),
(95,501,o),
(257,670,o),
(493,670,cs),
(731,670,o),
(867,499,o),
(867,269,cs),
(867,100,o),
(793,17,o),
(721,17,cs),
(685,17,o),
(655,38,o),
(655,103,cs),
(655,373,ls),
(655,489,o),
(584,547,o),
(483,547,cs),
(435,547,o),
(380,534,o),
(323,494,c),
(326,507,l),
(347,471,l),
(332,471,l),
(388,511,o),
(436,522,o),
(480,522,cs),
(571,522,o),
(628,473,o),
(628,364,cs),
(628,257,l),
(629,161,l),
(629,143,l),
(629,95,ls),
(629,22,o),
(667,-10,o),
(720,-10,cs),
(810,-10,o),
(897,84,o),
(897,267,cs),
(897,487,o),
(771,696,o),
(498,696,cs),
(254,696,o),
(66,528,o),
(66,253,cs),
(66,-17,o),
(248,-203,o),
(512,-203,cs)
);
}
);
width = 950;
},
{
associatedMasterId = m009;
background = {
shapes = (
{
pos = (50,0);
ref = C;
}
);
};
layerId = "3754E751-3762-4737-8C92-62D1F553546E";
name = "19 Jun 23 14.21";
shapes = (
{
closed = 1;
nodes = (
(491,-10,o),
(557,11,o),
(610,53,c),
(586,104,l),
(544,71,o),
(479,53,o),
(415,53,cs),
(248,53,o),
(128,177,o),
(128,353,cs),
(128,530,o),
(248,647,o),
(426,647,cs),
(599,647,o),
(715,545,o),
(715,366,cs),
(715,266,o),
(676,213,o),
(622,213,cs),
(583,213,o),
(557,241,o),
(557,294,cs),
(557,527,l),
(500,527,l),
(500,484,l),
(496,484,l),
(476,515,o),
(439,538,o),
(391,538,cs),
(314,538,o),
(235,478,o),
(235,360,cs),
(235,243,o),
(311,184,o),
(388,184,cs),
(445,184,o),
(480,209,o),
(500,248,c),
(503,248,l),
(511,207,o),
(545,157,o),
(612,157,cs),
(707,157,o),
(775,247,o),
(775,376,cs),
(775,582,o),
(631,710,o),
(426,710,cs),
(229,710,o),
(60,567,o),
(60,353,cs),
(60,139,o),
(221,-10,o),
(417,-10,cs)
);
},
{
closed = 1;
nodes = (
(341,234,o),
(300,286,o),
(300,363,cs),
(300,445,o),
(342,488,o),
(399,488,cs),
(454,488,o),
(501,451,o),
(501,362,cs),
(501,273,o),
(459,234,o),
(401,234,cs)
);
}
);
width = 840;
},
{
associatedMasterId = m009;
background = {
shapes = (
{
pos = (55,0);
ref = C;
}
);
};
layerId = "FBECB4A4-A63C-444F-BDDA-4B32687DF204";
name = "19 Jun 23 14.51";
shapes = (
{
closed = 1;
nodes = (
(530,-10,o),
(588,29,o),
(619,80,c),
(629,80,l),
(622,233,l),
(613,233,l),
(607,115,o),
(545,58,o),
(463,58,cs),
(406,58,o),
(362,89,o),
(362,156,cs),
(362,228,o),
(422,255,o),
(489,255,cs),
(537,255,o),
(583,242,o),
(620,224,c),
(633,286,l),
(580,312,o),
(525,323,o),
(475,323,cs),
(372,323,o),
(286,260,o),
(286,153,cs),
(286,53,o),
(356,-10,o),
(455,-10,cs)
);
},
{
closed = 1;
nodes = (
(638,-215,o),
(739,-176,o),
(812,-108,c),
(803,-138,l),
(753,-59,l),
(796,-50,l),
(690,-132,o),
(605,-152,o),
(512,-152,cs),
(287,-152,o),
(118,2,o),
(118,255,cs),
(118,487,o),
(267,647,o),
(496,647,cs),
(715,647,o),
(844,491,o),
(844,270,cs),
(844,136,o),
(800,53,o),
(742,53,cs),
(698,53,o),
(684,94,o),
(684,145,cs),
(684,338,ls),
(684,473,o),
(614,555,o),
(478,555,cs),
(411,555,o),
(350,536,o),
(286,489,c),
(306,527,l),
(356,428,l),
(318,428,l),
(362,461,o),
(414,481,o),
(473,481,cs),
(563,481,o),
(610,436,o),
(610,338,cs),
(610,270,l),
(613,256,l),
(613,123,l),
(620,113,l),
(620,34,o),
(664,-10,o),
(731,-10,cs),
(856,-10,o),
(910,122,o),
(910,272,cs),
(910,492,o),
(785,710,o),
(500,710,cs),
(246,710,o),
(50,535,o),
(50,256,cs),
(50,-25,o),
(243,-215,o),
(505,-215,cs)
);
}
);
width = 950;
},
{
associatedMasterId = m009;
background = {
shapes = (
{
pos = (55,0);
ref = C;
}
);
};
layerId = "EE8A51FE-FE94-4FAE-8377-55FBAD6D57CC";
name = "19 Jun 23 15.12";
shapes = (
{
closed = 1;
nodes = (
(806,-215,o),
(937,-5,o),
(937,238,cs),
(937,523,o),
(757,710,o),
(479,710,cs),
(386,710,o),
(295,683,o),
(224,644,c),
(230,721,l),
(289,571,l),
(247,591,l),
(308,622,o),
(383,647,o),
(467,647,cs),
(719,647,o),
(870,482,o),
(870,237,cs),
(870,25,o),
(759,-152,o),
(510,-152,cs),
(328,-152,o),
(153,-53,o),
(153,172,cs),
(153,349,o),
(267,464,o),
(430,464,cs),
(523,464,o),
(610,424,o),
(610,316,cs),
(610,270,l),
(613,256,l),
(613,123,l),
(620,113,l),
(620,14,o),
(654,-10,o),
(697,-10,cs),
(717,-10,o),
(738,-3,o),
(755,7,c),
(749,-8,l),
(728,68,l),
(745,58,l),
(692,38,o),
(684,66,o),
(684,142,cs),
(684,309,ls),
(684,454,o),
(574,531,o),
(438,531,cs),
(239,531,o),
(87,384,o),
(87,174,cs),
(87,-87,o),
(286,-215,o),
(504,-215,cs)
);
},
{
closed = 1;
nodes = (
(538,-9,o),
(593,38,o),
(616,99,c),
(629,99,l),
(622,233,l),
(610,233,l),
(604,115,o),
(550,59,o),
(463,58,cs),
(405,57,o),
(361,88,o),
(361,154,cs),
(361,227,o),
(421,254,o),
(489,255,cs),
(537,256,o),
(583,242,o),
(620,224,c),
(633,286,l),
(580,312,o),
(525,323,o),
(475,323,cs),
(366,322,o),
(280,259,o),
(280,152,cs),
(280,61,o),
(350,-11,o),
(455,-10,cs)
);
}
);
width = 950;
},
{
background = {
shapes = (
{
pos = (55,0);
ref = C;
}
);
};
layerId = m002;
shapes = (
{
closed = 1;
nodes = (
(530,-10,o),
(588,29,o),
(619,80,c),
(629,80,l),
(622,233,l),
(613,233,l),
(607,115,o),
(544,58,o),
(465,58,cs),
(406,58,o),
(362,89,o),
(362,154,cs),
(362,229,o),
(422,255,o),
(489,255,cs),
(537,255,o),
(583,242,o),
(620,224,c),
(633,286,l),
(580,312,o),
(524,323,o),
(479,323,cs),
(370,323,o),
(286,260,o),
(286,152,cs),
(286,54,o),
(356,-10,o),
(454,-10,cs)
);
},
{
closed = 1;
nodes = (
(635,-215,o),
(741,-175,o),
(812,-108,c),
(803,-138,l),
(753,-59,l),
(796,-50,l),
(693,-130,o),
(605,-152,o),
(518,-152,cs),
(286,-152,o),
(118,2,o),
(118,252,cs),
(118,487,o),
(267,647,o),
(493,647,cs),
(717,647,o),
(844,489,o),
(844,268,cs),
(844,138,o),
(800,54,o),
(740,54,cs),
(699,54,o),
(684,93,o),
(684,145,cs),
(684,338,ls),
(684,473,o),
(614,555,o),
(478,555,cs),
(411,555,o),
(350,536,o),
(286,489,c),
(306,527,l),
(356,428,l),
(318,428,l),
(362,461,o),
(414,481,o),
(473,481,cs),
(563,481,o),
(610,436,o),
(610,338,cs),
(610,270,l),
(613,256,l),
(613,123,l),
(620,113,l),
(620,34,o),
(663,-10,o),
(733,-10,cs),
(854,-10,o),
(913,123,o),
(913,273,cs),
(913,495,o),
(785,710,o),
(501,710,cs),
(246,710,o),
(50,536,o),
(50,254,cs),
(50,-25,o),
(241,-215,o),
(511,-215,cs)
);
}
);
width = 950;
},
{
associatedMasterId = m002;
background = {
shapes = (
{
pos = (50,0);
ref = C;
}
);
};
layerId = "BB577F43-D291-454E-BDEC-9A5E4CC8E227";
name = "19 Jun 23 14.21";
shapes = (
{
closed = 1;
nodes = (
(491,-10,o),
(557,11,o),
(610,53,c),
(586,104,l),
(544,71,o),
(479,53,o),
(415,53,cs),
(248,53,o),
(128,177,o),
(128,353,cs),
(128,530,o),
(248,647,o),
(426,647,cs),
(599,647,o),
(715,545,o),
(715,366,cs),
(715,266,o),
(676,213,o),
(622,213,cs),
(583,213,o),
(557,241,o),
(557,294,cs),
(557,527,l),
(500,527,l),
(500,484,l),
(496,484,l),
(476,515,o),
(439,538,o),
(391,538,cs),
(314,538,o),
(235,478,o),
(235,360,cs),
(235,243,o),
(311,184,o),
(388,184,cs),
(445,184,o),
(480,209,o),
(500,248,c),
(503,248,l),
(511,207,o),
(545,157,o),
(612,157,cs),
(707,157,o),
(775,247,o),
(775,376,cs),
(775,582,o),
(631,710,o),
(426,710,cs),
(229,710,o),
(60,567,o),
(60,353,cs),
(60,139,o),
(221,-10,o),
(417,-10,cs)
);
},
{
closed = 1;
nodes = (
(341,234,o),
(300,286,o),
(300,363,cs),
(300,445,o),
(342,488,o),
(399,488,cs),
(454,488,o),
(501,451,o),
(501,362,cs),
(501,273,o),
(459,234,o),
(401,234,cs)
);
}
);
width = 840;
},
{
associatedMasterId = m002;
background = {
shapes = (
{
pos = (55,0);
ref = C;
}
);
};
layerId = "F00E0D6B-7D07-4DCF-BB4D-3360711C2565";
name = "19 Jun 23 14.51";
shapes = (
{
closed = 1;
nodes = (
(530,-10,o),
(588,29,o),
(619,80,c),
(629,80,l),
(622,233,l),
(613,233,l),
(607,115,o),
(545,58,o),
(463,58,cs),
(406,58,o),
(362,89,o),
(362,156,cs),
(362,228,o),
(422,255,o),
(489,255,cs),
(537,255,o),
(583,242,o),
(620,224,c),
(633,286,l),
(580,312,o),
(525,323,o),
(475,323,cs),
(372,323,o),
(286,260,o),
(286,153,cs),
(286,53,o),
(356,-10,o),
(455,-10,cs)
);
},
{
closed = 1;
nodes = (
(638,-215,o),
(739,-176,o),
(812,-108,c),
(803,-138,l),
(753,-59,l),
(796,-50,l),
(690,-132,o),
(605,-152,o),
(512,-152,cs),
(287,-152,o),
(118,2,o),
(118,255,cs),
(118,487,o),
(267,647,o),
(496,647,cs),
(715,647,o),
(844,491,o),
(844,270,cs),
(844,136,o),
(800,53,o),
(742,53,cs),
(698,53,o),
(684,94,o),
(684,145,cs),
(684,338,ls),
(684,473,o),
(614,555,o),
(478,555,cs),
(411,555,o),
(350,536,o),
(286,489,c),
(306,527,l),
(356,428,l),
(318,428,l),
(362,461,o),
(414,481,o),
(473,481,cs),
(563,481,o),
(610,436,o),
(610,338,cs),
(610,270,l),
(613,256,l),
(613,123,l),
(620,113,l),
(620,34,o),
(664,-10,o),
(731,-10,cs),
(856,-10,o),
(910,122,o),
(910,272,cs),
(910,492,o),
(785,710,o),
(500,710,cs),
(246,710,o),
(50,535,o),
(50,256,cs),
(50,-25,o),
(243,-215,o),
(505,-215,cs)
);
}
);
width = 950;
},
{
associatedMasterId = m002;
background = {
shapes = (
{
pos = (55,0);
ref = C;
}
);
};
layerId = "12F6745D-5674-4875-8F72-D452EE4FD611";
name = "19 Jun 23 15.12";
shapes = (
{
closed = 1;
nodes = (
(806,-215,o),
(937,-5,o),
(937,238,cs),
(937,523,o),
(757,710,o),
(479,710,cs),
(386,710,o),
(295,683,o),
(224,644,c),
(230,721,l),
(289,571,l),
(247,591,l),
(308,622,o),
(383,647,o),
(467,647,cs),
(719,647,o),
(870,482,o),
(870,237,cs),
(870,25,o),
(759,-152,o),
(510,-152,cs),
(328,-152,o),
(153,-53,o),
(153,172,cs),
(153,349,o),
(267,464,o),
(430,464,cs),
(523,464,o),
(610,424,o),
(610,316,cs),
(610,270,l),
(613,256,l),
(613,123,l),
(620,113,l),
(620,14,o),
(654,-10,o),
(697,-10,cs),
(717,-10,o),
(738,-3,o),
(755,7,c),
(749,-8,l),
(728,68,l),
(745,58,l),
(692,38,o),
(684,66,o),
(684,142,cs),
(684,309,ls),
(684,454,o),
(574,531,o),
(438,531,cs),
(239,531,o),
(87,384,o),
(87,174,cs),
(87,-87,o),
(286,-215,o),
(504,-215,cs)
);
},
{
closed = 1;
nodes = (
(538,-9,o),
(593,38,o),
(616,99,c),
(629,99,l),
(622,233,l),
(610,233,l),
(604,115,o),
(550,59,o),
(463,58,cs),
(405,57,o),
(361,88,o),
(361,154,cs),
(361,227,o),
(421,254,o),
(489,255,cs),
(537,256,o),
(583,242,o),
(620,224,c),
(633,286,l),
(580,312,o),
(525,323,o),
(475,323,cs),
(366,322,o),
(280,259,o),
(280,152,cs),
(280,61,o),
(350,-11,o),
(455,-10,cs)
);
}
);
width = 950;
},
{
background = {
shapes = (
{
pos = (95,0);
ref = C;
}
);
};
layerId = m003;
shapes = (
{
closed = 1;
nodes = (
(563,-10,o),
(610,34,o),
(639,93,c),
(655,93,l),
(655,238,l),
(615,239,l),
(618,155,o),
(572,97,o),
(516,97,cs),
(477,97,o),
(448,125,o),
(448,167,cs),
(448,212,o),
(480,238,o),
(531,238,cs),
(558,238,o),
(598,234,o),
(633,224,c),
(643,309,l),
(610,322,o),
(568,331,o),
(519,331,cs),
(409,331,o),
(317,269,o),
(317,155,cs),
(317,54,o),
(385,-10,o),
(482,-10,cs)
);
},
{
closed = 1;
nodes = (
(690,-248,o),
(794,-203,o),
(880,-134,c),
(864,-171,l),
(771,-25,l),
(817,-29,l),
(733,-102,o),
(639,-124,o),
(560,-124,cs),
(358,-124,o),
(201,21,o),
(201,239,cs),
(201,440,o),
(334,590,o),
(549,590,cs),
(753,590,o),
(857,454,o),
(857,272,cs),
(857,162,o),
(819,117,o),
(791,117,cs),
(767,117,o),
(761,148,o),
(761,183,cs),
(761,332,ls),
(761,480,o),
(668,554,o),
(539,554,cs),
(463,554,o),
(391,528,o),
(331,482,c),
(336,503,l),
(395,379,l),
(380,380,l),
(428,415,o),
(469,430,o),
(513,430,cs),
(572,430,o),
(628,404,o),
(628,338,cs),
(628,280,l),
(619,259,l),
(633,147,l),
(635,128,l),
(649,31,o),
(719,-10,o),
(794,-10,cs),
(913,-10,o),
(996,93,o),
(996,274,cs),
(996,529,o),
(830,710,o),
(555,710,cs),
(271,710,o),
(65,518,o),
(65,230,cs),
(65,-65,o),
(282,-248,o),
(555,-248,cs)
);
}
);
width = 1030;
},
{
associatedMasterId = m003;
background = {
shapes = (
{
pos = (50,0);
ref = C;
}
);
};
layerId = "A6F76711-F843-4D67-92D9-AC013EAACC6A";
name = "19 Jun 23 14.21";
shapes = (
{
closed = 1;
nodes = (
(491,-10,o),
(557,11,o),
(610,53,c),
(586,104,l),
(544,71,o),
(479,53,o),
(415,53,cs),
(248,53,o),
(128,177,o),
(128,353,cs),
(128,530,o),
(248,647,o),
(426,647,cs),
(599,647,o),
(715,545,o),
(715,366,cs),
(715,266,o),
(676,213,o),
(622,213,cs),
(583,213,o),
(557,241,o),
(557,294,cs),
(557,527,l),
(500,527,l),
(500,484,l),
(496,484,l),
(476,515,o),
(439,538,o),
(391,538,cs),
(314,538,o),
(235,478,o),
(235,360,cs),
(235,243,o),
(311,184,o),
(388,184,cs),
(445,184,o),
(480,209,o),
(500,248,c),
(503,248,l),
(511,207,o),
(545,157,o),
(612,157,cs),
(707,157,o),
(775,247,o),
(775,376,cs),
(775,582,o),
(631,710,o),
(426,710,cs),
(229,710,o),
(60,567,o),
(60,353,cs),
(60,139,o),
(221,-10,o),
(417,-10,cs)
);
},
{
closed = 1;
nodes = (
(341,234,o),
(300,286,o),
(300,363,cs),
(300,445,o),
(342,488,o),
(399,488,cs),
(454,488,o),
(501,451,o),
(501,362,cs),
(501,273,o),
(459,234,o),
(401,234,cs)
);
}
);
width = 840;
},
{
associatedMasterId = m003;
background = {
shapes = (
{
pos = (55,0);
ref = C;
}
);
};
layerId = "CA212380-33EA-458A-907B-F98228E0E07F";
name = "19 Jun 23 14.51";
shapes = (
{
closed = 1;
nodes = (
(530,-10,o),
(588,29,o),
(619,80,c),
(629,80,l),
(622,233,l),
(613,233,l),
(607,115,o),
(545,58,o),
(463,58,cs),
(406,58,o),
(362,89,o),
(362,156,cs),
(362,228,o),
(422,255,o),
(489,255,cs),
(537,255,o),
(583,242,o),
(620,224,c),
(633,286,l),
(580,312,o),
(525,323,o),
(475,323,cs),
(372,323,o),
(286,260,o),
(286,153,cs),
(286,53,o),
(356,-10,o),
(455,-10,cs)
);
},
{
closed = 1;
nodes = (
(638,-215,o),
(739,-176,o),
(812,-108,c),
(803,-138,l),
(753,-59,l),
(796,-50,l),
(690,-132,o),
(605,-152,o),
(512,-152,cs),
(287,-152,o),
(118,2,o),
(118,255,cs),
(118,487,o),
(267,647,o),
(496,647,cs),
(715,647,o),
(844,491,o),
(844,270,cs),
(844,136,o),
(800,53,o),
(742,53,cs),
(698,53,o),
(684,94,o),
(684,145,cs),
(684,338,ls),
(684,473,o),
(614,555,o),
(478,555,cs),
(411,555,o),
(350,536,o),
(286,489,c),
(306,527,l),
(356,428,l),
(318,428,l),
(362,461,o),
(414,481,o),
(473,481,cs),
(563,481,o),
(610,436,o),
(610,338,cs),
(610,270,l),
(613,256,l),
(613,123,l),
(620,113,l),
(620,34,o),
(664,-10,o),
(731,-10,cs),
(856,-10,o),
(910,122,o),
(910,272,cs),
(910,492,o),
(785,710,o),
(500,710,cs),
(246,710,o),
(50,535,o),
(50,256,cs),
(50,-25,o),
(243,-215,o),
(505,-215,cs)
);
}
);
width = 950;
},
{
associatedMasterId = m003;
background = {
shapes = (
{
pos = (55,0);
ref = C;
}
);
};
layerId = "70090B82-6A28-4481-A326-C424D209B39F";
name = "19 Jun 23 15.12";
shapes = (
{
closed = 1;
nodes = (
(806,-215,o),
(937,-5,o),
(937,238,cs),
(937,523,o),
(757,710,o),
(479,710,cs),
(386,710,o),
(295,683,o),
(224,644,c),
(230,721,l),
(289,571,l),
(247,591,l),
(308,622,o),
(383,647,o),
(467,647,cs),
(719,647,o),
(870,482,o),
(870,237,cs),
(870,25,o),
(759,-152,o),
(510,-152,cs),
(328,-152,o),
(153,-53,o),
(153,172,cs),
(153,349,o),
(267,464,o),
(430,464,cs),
(523,464,o),
(610,424,o),
(610,316,cs),
(610,270,l),
(613,256,l),
(613,123,l),
(620,113,l),
(620,14,o),
(654,-10,o),
(697,-10,cs),
(717,-10,o),
(738,-3,o),
(755,7,c),
(749,-8,l),
(728,68,l),
(745,58,l),
(692,38,o),
(684,66,o),
(684,142,cs),
(684,309,ls),
(684,454,o),
(574,531,o),
(438,531,cs),
(239,531,o),
(87,384,o),
(87,174,cs),
(87,-87,o),
(286,-215,o),
(504,-215,cs)
);
},
{
closed = 1;
nodes = (
(538,-9,o),
(593,38,o),
(616,99,c),
(629,99,l),
(622,233,l),
(610,233,l),
(604,115,o),
(550,59,o),
(463,58,cs),
(405,57,o),
(361,88,o),
(361,154,cs),
(361,227,o),
(421,254,o),
(489,255,cs),
(537,256,o),
(583,242,o),
(620,224,c),
(633,286,l),
(580,312,o),
(525,323,o),
(475,323,cs),
(366,322,o),
(280,259,o),
(280,152,cs),
(280,61,o),
(350,-11,o),
(455,-10,cs)
);
}
);
width = 950;
}
);
unicode = 64;
}
{
color = 4;
glyphname = A;
layers = (
{
background = {
shapes = (
{
angle = 180;
pos = (602,700);
ref = V;
}
);
};
layerId = m009;
shapes = (
{
closed = 1;
nodes = (
(104,0,l),
(170,205,l),
(149,190,l),
(450,190,l),
(427,206,l),
(498,0,l),
(585,0,l),
(339,700,l),
(257,700,l),
(18,0,l)
);
},
{
closed = 1;
nodes = (
(297,612,l),
(299,612,l),
(419,244,l),
(432,260,l),
(170,260,l),
(181,244,l)
);
}
);
width = 602;
}
);
unicode = 65;
}
{
glyphname = B;
layers = (
{
anchors = (
{
name = bottom;
pos = (337,0);
},
{
name = top;
pos = (337,700);
}
);
background = {
shapes = (
{
closed = 1;
nodes = (
(398,0,ls),
(541,0,o),
(641,80,o),
(641,197,cs),
(641,281,o),
(589,349,o),
(501,374,c),
(500,368,l),
(559,402,o),
(588,452,o),
(588,514,cs),
(588,625,o),
(496,700,o),
(361,700,cs),
(167,700,l),
(167,585,l),
(344,585,ls),
(410,585,o),
(447,554,o),
(447,500,cs),
(447,444,o),
(407,407,o),
(345,407,cs),
(167,407,l),
(167,298,l),
(376,298,ls),
(446,298,o),
(486,266,o),
(486,209,cs),
(486,148,o),
(440,115,o),
(361,115,cs),
(167,115,l),
(167,0,l)
);
},
{
closed = 1;
nodes = (
(202,0,l),
(202,700,l),
(52,700,l),
(52,0,l)
);
},
{
ref = H;
}
);
};
layerId = m009;
shapes = (
{
closed = 1;
nodes = (
(359,0,ls),
(491,0,o),
(577,75,o),
(577,188,cs),
(577,278,o),
(525,346,o),
(437,362,c),
(437,365,l),
(504,388,o),
(544,442,o),
(544,520,cs),
(544,607,o),
(496,700,o),
(322,700,cs),
(127,700,l),
(127,630,l),
(322,630,ls),
(401,630,o),
(456,581,o),
(456,512,cs),
(456,444,o),
(402,395,o),
(326,395,cs),
(127,395,l),
(127,325,l),
(346,325,ls),
(434,325,o),
(488,272,o),
(488,194,cs),
(488,119,o),
(438,70,o),
(352,70,cs),
(127,70,l),
(127,0,l)
);
},
{
closed = 1;
nodes = (
(162,0,l),
(162,700,l),
(75,700,l),
(75,0,l)
);
}
);
width = 644;
},
{
anchors = (
{
name = bottom;
pos = (353,0);
},
{
name = top;
pos = (353,700);
}
);
associatedMasterId = m009;
background = {
shapes = (
{
closed = 0;
nodes = (
(621,312,l),
(645,281,o),
(657,243,o),
(657,198,c),
(657,157,o),
(647,121,o),
(626,91,c),
(605,61,o),
(576,38,o),
(539,23,c),
(502,8,o),
(460,0,o),
(413,0,c),
(185,0,l),
(185,118,l),
(381,118,l),
(420,118,o),
(450,126,o),
(469,142,c),
(488,158,o),
(498,180,o),
(498,209,c),
(498,239,o),
(487,261,o),
(466,276,c),
(445,291,o),
(415,298,o),
(377,298,c),
(185,298,l),
(185,407,l),
(368,407,l),
(387,407,o),
(403,411,o),
(418,418,c),
(432,425,o),
(443,436,o),
(451,449,c),
(459,462,o),
(463,477,o),
(463,494,c),
(463,522,o),
(454,544,o),
(435,559,c),
(416,574,o),
(391,582,o),
(360,582,c),
(185,582,l),
(185,700,l),
(378,700,l),
(426,700,o),
(467,692,o),
(501,675,c),
(535,658,o),
(561,636,o),
(578,608,c),
(595,579,o),
(604,547,o),
(604,510,c),
(604,483,o),
(599,458,o),
(590,437,c),
(581,416,o),
(569,398,o),
(554,383,c),
(538,369,o),
(523,357,o),
(506,349,c)
);
},
{
closed = 1;
nodes = (
(57,0,l),
(209,0,l),
(209,700,l),
(57,700,l)
);
}
);
};
layerId = "041D36F7-0399-4962-A461-FD44F4F7D82C";
name = "28 Oct 22 11.55";
shapes = (
{
closed = 1;
nodes = (
(414,0,ls),
(557,0,o),
(657,80,o),
(657,197,cs),
(657,281,o),
(605,349,o),
(517,374,c),
(516,368,l),
(575,402,o),
(604,452,o),
(604,514,cs),
(604,625,o),
(512,700,o),
(377,700,cs),
(183,700,l),
(183,585,l),
(360,585,ls),
(426,585,o),
(463,554,o),
(463,500,cs),
(463,444,o),
(423,407,o),
(361,407,cs),
(183,407,l),
(183,298,l),
(392,298,ls),
(462,298,o),
(502,266,o),
(502,209,cs),
(502,148,o),
(456,115,o),
(377,115,cs),
(183,115,l),
(183,0,l)
);
},
{
closed = 1;
nodes = (
(218,0,l),
(218,700,l),
(68,700,l),
(68,0,l)
);
}
);
width = 687;
}
);
metricLeft = H;
unicode = 66;
}
{
color = 9;
glyphname = C;
layers = (
{
anchors = (
{
name = bar_hor_dbl;
pos = (222,363);
},
{
name = bottom;
pos = (414,0);
},
{
name = top;
pos = (385,700);
}
);
background = {
shapes = (
{
pos = (20,0);
ref = O;
}
);
};
layerId = m009;
shapes = (
{
closed = 1;
nodes = (
(450,-10,o),
(531,2,o),
(604,62,c),
(600,19,l),
(534,152,l),
(569,136,l),
(516,88,o),
(455,69,o),
(394,69,cs),
(253,69,o),
(150,167,o),
(150,352,cs),
(150,555,o),
(269,631,o),
(393,631,cs),
(466,631,o),
(526,604,o),
(574,551,c),
(536,543,l),
(600,658,l),
(605,630,l),
(546,688,o),
(472,710,o),
(390,710,cs),
(217,710,o),
(60,599,o),
(60,350,cs),
(60,123,o),
(192,-10,o),
(390,-10,cs)
);
}
);
width = 640;
},
{
anchors = (
{
name = bar_hor_dbl;
pos = (212,363);
},
{
name = bottom;
pos = (404,0);
},
{
name = top;
pos = (375,700);
}
);
background = {
shapes = (
{
pos = (10,0);
ref = O;
}
);
};
layerId = m002;
shapes = (
{
closed = 1;
nodes = (
(440,-10,o),
(521,2,o),
(594,62,c),
(590,19,l),
(524,152,l),
(559,136,l),
(506,88,o),
(445,69,o),
(384,69,cs),
(243,69,o),
(140,167,o),
(140,352,cs),
(140,555,o),
(259,631,o),
(383,631,cs),
(456,631,o),
(516,604,o),
(564,551,c),
(526,543,l),
(590,658,l),
(595,630,l),
(536,688,o),
(462,710,o),
(380,710,cs),
(207,710,o),
(50,599,o),
(50,350,cs),
(50,123,o),
(182,-10,o),
(380,-10,cs)
);
}
);
width = 630;
},
{
anchors = (
{
name = bar_hor_dbl;
pos = (187,363);
},
{
name = bottom;
pos = (379,0);
},
{
name = top;
pos = (350,700);
}
);
background = {
shapes = (
{
pos = (-15,0);
ref = O;
}
);
};
layerId = m003;
shapes = (
{
closed = 1;
nodes = (
(415,-10,o),
(496,2,o),
(569,62,c),
(565,19,l),
(499,152,l),
(534,136,l),
(481,88,o),
(420,69,o),
(359,69,cs),
(218,69,o),
(115,167,o),
(115,352,cs),
(115,555,o),
(234,631,o),
(358,631,cs),
(431,631,o),
(491,604,o),
(539,551,c),
(501,543,l),
(565,658,l),
(570,630,l),
(511,688,o),
(437,710,o),
(355,710,cs),
(182,710,o),
(25,599,o),
(25,350,cs),
(25,123,o),
(157,-10,o),
(355,-10,cs)
);
}
);
width = 605;
}
);
metricLeft = O;
unicode = 67;
}
{
color = 4;
glyphname = D;
layers = (
{
background = {
shapes = (
{
pos = (-88,0);
ref = O;
}
);
};
layerId = m009;
shapes = (
{
closed = 1;
nodes = (
(278,0,ls),
(495,0,o),
(609,128,o),
(609,350,cs),
(609,572,o),
(495,700,o),
(278,700,cs),
(75,700,l),
(75,0,l)
);
},
{
closed = 1;
nodes = (
(162,668,l),
(124,622,l),
(278,622,ls),
(433,622,o),
(522,536,o),
(522,350,cs),
(522,165,o),
(433,78,o),
(278,78,cs),
(124,78,l),
(162,40,l)
);
}
);
width = 659;
}
);
metricLeft = H;
metricRight = O;
unicode = 68;
}
{
color = 4;
glyphname = E;
layers = (
{
anchors = (
{
name = bottom;
pos = (328,0);
},
{
name = ogonek;
pos = (512,0);
},
{
name = top;
pos = (308,700);
},
{
name = topleft;
pos = (30,700);
}
);
background = {
shapes = (
{
closed = 1;
nodes = (
(464,327,l),
(464,405,l),
(135,405,l),
(135,327,l)
);
}
);
};
layerId = m009;
shapes = (
{
alignment = -1;
pos = (6,0);
ref = _part.stem_E;
},
{
pos = (-13,0);
ref = _bottom_E;
},
{
pos = (-13,0);
ref = _top_E;
},
{
pos = (-12,16);
ref = _center_E;
}
);
width = 510;
},
{
anchors = (
{
name = bottom;
pos = (318,0);
},
{
name = ogonek;
pos = (502,0);
},
{
name = top;
pos = (298,700);
},
{
name = topleft;
pos = (20,700);
}
);
background = {
shapes = (
{
closed = 1;
nodes = (
(478,327,l),
(478,405,l),
(149,405,l),
(149,327,l)
);
}
);
};
layerId = m002;
shapes = (
{
alignment = -1;
pos = (-4,0);
ref = _part.stem_E;
},
{
pos = (6,0);
ref = _bottom_E;
},
{
pos = (6,0);
ref = _top_E;
},
{
pos = (7,16);
ref = _center_E;
}
);
width = 554;
},
{
anchors = (
{
name = bottom;
pos = (306,0);
},
{
name = ogonek;
pos = (490,0);
},
{
name = top;
pos = (286,700);
},
{
name = topleft;
pos = (8,700);
}
);
background = {
shapes = (
{
closed = 1;
nodes = (
(466,327,l),
(466,405,l),
(137,405,l),
(137,327,l)
);
}
);
};
layerId = m003;
shapes = (
{
alignment = -1;
pos = (-16,0);
ref = _part.stem_E;
},
{
pos = (6,0);
ref = _bottom_E;
},
{
pos = (6,0);
ref = _top_E;
},
{
pos = (7,9);
ref = _center_E;
}
);
width = 553;
}
);
metricLeft = H;
unicode = 69;
}
{
glyphname = G;
layers = (
{
background = {
shapes = (
{
ref = C;
}
);
};
layerId = m009;
shapes = (
{
closed = 1;
nodes = (
(454,-10,o),
(526,15,o),
(592,79,c),
(594,374,l),
(375,374,l),
(375,304,l),
(557,304,l),
(521,349,l),
(521,70,l),
(531,118,l),
(489,87,o),
(450,67,o),
(371,67,cs),
(245,67,o),
(138,152,o),
(138,350,cs),
(138,550,o),
(247,633,o),
(367,633,cs),
(435,633,o),
(505,607,o),
(562,557,c),
(524,540,l),
(591,675,l),
(593,624,l),
(535,681,o),
(457,710,o),
(371,710,cs),
(190,710,o),
(50,574,o),
(50,350,cs),
(50,126,o),
(189,-10,o),
(375,-10,cs)
);
}
);
width = 639;
}
);
metricLeft = O;
unicode = 71;
}
{
color = 9;
glyphname = H;
layers = (
{
background = {
shapes = (
{
pos = (-21,0);
ref = O;
}
);
};
layerId = m009;
shapes = (
{
closed = 1;
nodes = (
(169,0,l),
(169,341,l),
(149,318,l),
(517,318,l),
(504,337,l),
(504,0,l),
(591,0,l),
(591,700,l),
(504,700,l),
(504,375,l),
(521,396,l),
(149,396,l),
(169,372,l),
(169,700,l),
(82,700,l),
(82,0,l)
);
}
);
width = 673;
}
);
metricRight = "=|";
unicode = 72;
}
{
color = 9;
glyphname = I;
layers = (
{
layerId = m009;
shapes = (
{
closed = 1;
nodes = (
(179,0,l),
(179,700,l),
(92,700,l),
(92,0,l)
);
}
);
width = 271;
}
);
metricLeft = H;
metricRight = H;
unicode = 73;
}
{
color = 9;
glyphname = J;
layers = (
{
background = {
shapes = (
{
pos = (-291,-33);
ref = O;
}
);
};
layerId = m009;
shapes = (
{
closed = 1;
nodes = (
(272,-10,o),
(347,42,o),
(347,190,cs),
(347,700,l),
(260,700,l),
(260,198,ls),
(260,96,o),
(226,69,o),
(166,69,cs),
(116,69,o),
(68,92,o),
(3,143,c),
(55,156,l),
(-20,23,l),
(-31,72,l),
(30,21,o),
(98,-10,o),
(178,-10,cs)
);
}
);
width = 412;
}
);
metricRight = U;
unicode = 74;
}
{
color = 9;
glyphname = K;
layers = (
{
anchors = (
{
name = bottom;
pos = (331,0);
},
{
name = top;
pos = (332,700);
}
);
background = {
shapes = (
{
pos = (20,0);
ref = H;
}
);
};
layerId = m009;
shapes = (
{
closed = 1;
nodes = (
(189,0,l),
(189,205,ls),
(189,214,o),
(191,221,o),
(197,228,cs),
(305,356,l),
(331,382,l),
(594,700,l),
(491,700,l),
(186,332,l),
(189,319,l),
(189,700,l),
(102,700,l),
(102,0,l)
);
},
{
closed = 1;
nodes = (
(607,0,l),
(340,434,l),
(282,367,l),
(504,0,l)
);
}
);
width = 629;
},
{
anchors = (
{
name = bottom;
pos = (321,0);
},
{
name = top;
pos = (322,700);
}
);
background = {
shapes = (
{
pos = (10,0);
ref = H;
}
);
};
layerId = m002;
shapes = (
{
closed = 1;
nodes = (
(179,0,l),
(179,205,ls),
(179,214,o),
(181,221,o),
(187,228,cs),
(295,356,l),
(321,382,l),
(584,700,l),
(481,700,l),
(176,332,l),
(179,319,l),
(179,700,l),
(92,700,l),
(92,0,l)
);
},
{
closed = 1;
nodes = (
(597,0,l),
(330,434,l),
(272,367,l),
(494,0,l)
);
}
);
width = 619;
},
{
anchors = (
{
name = bottom;
pos = (278,0);
},
{
name = top;
pos = (279,700);
}
);
background = {
shapes = (
{
pos = (-33,0);
ref = H;
}
);
};
layerId = m003;
shapes = (
{
closed = 1;
nodes = (
(136,0,l),
(136,205,ls),
(136,214,o),
(138,221,o),
(144,228,cs),
(252,356,l),
(278,382,l),
(541,700,l),
(438,700,l),
(133,332,l),
(136,319,l),
(136,700,l),
(49,700,l),
(49,0,l)
);
},
{
closed = 1;
nodes = (
(554,0,l),
(287,434,l),
(229,367,l),
(451,0,l)
);
}
);
width = 576;
}
);
metricLeft = H;
unicode = 75;
}
{
color = 9;
glyphname = M;
layers = (
{
background = {
shapes = (
{
pos = (130,0);
ref = V;
}
);
};
layerId = m009;
shapes = (
{
closed = 1;
nodes = (
(166,0,l),
(166,657,l),
(148,657,l),
(361,0,l),
(474,0,l),
(691,657,l),
(671,657,l),
(671,0,l),
(756,0,l),
(756,700,l),
(616,700,l),
(406,53,l),
(427,53,l),
(221,700,l),
(82,700,l),
(82,0,l)
);
}
);
width = 838;
},
{
associatedMasterId = m009;
background = {
shapes = (
{
pos = (91,0);
ref = V;
}
);
};
layerId = "C6209AE7-CD7A-406B-A077-906990906F06";
name = "18 Apr 23 15.53";
shapes = (
{
closed = 1;
nodes = (
(160,0,l),
(160,377,ls),
(160,508,o),
(148,588,o),
(139,615,c),
(147,619,l),
(360,0,l),
(444,0,l),
(661,619,l),
(667,617,l),
(661,591,o),
(650,506,o),
(650,377,cs),
(650,0,l),
(735,0,l),
(735,700,l),
(604,700,l),
(422,179,ls),
(411,146,o),
(407,113,o),
(405,95,c),
(400,95,l),
(399,113,o),
(395,142,o),
(380,187,cs),
(205,700,l),
(75,700,l),
(75,0,l)
);
}
);
width = 810;
}
);
metricLeft = H;
metricRight = H;
unicode = 77;
}
{
glyphname = N;
layers = (
{
background = {
shapes = (
{
pos = (-8,0);
ref = H;
}
);
};
layerId = m009;
shapes = (
{
closed = 1;
nodes = (
(157,0,l),
(157,447,ls),
(157,531,o),
(148,556,o),
(137,569,c),
(110,535,l),
(177,574,l),
(136,581,l),
(520,-6,l),
(505,0,l),
(583,0,l),
(583,700,l),
(501,700,l),
(501,264,ls),
(501,203,o),
(503,162,o),
(523,138,c),
(544,167,l),
(480,127,l),
(530,115,l),
(143,708,l),
(158,700,l),
(75,700,l),
(75,0,l)
);
}
);
width = 658;
}
);
metricLeft = H;
metricRight = H;
unicode = 78;
}
{
color = 9;
glyphname = O;
layers = (
{
anchors = (
{
name = bottom;
pos = (351,0);
},
{
name = center;
pos = (351,350);
},
{
name = ogonek;
pos = (404,0);
},
{
name = tail_Q;
pos = (374,41);
},
{
name = top;
pos = (351,700);
},
{
name = topleft;
pos = (-5,700);
},
{
name = topright;
pos = (707,700);
}
);
background = {
shapes = (
{
pos = (83,0);
ref = H;
}
);
};
layerId = m009;
shapes = (
{
closed = 1;
nodes = (
(536,-10,o),
(643,127,o),
(643,343,cs),
(643,579,o),
(528,710,o),
(355,710,cs),
(182,710,o),
(60,577,o),
(60,348,cs),
(60,129,o),
(172,-10,o),
(352,-10,cs)
);
},
{
closed = 1;
nodes = (
(195,16,o),
(90,137,o),
(90,347,cs),
(90,555,o),
(194,684,o),
(354,684,cs),
(521,684,o),
(612,550,o),
(612,343,cs),
(612,150,o),
(524,16,o),
(355,16,cs)
);
}
);
width = 703;
},
{
anchors = (
{
name = bottom;
pos = (376,0);
},
{
name = center;
pos = (376,350);
},
{
name = ogonek;
pos = (429,0);
},
{
name = tail_Q;
pos = (399,41);
},
{
name = top;
pos = (376,700);
},
{
name = topleft;
pos = (20,700);
},
{
name = topright;
pos = (732,700);
}
);
background = {
shapes = (
{
pos = (47,0);
ref = H;
}
);
};
layerId = m002;
shapes = (
{
closed = 1;
nodes = (
(563,-10,o),
(702,116,o),
(702,350,cs),
(702,582,o),
(567,710,o),
(380,710,cs),
(189,710,o),
(50,575,o),
(50,350,cs),
(50,126,o),
(185,-10,o),
(378,-10,cs)
);
},
{
closed = 1;
nodes = (
(248,68,o),
(139,161,o),
(139,353,cs),
(139,542,o),
(243,632,o),
(378,632,cs),
(511,632,o),
(612,546,o),
(612,350,cs),
(612,151,o),
(510,68,o),
(383,68,cs)
);
}
);
width = 752;
},
{
anchors = (
{
name = bottom;
pos = (370,0);
},
{
name = center;
pos = (370,360);
},
{
name = ogonek;
pos = (423,0);
},
{
name = tail_Q;
pos = (393,41);
},
{
name = top;
pos = (370,700);
},
{
name = topleft;
pos = (14,700);
},
{
name = topright;
pos = (726,700);
}
);
background = {
shapes = (
{
pos = (9,0);
ref = H;
}
);
};
layerId = m003;
shapes = (
{
closed = 1;
nodes = (
(571,-10,o),
(718,119,o),
(718,367,cs),
(718,590,o),
(577,730,o),
(377,730,cs),
(171,730,o),
(25,586,o),
(25,365,cs),
(25,127,o),
(166,-10,o),
(372,-10,cs)
);
},
{
closed = 1;
nodes = (
(260,128,o),
(176,206,o),
(176,365,cs),
(176,513,o),
(258,592,o),
(371,592,cs),
(485,592,o),
(562,518,o),
(562,365,cs),
(562,197,o),
(478,128,o),
(372,128,cs)
);
}
);
width = 743;
},
{
anchors = (
{
name = bottom;
pos = (271,0);
},
{
name = center;
pos = (271,350);
},
{
name = ogonek;
pos = (324,0);
},
{
name = tail_Q;
pos = (294,41);
},
{
name = top;
pos = (271,700);
},
{
name = topleft;
pos = (-85,700);
},
{
name = topright;
pos = (627,700);
}
);
associatedMasterId = m009;
background = {
shapes = (
{
pos = (3,0);
ref = H;
}
);
};
layerId = "416BE372-913C-4F8E-A08A-382D2ACD99AB";
name = "27 Jun 23 10.55";
shapes = (
{
closed = 1;
nodes = (
(406,-10,o),
(502,115,o),
(502,341,cs),
(502,568,o),
(407,690,o),
(275,690,cs),
(140,690,o),
(41,562,o),
(41,341,cs),
(41,135,o),
(128,-10,o),
(272,-10,cs)
);
},
{
closed = 1;
nodes = (
(153,16,o),
(70,131,o),
(70,344,cs),
(70,533,o),
(144,664,o),
(274,664,cs),
(402,664,o),
(472,537,o),
(472,341,cs),
(472,133,o),
(393,16,o),
(274,16,cs)
);
}
);
width = 543;
}
);
metricRight = "=|";
unicode = 79;
}
{
glyphname = P;
layers = (
{
background = {
shapes = (
{
ref = B;
}
);
};
layerId = m009;
shapes = (
{
closed = 1;
nodes = (
(162,0,l),
(162,700,l),
(75,700,l),
(75,0,l)
);
},
{
closed = 1;
nodes = (
(478,297,o),
(554,371,o),
(554,499,cs),
(554,628,o),
(475,700,o),
(332,700,cs),
(127,700,l),
(127,630,l),
(332,630,ls),
(424,630,o),
(467,586,o),
(467,499,cs),
(467,417,o),
(428,367,o),
(345,367,cs),
(127,367,l),
(127,297,l),
(345,297,ls)
);
}
);
width = 594;
}
);
metricLeft = H;
unicode = 80;
}
{
color = 4;
glyphname = R;
layers = (
{
background = {
shapes = (
{
ref = B;
}
);
};
layerId = m009;
shapes = (
{
closed = 1;
nodes = (
(580,68,l),
(595,61,l),
(556,46,o),
(537,59,o),
(528,97,cs),
(492,248,ls),
(481,295,o),
(466,331,o),
(416,341,c),
(415,346,l),
(486,369,o),
(524,431,o),
(524,516,cs),
(524,634,o),
(435,700,o),
(308,700,cs),
(75,700,l),
(75,0,l),
(162,0,l),
(162,333,l),
(137,308,l),
(279,308,ls),
(364,308,o),
(394,287,o),
(415,198,cs),
(444,77,ls),
(459,15,o),
(487,-10,o),
(547,-10,cs),
(564,-10,o),
(588,-7,o),
(606,3,c),
(604,-12,l)
);
},
{
closed = 1;
nodes = (
(162,640,l),
(143,622,l),
(310,622,ls),
(404,622,o),
(437,571,o),
(437,511,cs),
(437,428,o),
(389,384,o),
(291,384,cs),
(145,384,l),
(162,356,l)
);
}
);
width = 622;
}
);
metricLeft = H;
unicode = 82;
}
{
color = 9;
glyphname = S;
layers = (
{
anchors = (
{
name = bar_ver;
pos = (262,359);
}
);
background = {
shapes = (
{
pos = (-38,0);
ref = E;
},
{
closed = 0;
nodes = (
(356,379,ls),
(299,400,o),
(217,407,o),
(177,430,cs)
);
},
{
closed = 0;
nodes = (
(105,373,ls),
(153,339,o),
(244,329,o),
(297,316,cs)
);
}
);
};
layerId = m009;
shapes = (
{
closed = 1;
nodes = (
(75,16,o),
(159,-10,o),
(240,-10,cs),
(365,-10,o),
(466,54,o),
(466,194,cs),
(466,453,o),
(133,356,o),
(133,521,cs),
(133,590,o),
(186,632,o),
(265,632,cs),
(334,632,o),
(393,599,o),
(449,540,c),
(389,539,l),
(463,674,l),
(477,619,l),
(418,680,o),
(339,710,o),
(262,710,cs),
(156,710,o),
(48,644,o),
(48,521,cs),
(48,272,o),
(381,391,o),
(381,194,cs),
(381,112,o),
(324,69,o),
(244,69,cs),
(177,69,o),
(107,93,o),
(30,150,c),
(74,152,l),
(5,33,l),
(-2,72,l)
);
}
);
width = 503;
},
{
anchors = (
{
name = bar_ver;
pos = (262,359);
}
);
associatedMasterId = m009;
layerId = "56A61E6C-94BD-4A99-B8F4-5D9E8894A4A8";
name = "26 Apr 23 10.12";
shapes = (
{
closed = 1;
nodes = (
(390,-10,o),
(474,63,o),
(474,181,cs),
(474,418,o),
(130,382,o),
(130,536,cs),
(130,597,o),
(183,632,o),
(257,632,cs),
(331,632,o),
(389,598,o),
(447,540,c),
(389,539,l),
(463,674,l),
(476,612,l),
(412,684,o),
(333,710,o),
(258,710,cs),
(131,710,o),
(44,634,o),
(44,525,cs),
(44,311,o),
(386,356,o),
(385,178,cs),
(385,115,o),
(344,69,o),
(258,69,cs),
(184,69,o),
(107,101,o),
(28,163,c),
(75,185,l),
(-2,50,l),
(-4,87,l),
(71,25,o),
(164,-10,o),
(260,-10,cs)
);
}
);
width = 503;
},
{
anchors = (
{
name = bar_ver;
pos = (262,359);
}
);
associatedMasterId = m009;
background = {
shapes = (
{
pos = (-38,0);
ref = E;
},
{
closed = 0;
nodes = (
(356,379,ls),
(299,400,o),
(217,407,o),
(177,430,cs)
);
},
{
closed = 0;
nodes = (
(105,373,ls),
(153,339,o),
(244,329,o),
(297,316,cs)
);
}
);
};
layerId = "30F418DD-79CD-4328-B78A-206FEA2619E3";
name = "27 Apr 23 09.03";
shapes = (
{
closed = 1;
nodes = (
(75,16,o),
(159,-10,o),
(240,-10,cs),
(370,-10,o),
(469,54,o),
(469,194,cs),
(469,456,o),
(134,358,o),
(134,521,cs),
(134,590,o),
(187,632,o),
(265,632,cs),
(334,632,o),
(393,599,o),
(449,540,c),
(389,539,l),
(463,674,l),
(477,619,l),
(418,680,o),
(339,710,o),
(262,710,cs),
(147,710,o),
(46,644,o),
(46,521,cs),
(46,267,o),
(380,389,o),
(380,194,cs),
(380,114,o),
(324,76,o),
(243,76,cs),
(178,76,o),
(107,99,o),
(30,156,c),
(74,152,l),
(5,33,l),
(-2,72,l)
);
}
);
width = 503;
}
);
unicode = 83;
}
{
color = 4;
glyphname = T;
layers = (
{
background = {
shapes = (
{
pos = (-56,0);
ref = H;
}
);
};
layerId = m009;
shapes = (
{
closed = 1;
nodes = (
(342,0,l),
(342,655,l),
(326,625,l),
(562,625,l),
(562,700,l),
(25,700,l),
(25,625,l),
(275,625,l),
(255,652,l),
(255,0,l)
);
}
);
width = 587;
}
);
unicode = 84;
}
{
color = 4;
glyphname = U;
layers = (
{
anchors = (
{
name = bottom;
pos = (330,0);
},
{
name = ogonek;
pos = (373,0);
},
{
name = top;
pos = (330,700);
},
{
name = topright;
pos = (639,700);
}
);
background = {
shapes = (
{
pos = (-7,0);
ref = H;
}
);
};
layerId = m009;
shapes = (
{
closed = 1;
nodes = (
(476,-10,o),
(555,75,o),
(555,222,cs),
(555,700,l),
(526,700,l),
(526,222,ls),
(526,109,o),
(476,17,o),
(334,17,cs),
(190,17,o),
(134,112,o),
(134,221,cs),
(134,700,l),
(105,700,l),
(105,228,ls),
(105,66,o),
(197,-10,o),
(333,-10,cs)
);
}
);
width = 660;
},
{
anchors = (
{
name = bottom;
pos = (330,0);
},
{
name = ogonek;
pos = (373,0);
},
{
name = top;
pos = (330,700);
},
{
name = topright;
pos = (639,700);
}
);
background = {
shapes = (
{
pos = (-7,0);
ref = H;
}
);
};
layerId = m002;
shapes = (
{
closed = 1;
nodes = (
(487,-10,o),
(586,70,o),
(586,225,cs),
(586,700,l),
(499,700,l),
(499,222,ls),
(499,108,o),
(428,68,o),
(333,68,cs),
(222,68,o),
(162,123,o),
(162,220,cs),
(162,700,l),
(75,700,l),
(75,210,ls),
(75,77,o),
(171,-10,o),
(331,-10,cs)
);
}
);
width = 661;
},
{
anchors = (
{
name = bottom;
pos = (330,0);
},
{
name = ogonek;
pos = (373,0);
},
{
name = top;
pos = (330,700);
},
{
name = topright;
pos = (639,700);
}
);
background = {
shapes = (
{
pos = (-7,0);
ref = H;
}
);
};
layerId = m003;
shapes = (
{
closed = 1;
nodes = (
(516,-10,o),
(616,100,o),
(616,245,cs),
(616,700,l),
(469,700,l),
(469,262,ls),
(469,153,o),
(406,128,o),
(333,128,cs),
(244,128,o),
(192,166,o),
(192,260,cs),
(192,700,l),
(44,700,l),
(44,240,ls),
(44,109,o),
(132,-10,o),
(331,-10,cs)
);
}
);
width = 660;
}
);
metricRight = "=|";
unicode = 85;
}
{
color = 4;
glyphname = V;
layers = (
{
background = {
shapes = (
{
pos = (-111,0);
ref = M;
}
);
};
layerId = m009;
shapes = (
{
closed = 1;
nodes = (
(345,0,l),
(591,700,l),
(499,700,l),
(329,184,ls),
(308,120,o),
(306,92,o),
(305,73,c),
(343,82,l),
(298,82,l),
(296,104,o),
(294,139,o),
(278,185,cs),
(105,700,l),
(15,700,l),
(260,0,l)
);
}
);
width = 606;
}
);
unicode = 86;
}
{
glyphname = W;
layers = (
{
background = {
shapes = (
{
pos = (-26,0);
ref = V;
}
);
};
layerId = m009;
shapes = (
{
closed = 1;
nodes = (
(309,0,l),
(438,569,l),
(442,569,l),
(593,0,l),
(690,0,l),
(874,700,l),
(788,700,l),
(651,135,l),
(647,135,l),
(488,700,l),
(390,700,l),
(255,135,l),
(251,135,l),
(102,700,l),
(12,700,l),
(198,0,l)
);
}
);
width = 886;
}
);
metricLeft = "=V-3";
metricRight = "=V-3";
unicode = 87;
}
{
color = 4;
glyphname = X;
layers = (
{
background = {
shapes = (
{
pos = (2,0);
ref = V;
},
{
pos = (8,0);
ref = A;
}
);
};
layerId = m009;
shapes = (
{
closed = 1;
nodes = (
(580,0,l),
(315,378,l),
(307,388,l),
(91,700,l),
(59,700,l),
(293,365,l),
(299,358,l),
(547,0,l)
);
},
{
closed = 1;
nodes = (
(67,0,l),
(310,358,l),
(295,378,l),
(35,0,l)
);
},
{
closed = 1;
nodes = (
(545,700,l),
(513,700,l),
(301,385,l),
(314,364,l)
);
}
);
width = 612;
},
{
background = {
shapes = (
{
pos = (2,0);
ref = V;
},
{
pos = (8,0);
ref = A;
}
);
};
layerId = m002;
shapes = (
{
closed = 1;
nodes = (
(616,0,l),
(350,378,l),
(315,423,l),
(125,700,l),
(24,700,l),
(265,358,l),
(298,315,l),
(514,0,l)
);
},
{
closed = 1;
nodes = (
(105,0,l),
(323,327,l),
(272,388,l),
(2,0,l)
);
},
{
closed = 1;
nodes = (
(581,700,l),
(481,700,l),
(287,412,l),
(340,354,l)
);
}
);
width = 612;
},
{
background = {
shapes = (
{
pos = (2,0);
ref = V;
},
{
pos = (8,0);
ref = A;
}
);
};
layerId = m003;
shapes = (
{
closed = 1;
nodes = (
(644,0,l),
(378,378,l),
(343,423,l),
(153,700,l),
(-8,700,l),
(233,358,l),
(266,315,l),
(482,0,l)
);
},
{
closed = 1;
nodes = (
(128,0,l),
(346,327,l),
(243,388,l),
(-32,0,l)
);
},
{
closed = 1;
nodes = (
(611,700,l),
(454,700,l),
(261,412,l),
(370,354,l)
);
}
);
width = 612;
}
);
unicode = 88;
}
{
glyphname = Y;
layers = (
{
background = {
shapes = (
{
pos = (-31,0);
ref = X;
}
);
};
layerId = m009;
shapes = (
{
closed = 1;
nodes = (
(318,0,l),
(318,322,l),
(539,700,l),
(444,700,l),
(279,392,l),
(275,392,l),
(106,700,l),
(15,700,l),
(231,322,l),
(231,0,l)
);
}
);
width = 549;
}
);
unicode = 89;
}
{
color = 9;
glyphname = Z;
layers = (
{
background = {
shapes = (
{
pos = (24,0);
ref = E;
}
);
};
layerId = m009;
shapes = (
{
closed = 1;
nodes = (
(509,0,l),
(509,80,l),
(87,80,l),
(113,41,l),
(503,622,l),
(503,700,l),
(65,700,l),
(65,620,l),
(460,620,l),
(426,661,l),
(35,79,l),
(35,0,l)
);
}
);
width = 538;
}
);
unicode = 90;
}
{
glyphname = bracketleft;
layers = (
{
background = {
shapes = (
{
closed = 1;
nodes = (
(295,-196,l),
(205,-196,o),
(162,-161,o),
(162,-86,cs),
(162,107,ls),
(162,175,o),
(144,208,o),
(99,222,c),
(99,225,l),
(144,240,o),
(162,290,o),
(162,350,cs),
(162,530,ls),
(162,605,o),
(205,640,o),
(295,640,c),
(295,710,l),
(143,710,o),
(75,659,o),
(75,530,cs),
(75,310,ls),
(75,264,o),
(51,244,o),
(11,244,c),
(11,203,l),
(51,203,o),
(75,183,o),
(75,137,cs),
(75,-86,ls),
(75,-215,o),
(143,-266,o),
(295,-266,c)
);
}
);
};
layerId = m009;
shapes = (
{
closed = 1;
nodes = (
(295,-250,l),
(295,-180,l),
(124,-180,l),
(162,-218,l),
(162,668,l),
(124,630,l),
(295,630,l),
(295,700,l),
(37,700,l),
(75,738,l),
(75,-288,l),
(37,-250,l)
);
}
);
width = 308;
}
);
unicode = 91;
}
{
export = 0;
glyphname = backslash;
layers = (
{
layerId = m009;
shapes = (
{
closed = 1;
nodes = (
(474,-10,l),
(102,710,l),
(29,710,l),
(397,-10,l)
);
}
);
width = 500;
}
);
unicode = 92;
}
{
glyphname = asciicircum;
layers = (
{
layerId = m009;
shapes = (
{
closed = 1;
nodes = (
(52,487,l),
(159,714,l),
(150,714,l),
(238,487,l),
(265,487,l),
(159,750,l),
(151,750,l),
(26,487,l)
);
}
);
width = 288;
},
{
layerId = m002;
shapes = (
{
closed = 1;
nodes = (
(67,487,l),
(159,682,l),
(147,682,l),
(222,487,l),
(277,487,l),
(171,750,l),
(136,750,l),
(11,487,l)
);
}
);
width = 288;
},
{
layerId = m003;
shapes = (
{
closed = 1;
nodes = (
(77,487,l),
(169,682,l),
(157,682,l),
(232,487,l),
(348,487,l),
(242,750,l),
(86,750,l),
(-39,487,l)
);
}
);
width = 298;
}
);
metricRight = "=|";
unicode = 94;
}
{
glyphname = underscore;
layers = (
{
background = {
shapes = (
{
pos = (-20,0);
ref = comma;
}
);
};
layerId = m009;
shapes = (
{
closed = 1;
nodes = (
(394,-26,l),
(394,0,l),
(24,0,l),
(24,-26,l)
);
}
);
width = 418;
},
{
background = {
shapes = (
{
pos = (-20,0);
ref = comma;
}
);
};
layerId = m002;
shapes = (
{
closed = 1;
nodes = (
(408,-70,l),
(408,0,l),
(10,0,l),
(10,-70,l)
);
}
);
width = 418;
},
{
background = {
shapes = (
{
ref = comma;
}
);
};
layerId = m003;
shapes = (
{
closed = 1;
nodes = (
(448,-115,l),
(448,0,l),
(10,0,l),
(10,-115,l)
);
}
);
width = 458;
}
);
metricRight = "=|";
unicode = 95;
}
{
glyphname = a;
layers = (
{
background = {
shapes = (
{
closed = 1;
nodes = (
(534,95,o),
(514,106,o),
(514,146,cs),
(514,356,ls),
(514,482,o),
(424,555,o),
(267,555,cs),
(169,555,o),
(63,527,o),
(-18,479,c),
(28,537,l),
(80,379,l),
(15,372,l),
(98,419,o),
(166,440,o),
(232,440,cs),
(304,440,o),
(368,414,o),
(368,339,cs),
(368,128,ls),
(368,39,o),
(418,-10,o),
(490,-10,cs),
(538,-10,o),
(582,12,o),
(620,46,c),
(590,-69,l),
(551,151,l),
(581,109,l)
);
},
{
closed = 1;
nodes = (
(301,-10,o),
(391,63,o),
(420,178,c),
(366,239,l),
(359,150,o),
(303,89,o),
(219,89,cs),
(168,89,o),
(136,117,o),
(136,160,cs),
(136,233,o),
(225,261,o),
(386,233,c),
(396,307,l),
(154,362,o),
(-16,296,o),
(-16,151,cs),
(-16,53,o),
(61,-10,o),
(176,-10,cs)
);
}
);
};
layerId = m009;
shapes = (
{
closed = 1;
nodes = (
(510,123,l),
(560,71,l),
(499,36,o),
(475,61,o),
(475,131,cs),
(475,338,ls),
(475,473,o),
(405,555,o),
(262,555,cs),
(189,555,o),
(106,533,o),
(42,487,c),
(53,541,l),
(111,404,l),
(58,414,l),
(131,459,o),
(183,481,o),
(248,481,cs),
(348,481,o),
(390,427,o),
(390,336,cs),
(390,123,l),
(396,113,l),
(396,44,o),
(421,-10,o),
(494,-10,cs),
(524,-10,o),
(545,-1,o),
(564,12,c),
(557,-33,l)
);
},
{
closed = 1;
nodes = (
(300,-10,o),
(361,29,o),
(389,90,c),
(402,89,l),
(405,191,l),
(390,191,l),
(390,141,o),
(329,52,o),
(237,52,cs),
(173,52,o),
(132,95,o),
(132,157,cs),
(132,234,o),
(197,263,o),
(270,263,cs),
(315,263,o),
(372,252,o),
(407,233,c),
(407,308,l),
(385,301,l),
(351,312,o),
(307,320,o),
(258,320,cs),
(131,320,o),
(43,260,o),
(43,154,cs),
(43,54,o),
(121,-10,o),
(222,-10,cs)
);
}
);
width = 565;
},
{
anchors = (
{
name = bottom;
pos = (308,0);
},
{
name = ogonek;
pos = (570,0);
},
{
name = top;
pos = (308,545);
}
);
associatedMasterId = m009;
background = {
shapes = (
{
closed = 1;
nodes = (
(437,0,l),
(423,107,l),
(423,362,l),
(423,380,o),
(418,395,o),
(408,406,c),
(397,418,o),
(382,426,o),
(362,431,c),
(342,437,o),
(318,439,o),
(290,439,c),
(286,439,l),
(283,439,l),
(254,439,o),
(223,436,o),
(191,429,c),
(158,422,o),
(133,414,o),
(113,404,c),
(77,508,l),
(104,521,o),
(140,533,o),
(184,542,c),
(228,551,o),
(275,555,o),
(324,555,c),
(401,555,o),
(461,541,o),
(505,512,c),
(548,484,o),
(570,433,o),
(570,361,c),
(570,0,l)
);
},
{
closed = 1;
nodes = (
(222,-10,l),
(190,-10,o),
(160,-4,o),
(132,9,c),
(104,21,o),
(81,40,o),
(64,64,c),
(47,88,o),
(39,117,o),
(39,149,c),
(39,152,l),
(39,199,o),
(57,238,o),
(95,269,c),
(133,299,o),
(189,318,o),
(263,324,c),
(452,340,l),
(452,254,l),
(298,240,l),
(265,237,o),
(241,229,o),
(224,217,c),
(207,205,o),
(199,188,o),
(199,168,c),
(199,143,o),
(207,125,o),
(222,112,c),
(238,99,o),
(259,93,o),
(284,93,c),
(308,93,o),
(330,98,o),
(351,108,c),
(372,118,o),
(389,133,o),
(403,151,c),
(416,170,o),
(423,193,o),
(423,220,c),
(476,178,l),
(466,134,o),
(449,98,o),
(424,70,c),
(399,42,o),
(369,21,o),
(335,9,c),
(301,-4,o),
(266,-10,o),
(229,-10,c)
);
}
);
};
layerId = "90AA5CBF-A596-42C0-9008-AC44A3E9C24E";
name = "28 Oct 22 11.52";
shapes = (
{
closed = 1;
nodes = (
(590,95,o),
(570,106,o),
(570,146,cs),
(570,356,ls),
(570,482,o),
(480,555,o),
(323,555,cs),
(225,555,o),
(119,527,o),
(38,479,c),
(84,537,l),
(136,379,l),
(71,372,l),
(154,419,o),
(222,440,o),
(288,440,cs),
(360,440,o),
(424,414,o),
(424,339,cs),
(424,128,ls),
(424,39,o),
(474,-10,o),
(546,-10,cs),
(594,-10,o),
(638,12,o),
(676,46,c),
(646,-69,l),
(607,151,l),
(637,109,l)
);
},
{
closed = 1;
nodes = (
(357,-10,o),
(447,63,o),
(476,178,c),
(422,239,l),
(415,150,o),
(359,89,o),
(275,89,cs),
(224,89,o),
(192,117,o),
(192,160,cs),
(192,233,o),
(281,261,o),
(442,233,c),
(452,307,l),
(210,362,o),
(40,296,o),
(40,151,cs),
(40,53,o),
(117,-10,o),
(232,-10,cs)
);
}
);
width = 642;
}
);
unicode = 97;
}
{
color = 4;
glyphname = b;
layers = (
{
background = {
shapes = (
{
pos = (25,0);
ref = n;
}
);
};
layerId = m009;
shapes = (
{
closed = 1;
nodes = (
(110,0,l),
(116,105,l),
(116,150,l),
(109,182,l),
(109,391,l),
(116,398,l),
(116,750,l),
(89,750,l),
(89,0,l)
);
},
{
pos = (-10,0);
ref = _perut_b;
}
);
width = 569;
},
{
anchors = (
{
name = bottom;
pos = (343,0);
},
{
name = top;
pos = (343,750);
}
);
associatedMasterId = m009;
background = {
shapes = (
{
closed = 1;
nodes = (
(377,110,o),
(403,117,o),
(426,132,c),
(449,147,o),
(467,166,o),
(480,190,c),
(492,214,o),
(498,240,o),
(498,267,c),
(498,273,l),
(498,303,o),
(492,330,o),
(479,354,c),
(466,377,o),
(449,396,o),
(426,410,c),
(403,424,o),
(377,430,o),
(348,430,c),
(317,430,o),
(291,423,o),
(268,409,c),
(246,394,o),
(229,375,o),
(217,351,c),
(205,327,o),
(200,301,o),
(200,272,c),
(200,263,l),
(200,234,o),
(206,208,o),
(219,185,c),
(231,162,o),
(249,143,o),
(271,130,c),
(294,117,o),
(319,110,o),
(347,110,c)
);
},
{
closed = 1;
nodes = (
(344,-10,o),
(310,-4,o),
(279,8,c),
(249,21,o),
(224,37,o),
(204,58,c),
(184,79,o),
(168,102,o),
(158,128,c),
(158,410,l),
(166,437,o),
(179,461,o),
(198,482,c),
(217,504,o),
(242,521,o),
(272,533,c),
(302,545,o),
(336,552,o),
(374,552,c),
(427,552,o),
(474,539,o),
(515,514,c),
(556,489,o),
(587,455,o),
(610,413,c),
(633,370,o),
(644,324,o),
(644,273,c),
(644,264,l),
(644,211,o),
(633,163,o),
(610,122,c),
(587,81,o),
(555,48,o),
(515,25,c),
(475,1,o),
(431,-10,o),
(383,-10,c)
);
},
{
closed = 1;
nodes = (
(53,0,l),
(53,740,l),
(200,740,l),
(200,106,l),
(187,0,l)
);
}
);
};
layerId = "39D93B3F-3BBE-4227-9F9A-0897DBA04697";
name = "28 Oct 22 12.03";
shapes = (
{
closed = 1;
nodes = (
(167,0,l),
(199,106,l),
(199,740,l),
(53,740,l),
(53,0,l)
);
},
{
closed = 1;
nodes = (
(522,-10,o),
(637,99,o),
(637,276,cs),
(637,447,o),
(532,555,o),
(392,555,cs),
(303,555,o),
(232,511,o),
(187,441,c),
(182,103,l),
(232,27,o),
(298,-10,o),
(387,-10,cs)
);
},
{
closed = 1;
nodes = (
(263,107,o),
(206,177,o),
(206,272,cs),
(206,367,o),
(263,435,o),
(349,435,cs),
(432,435,o),
(488,376,o),
(488,274,cs),
(488,169,o),
(428,107,o),
(346,107,cs)
);
}
);
width = 660;
},
{
background = {
shapes = (
{
pos = (-10,0);
ref = n;
}
);
};
layerId = m002;
shapes = (
{
closed = 1;
nodes = (
(147,0,l),
(167,76,l),
(168,118,l),
(156,151,l),
(156,443,l),
(167,450,l),
(167,750,l),
(82,750,l),
(82,0,l)
);
},
{
pos = (4,0);
ref = _perut_b;
}
);
width = 606;
},
{
anchors = (
{
name = bottom;
pos = (343,0);
},
{
name = top;
pos = (343,750);
}
);
associatedMasterId = m002;
background = {
shapes = (
{
closed = 1;
nodes = (
(377,110,o),
(403,117,o),
(426,132,c),
(449,147,o),
(467,166,o),
(480,190,c),
(492,214,o),
(498,240,o),
(498,267,c),
(498,273,l),
(498,303,o),
(492,330,o),
(479,354,c),
(466,377,o),
(449,396,o),
(426,410,c),
(403,424,o),
(377,430,o),
(348,430,c),
(317,430,o),
(291,423,o),
(268,409,c),
(246,394,o),
(229,375,o),
(217,351,c),
(205,327,o),
(200,301,o),
(200,272,c),
(200,263,l),
(200,234,o),
(206,208,o),
(219,185,c),
(231,162,o),
(249,143,o),
(271,130,c),
(294,117,o),
(319,110,o),
(347,110,c)
);
},
{
closed = 1;
nodes = (
(344,-10,o),
(310,-4,o),
(279,8,c),
(249,21,o),
(224,37,o),
(204,58,c),
(184,79,o),
(168,102,o),
(158,128,c),
(158,410,l),
(166,437,o),
(179,461,o),
(198,482,c),
(217,504,o),
(242,521,o),
(272,533,c),
(302,545,o),
(336,552,o),
(374,552,c),
(427,552,o),
(474,539,o),
(515,514,c),
(556,489,o),
(587,455,o),
(610,413,c),
(633,370,o),
(644,324,o),
(644,273,c),
(644,264,l),
(644,211,o),
(633,163,o),
(610,122,c),
(587,81,o),
(555,48,o),
(515,25,c),
(475,1,o),
(431,-10,o),
(383,-10,c)
);
},
{
closed = 1;
nodes = (
(53,0,l),
(53,740,l),
(200,740,l),
(200,106,l),
(187,0,l)
);
}
);
};
layerId = "F273C629-C432-4C07-81A3-DE9416EB0548";
name = "28 Oct 22 12.03";
shapes = (
{
closed = 1;
nodes = (
(167,0,l),
(199,106,l),
(199,740,l),
(53,740,l),
(53,0,l)
);
},
{
closed = 1;
nodes = (
(522,-10,o),
(637,99,o),
(637,276,cs),
(637,447,o),
(532,555,o),
(392,555,cs),
(303,555,o),
(232,511,o),
(187,441,c),
(182,103,l),
(232,27,o),
(298,-10,o),
(387,-10,cs)
);
},
{
closed = 1;
nodes = (
(263,107,o),
(206,177,o),
(206,272,cs),
(206,367,o),
(263,435,o),
(349,435,cs),
(432,435,o),
(488,376,o),
(488,274,cs),
(488,169,o),
(428,107,o),
(346,107,cs)
);
}
);
width = 660;
},
{
background = {
shapes = (
{
pos = (-6,0);
ref = o;
}
);
};
layerId = m003;
shapes = (
{
closed = 1;
nodes = (
(179,0,l),
(219,93,l),
(219,155,l),
(208,201,l),
(208,373,l),
(219,410,l),
(219,750,l),
(73,750,l),
(73,0,l)
);
},
{
pos = (15,0);
ref = _perut_b;
}
);
width = 649;
},
{
anchors = (
{
name = bottom;
pos = (343,0);
},
{
name = top;
pos = (343,750);
}
);
associatedMasterId = m003;
background = {
shapes = (
{
closed = 1;
nodes = (
(377,110,o),
(403,117,o),
(426,132,c),
(449,147,o),
(467,166,o),
(480,190,c),
(492,214,o),
(498,240,o),
(498,267,c),
(498,273,l),
(498,303,o),
(492,330,o),
(479,354,c),
(466,377,o),
(449,396,o),
(426,410,c),
(403,424,o),
(377,430,o),
(348,430,c),
(317,430,o),
(291,423,o),
(268,409,c),
(246,394,o),
(229,375,o),
(217,351,c),
(205,327,o),
(200,301,o),
(200,272,c),
(200,263,l),
(200,234,o),
(206,208,o),
(219,185,c),
(231,162,o),
(249,143,o),
(271,130,c),
(294,117,o),
(319,110,o),
(347,110,c)
);
},
{
closed = 1;
nodes = (
(344,-10,o),
(310,-4,o),
(279,8,c),
(249,21,o),
(224,37,o),
(204,58,c),
(184,79,o),
(168,102,o),
(158,128,c),
(158,410,l),
(166,437,o),
(179,461,o),
(198,482,c),
(217,504,o),
(242,521,o),
(272,533,c),
(302,545,o),
(336,552,o),
(374,552,c),
(427,552,o),
(474,539,o),
(515,514,c),
(556,489,o),
(587,455,o),
(610,413,c),
(633,370,o),
(644,324,o),
(644,273,c),
(644,264,l),
(644,211,o),
(633,163,o),
(610,122,c),
(587,81,o),
(555,48,o),
(515,25,c),
(475,1,o),
(431,-10,o),
(383,-10,c)
);
},
{
closed = 1;
nodes = (
(53,0,l),
(53,740,l),
(200,740,l),
(200,106,l),
(187,0,l)
);
}
);
};
layerId = "9976D06F-FD8D-47E7-8C34-ED32F5027B1C";
name = "28 Oct 22 12.03";
shapes = (
{
closed = 1;
nodes = (
(167,0,l),
(199,106,l),
(199,740,l),
(53,740,l),
(53,0,l)
);
},
{
closed = 1;
nodes = (
(522,-10,o),
(637,99,o),
(637,276,cs),
(637,447,o),
(532,555,o),
(392,555,cs),
(303,555,o),
(232,511,o),
(187,441,c),
(182,103,l),
(232,27,o),
(298,-10,o),
(387,-10,cs)
);
},
{
closed = 1;
nodes = (
(263,107,o),
(206,177,o),
(206,272,cs),
(206,367,o),
(263,435,o),
(349,435,cs),
(432,435,o),
(488,376,o),
(488,274,cs),
(488,169,o),
(428,107,o),
(346,107,cs)
);
}
);
width = 660;
},
{
associatedMasterId = m003;
background = {
shapes = (
{
pos = (84,545);
ref = n;
scale = (1,-1);
}
);
};
layerId = "79B40CB9-0FFC-4BF4-A8FB-8BB90D2CA1B9";
name = "22 Jun 23 10.49";
shapes = (
{
closed = 1;
nodes = (
(212,0,l),
(232,76,l),
(233,118,l),
(221,151,l),
(221,443,l),
(232,450,l),
(232,750,l),
(64,750,l),
(64,0,l)
);
},
{
pos = (69,0);
ref = _perut_b;
}
);
width = 679;
}
);
metricLeft = h;
metricRight = o;
unicode = 98;
}
{
color = 4;
glyphname = c;
layers = (
{
anchors = (
{
name = bar_ver;
pos = (312,273);
}
);
background = {
shapes = (
{
pos = (-1,0);
ref = o;
}
);
};
layerId = m009;
shapes = (
{
closed = 1;
nodes = (
(371,-10,o),
(439,14,o),
(484,61,c),
(482,13,l),
(421,140,l),
(454,128,l),
(407,84,o),
(365,66,o),
(313,66,cs),
(204,66,o),
(133,145,o),
(133,277,cs),
(133,414,o),
(213,479,o),
(313,479,cs),
(378,479,o),
(424,452,o),
(469,410,c),
(420,403,l),
(487,538,l),
(493,479,l),
(449,531,o),
(384,555,o),
(310,555,cs),
(156,555,o),
(47,455,o),
(47,276,cs),
(47,97,o),
(154,-10,o),
(303,-10,cs)
);
}
);
width = 506;
}
);
metricLeft = o;
unicode = 99;
}
{
color = 4;
glyphname = d;
layers = (
{
background = {
shapes = (
{
pos = (613,0);
ref = b;
scale = (-1,1);
}
);
};
layerId = m009;
shapes = (
{
closed = 1;
nodes = (
(531,0,l),
(531,750,l),
(446,750,l),
(446,450,l),
(457,443,l),
(457,151,l),
(444,119,l),
(444,83,l),
(466,0,l)
);
},
{
ref = _perut_d;
}
);
width = 613;
}
);
metricLeft = o;
metricRight = "=|h";
unicode = 100;
}
{
color = 9;
glyphname = e;
layers = (
{
background = {
shapes = (
{
pos = (-7,0);
ref = c;
}
);
};
layerId = m009;
shapes = (
{
closed = 1;
nodes = (
(385,-10,o),
(447,18,o),
(499,82,c),
(489,41,l),
(428,137,l),
(458,143,l),
(414,87,o),
(366,63,o),
(306,63,cs),
(195,63,o),
(125,146,o),
(125,257,c),
(102,252,l),
(537,252,l),
(494,205,l),
(518,446,o),
(431,555,o),
(280,555,cs),
(129,555,o),
(42,432,o),
(42,278,cs),
(42,95,o),
(151,-10,o),
(302,-10,cs)
);
},
{
closed = 1;
nodes = (
(125,416,o),
(186,481,o),
(280,481,cs),
(372,481,o),
(424,417,o),
(416,287,c),
(441,320,l),
(111,320,l),
(127,284,l)
);
}
);
width = 536;
}
);
metricLeft = o;
unicode = 101;
}
{
color = 9;
glyphname = f;
layers = (
{
background = {
shapes = (
{
pos = (-6,186);
ref = r;
}
);
};
layerId = m009;
shapes = (
{
closed = 1;
nodes = (
(198,0,l),
(198,487,l),
(188,470,l),
(309,470,l),
(309,545,l),
(185,545,l),
(196,535,l),
(196,591,ls),
(196,656,o),
(222,684,o),
(267,684,cs),
(299,684,o),
(325,673,o),
(345,657,c),
(332,657,l),
(377,744,l),
(382,718,l),
(356,742,o),
(321,760,o),
(265,760,cs),
(176,760,o),
(113,699,o),
(113,600,cs),
(113,563,ls),
(113,550,o),
(108,545,o),
(95,545,cs),
(28,545,l),
(28,470,l),
(124,470,l),
(113,486,l),
(113,0,l)
);
}
);
width = 334;
},
{
background = {
shapes = (
{
pos = (-6,186);
ref = r;
}
);
};
layerId = m002;
shapes = (
{
closed = 1;
nodes = (
(198,0,l),
(198,487,l),
(188,470,l),
(309,470,l),
(309,545,l),
(185,545,l),
(196,535,l),
(196,591,ls),
(196,656,o),
(222,684,o),
(267,684,cs),
(299,684,o),
(325,673,o),
(345,657,c),
(332,657,l),
(377,744,l),
(382,718,l),
(356,742,o),
(321,760,o),
(265,760,cs),
(176,760,o),
(113,699,o),
(113,600,cs),
(113,563,ls),
(113,550,o),
(108,545,o),
(95,545,cs),
(28,545,l),
(28,470,l),
(124,470,l),
(113,486,l),
(113,0,l)
);
}
);
width = 334;
},
{
background = {
shapes = (
{
pos = (-6,186);
ref = r;
}
);
};
layerId = m003;
shapes = (
{
closed = 1;
nodes = (
(198,0,l),
(198,487,l),
(188,470,l),
(309,470,l),
(309,545,l),
(185,545,l),
(196,535,l),
(196,591,ls),
(196,656,o),
(222,684,o),
(267,684,cs),
(299,684,o),
(325,673,o),
(345,657,c),
(332,657,l),
(377,744,l),
(382,718,l),
(356,742,o),
(321,760,o),
(265,760,cs),
(176,760,o),
(113,699,o),
(113,600,cs),
(113,563,ls),
(113,550,o),
(108,545,o),
(95,545,cs),
(28,545,l),
(28,470,l),
(124,470,l),
(113,486,l),
(113,0,l)
);
}
);
width = 334;
}
);
unicode = 102;
}
{
glyphname = g;
layers = (
{
background = {
shapes = (
{
closed = 1;
nodes = (
(400,532,o),
(421,555,o),
(451,555,cs),
(469,555,o),
(489,547,o),
(512,521,c),
(500,514,l),
(560,628,l),
(555,585,l),
(521,612,o),
(487,624,o),
(457,624,cs),
(389,624,o),
(359,564,o),
(349,514,c),
(386,485,l)
);
}
);
};
layerId = m009;
shapes = (
{
closed = 1;
nodes = (
(347,-260,o),
(480,-217,o),
(481,-86,cs),
(483,138,o),
(133,37,o),
(133,107,cs),
(133,134,o),
(180,160,o),
(234,191,c),
(192,221,l),
(113,175,o),
(60,147,o),
(60,92,cs),
(60,-46,o),
(404,73,o),
(404,-87,cs),
(404,-161,o),
(311,-190,o),
(222,-190,cs),
(157,-190,o),
(83,-175,o),
(83,-118,cs),
(83,-79,o),
(107,-15,o),
(229,15,c),
(149,32,l),
(35,-14,o),
(6,-69,o),
(6,-128,cs),
(6,-214,o),
(90,-260,o),
(217,-260,cs)
);
},
{
closed = 1;
nodes = (
(347,164,o),
(431,239,o),
(431,361,cs),
(431,482,o),
(347,555,o),
(242,555,cs),
(137,555,o),
(53,482,o),
(53,361,cs),
(53,244,o),
(137,164,o),
(244,164,cs)
);
},
{
closed = 1;
nodes = (
(176,227,o),
(127,272,o),
(127,360,cs),
(127,449,o),
(176,493,o),
(242,493,cs),
(307,493,o),
(356,449,o),
(356,360,cs),
(356,272,o),
(307,227,o),
(242,227,cs)
);
},
{
closed = 1;
nodes = (
(376,551,o),
(434,566,o),
(495,531,c),
(451,522,l),
(504,631,l),
(499,600,l),
(480,613,o),
(457,622,o),
(430,622,cs),
(364,622,o),
(331,568,o),
(331,489,c),
(376,481,l)
);
}
);
width = 483;
}
);
unicode = 103;
}
{
color = 4;
glyphname = i;
layers = (
{
background = {
shapes = (
{
closed = 1;
nodes = (
(46,609,l),
(202,609,l),
(202,740,l),
(46,740,l)
);
},
{
closed = 1;
nodes = (
(52,0,l),
(198,0,l),
(198,542,l),
(52,542,l)
);
}
);
};
guides = (
{
angle = 90;
pos = (219,201);
},
{
angle = 270;
pos = (51,201);
},
{
pos = (193,568);
}
);
layerId = m009;
shapes = (
{
ref = idotless;
},
{
alignment = 1;
pos = (-30,0);
ref = dotaccentcomb;
}
);
width = 205;
},
{
background = {
shapes = (
{
closed = 1;
nodes = (
(46,609,l),
(202,609,l),
(202,740,l),
(46,740,l)
);
},
{
closed = 1;
nodes = (
(52,0,l),
(198,0,l),
(198,542,l),
(52,542,l)
);
}
);
};
guides = (
{
angle = 90;
pos = (219,201);
},
{
angle = 270;
pos = (51,201);
},
{
pos = (193,568);
}
);
layerId = m002;
shapes = (
{
ref = idotless;
},
{
alignment = 1;
pos = (-8,0);
ref = dotaccentcomb;
}
);
width = 249;
},
{
background = {
shapes = (
{
closed = 1;
nodes = (
(46,609,l),
(202,609,l),
(202,740,l),
(46,740,l)
);
},
{
closed = 1;
nodes = (
(52,0,l),
(198,0,l),
(198,542,l),
(52,542,l)
);
}
);
};
guides = (
{
angle = 90;
pos = (219,201);
},
{
angle = 270;
pos = (51,201);
},
{
pos = (193,568);
}
);
layerId = m003;
shapes = (
{
ref = idotless;
},
{
alignment = 1;
pos = (13,0);
ref = dotaccentcomb;
}
);
width = 292;
}
);
metricRight = "=|";
unicode = 105;
}
{
color = 9;
glyphname = j;
layers = (
{
background = {
shapes = (
{
angle = 180;
pos = (247,500);
ref = f;
}
);
};
layerId = m009;
shapes = (
{
closed = 1;
nodes = (
(102,-215,o),
(162,-153,o),
(162,-53,cs),
(162,545,l),
(77,545,l),
(77,-51,ls),
(77,-111,o),
(49,-140,o),
(5,-140,cs),
(-22,-140,o),
(-45,-129,o),
(-61,-119,c),
(-42,-114,l),
(-89,-201,l),
(-87,-185,l),
(-67,-201,o),
(-33,-215,o),
(10,-215,cs)
);
},
{
closed = 1;
nodes = (
(167,662,l),
(167,750,l),
(72,750,l),
(72,662,l)
);
}
);
width = 240;
}
);
unicode = 106;
}
{
glyphname = k;
layers = (
{
anchors = (
{
name = connect;
pos = (167,0);
}
);
background = {
shapes = (
{
pos = (35,0);
ref = x;
},
{
pos = (8,0);
ref = n;
}
);
};
layerId = m009;
shapes = (
{
closed = 1;
nodes = (
(167,0,l),
(167,213,l),
(150,162,l),
(252,276,l),
(241,276,l),
(430,0,l),
(529,0,l),
(296,328,l),
(294,316,l),
(500,545,l),
(404,545,l),
(162,277,l),
(158,280,l),
(166,294,o),
(167,319,o),
(167,355,cs),
(167,750,l),
(82,750,l),
(82,0,l)
);
}
);
width = 530;
}
);
metricLeft = h;
unicode = 107;
}
{
glyphname = l;
layers = (
{
background = {
shapes = (
{
pos = (-309,0);
ref = a;
}
);
};
layerId = m009;
shapes = (
{
closed = 1;
nodes = (
(211,-10,o),
(232,-4,o),
(249,8,c),
(247,-7,l),
(222,68,l),
(233,64,l),
(187,47,o),
(164,63,o),
(164,108,cs),
(164,750,l),
(79,750,l),
(79,112,ls),
(79,37,o),
(117,-10,o),
(187,-10,cs)
);
}
);
width = 274;
}
);
unicode = 108;
}
{
color = 9;
glyphname = m;
layers = (
{
background = {
shapes = (
{
pos = (-46,0);
ref = n;
},
{
pos = (277,0);
ref = n;
}
);
};
layerId = m009;
shapes = (
{
closed = 1;
nodes = (
(658,0,l),
(658,385,ls),
(658,473,o),
(609,535,o),
(524,535,cs),
(523,535,ls),
(478,535,o),
(428,515,o),
(385,446,c),
(374,446,l),
(380,423,l),
(396,423,l),
(421,478,o),
(468,509,o),
(521,509,cs),
(581,509,o),
(631,471,o),
(631,378,cs),
(631,0,l)
);
},
{
alignment = -1;
pos = (7,0);
ref = _part.stem;
},
{
closed = 1;
nodes = (
(396,0,l),
(396,429,l),
(391,437,l),
(373,496,o),
(334,535,o),
(271,535,cs),
(270,535,ls),
(224,535,o),
(171,508,o),
(134,436,c),
(123,436,l),
(126,395,l),
(134,395,l),
(167,471,o),
(216,509,o),
(270,509,cs),
(329,509,o),
(369,459,o),
(369,387,cs),
(369,0,l)
);
}
);
width = 748;
},
{
background = {
shapes = (
{
pos = (11,0);
ref = n;
},
{
pos = (334,0);
ref = n;
}
);
};
layerId = m002;
shapes = (
{
closed = 1;
nodes = (
(851,0,l),
(851,344,ls),
(851,468,o),
(783,555,o),
(669,555,cs),
(662,555,ls),
(595,555,o),
(532,521,o),
(492,462,c),
(480,462,l),
(483,332,l),
(514,351,l),
(527,435,o),
(581,479,o),
(648,479,cs),
(720,479,o),
(766,436,o),
(766,335,cs),
(766,0,l)
);
},
{
alignment = -1;
pos = (56,0);
ref = _part.stem;
},
{
closed = 1;
nodes = (
(514,0,l),
(514,414,l),
(502,414,l),
(488,510,o),
(413,555,o),
(340,555,cs),
(330,555,ls),
(263,555,o),
(212,518,o),
(180,468,c),
(167,468,l),
(169,332,l),
(177,332,l),
(192,412,o),
(236,479,o),
(316,479,cs),
(395,479,o),
(430,423,o),
(430,339,cs),
(430,0,l)
);
}
);
width = 929;
},
{
background = {
shapes = (
{
pos = (28,0);
ref = n;
},
{
pos = (351,0);
ref = n;
}
);
};
layerId = m003;
shapes = (
{
closed = 1;
nodes = (
(940,0,l),
(940,350,ls),
(940,490,o),
(852,575,o),
(738,575,cs),
(728,575,ls),
(661,575,o),
(590,539,o),
(549,482,c),
(536,482,l),
(540,325,l),
(572,325,l),
(584,410,o),
(633,453,o),
(691,453,cs),
(757,453,o),
(792,416,o),
(792,321,cs),
(792,0,l)
);
},
{
alignment = -1;
pos = (83,0);
ref = _part.stem;
},
{
closed = 1;
nodes = (
(572,0,l),
(572,358,l),
(562,404,l),
(562,504,o),
(474,575,o),
(386,575,cs),
(370,575,ls),
(314,575,o),
(252,546,o),
(208,488,c),
(195,488,l),
(196,325,l),
(204,325,l),
(221,410,o),
(266,453,o),
(326,453,cs),
(383,453,o),
(424,416,o),
(424,321,cs),
(424,0,l)
);
}
);
width = 990;
},
{
associatedMasterId = m003;
background = {
shapes = (
{
pos = (11,0);
ref = n;
},
{
pos = (334,0);
ref = n;
}
);
};
layerId = "498C6550-3AAA-4147-AA97-AB683821D320";
name = "22 Jun 23 12.55";
shapes = (
{
closed = 1;
nodes = (
(851,0,l),
(851,344,ls),
(851,468,o),
(783,555,o),
(669,555,cs),
(662,555,ls),
(595,555,o),
(532,521,o),
(492,462,c),
(480,462,l),
(483,332,l),
(514,351,l),
(527,435,o),
(581,479,o),
(648,479,cs),
(720,479,o),
(766,436,o),
(766,335,cs),
(766,0,l)
);
},
{
alignment = -1;
pos = (56,0);
ref = _part.stem;
},
{
closed = 1;
nodes = (
(514,0,l),
(514,414,l),
(502,414,l),
(488,510,o),
(413,555,o),
(340,555,cs),
(330,555,ls),
(263,555,o),
(212,518,o),
(180,468,c),
(167,468,l),
(169,332,l),
(177,332,l),
(192,412,o),
(236,479,o),
(316,479,cs),
(395,479,o),
(430,423,o),
(430,339,cs),
(430,0,l)
);
}
);
width = 929;
}
);
metricLeft = n;
metricRight = n;
unicode = 109;
}
{
glyphname = o;
layers = (
{
background = {
shapes = (
{
pos = (42,0);
ref = n;
}
);
};
layerId = m009;
shapes = (
{
closed = 1;
nodes = (
(443,-10,o),
(554,93,o),
(554,273,cs),
(554,453,o),
(443,555,o),
(302,555,cs),
(161,555,o),
(50,453,o),
(50,273,cs),
(50,93,o),
(161,-10,o),
(302,-10,cs)
);
},
{
closed = 1;
nodes = (
(215,58,o),
(134,114,o),
(134,273,cs),
(134,432,o),
(215,487,o),
(302,487,cs),
(389,487,o),
(470,432,o),
(470,273,cs),
(470,114,o),
(389,58,o),
(302,58,cs)
);
}
);
width = 604;
}
);
metricRight = "=|";
unicode = 111;
}
{
color = 9;
glyphname = p;
layers = (
{
anchors = (
{
name = bottom;
pos = (298,0);
},
{
name = top;
pos = (298,545);
}
);
background = {
shapes = (
{
pos = (-10,0);
ref = b;
}
);
};
guides = (
{
pos = (1009,869);
}
);
layerId = m009;
shapes = (
{
closed = 1;
nodes = (
(134,-195,l),
(134,95,l),
(125,102,l),
(125,394,l),
(135,407,l),
(135,429,l),
(126,525,l),
(107,525,l),
(107,-195,l)
);
},
{
pos = (-30,0);
ref = _perut_b;
}
);
width = 506;
},
{
anchors = (
{
name = bottom;
pos = (342,0);
},
{
name = top;
pos = (342,545);
}
);
background = {
shapes = (
{
pos = (34,0);
ref = b;
}
);
};
guides = (
{
pos = (1053,869);
}
);
layerId = m002;
shapes = (
{
closed = 1;
nodes = (
(177,-205,l),
(177,95,l),
(166,102,l),
(166,394,l),
(182,427,l),
(182,449,l),
(156,545,l),
(92,545,l),
(92,-205,l)
);
},
{
pos = (14,0);
ref = _perut_b;
}
);
width = 620;
},
{
anchors = (
{
name = bottom;
pos = (333,0);
},
{
name = top;
pos = (333,545);
}
);
background = {
shapes = (
{
pos = (25,0);
ref = b;
}
);
};
guides = (
{
pos = (1044,869);
}
);
layerId = m003;
shapes = (
{
closed = 1;
nodes = (
(204,-205,l),
(204,115,l),
(193,122,l),
(193,414,l),
(222,466,l),
(222,488,l),
(183,565,l),
(58,565,l),
(58,-205,l)
);
},
{
pos = (5,0);
ref = _perut_b;
}
);
width = 672;
}
);
metricLeft = n;
metricRight = o;
unicode = 112;
}
{
glyphname = q;
layers = (
{
background = {
shapes = (
{
pos = (585,0);
ref = p;
scale = (-1,1);
}
);
};
layerId = m009;
shapes = (
{
closed = 1;
nodes = (
(535,-205,l),
(535,545,l),
(471,545,l),
(450,469,l),
(450,437,l),
(461,413,l),
(461,102,l),
(450,95,l),
(450,-205,l)
);
},
{
pos = (5,0);
ref = _perut_d;
}
);
width = 609;
}
);
metricLeft = o;
metricRight = "=|n";
unicode = 113;
}
{
color = 9;
glyphname = r;
layers = (
{
anchors = (
{
name = bottom;
pos = (130,0);
},
{
name = connect;
pos = (177,0);
},
{
name = top;
pos = (210,545);
}
);
background = {
shapes = (
{
pos = (10,0);
ref = n;
}
);
};
layerId = m009;
shapes = (
{
closed = 1;
nodes = (
(177,0,l),
(177,332,ls),
(177,405,o),
(214,473,o),
(285,473,cs),
(311,473,o),
(333,462,o),
(352,434,c),
(337,431,l),
(392,540,l),
(392,517,l),
(365,545,o),
(333,555,o),
(301,555,cs),
(250,555,o),
(209,531,o),
(178,480,c),
(175,480,l),
(155,545,l),
(92,545,l),
(92,0,l)
);
}
);
width = 379;
}
);
metricLeft = n;
unicode = 114;
}
{
glyphname = s;
layers = (
{
background = {
shapes = (
{
pos = (-84,0);
ref = n;
}
);
};
layerId = m009;
shapes = (
{
closed = 1;
nodes = (
(339,-10,o),
(399,78,o),
(399,155,cs),
(399,230,o),
(343,278,o),
(247,316,cs),
(159,351,o),
(125,379,o),
(126,412,cs),
(127,447,o),
(167,479,o),
(233,479,cs),
(270,479,o),
(325,469,o),
(386,416,c),
(343,403,l),
(401,538,l),
(399,491,l),
(370,522,o),
(301,555,o),
(226,555,cs),
(118,555,o),
(43,487,o),
(43,404,cs),
(43,338,o),
(90,291,o),
(216,240,cs),
(286,212,o),
(321,192,o),
(321,147,cs),
(321,99,o),
(279,65,o),
(203,65,cs),
(139,65,o),
(76,89,o),
(39,119,c),
(74,140,l),
(2,13,l),
(7,59,l),
(43,18,o),
(130,-10,o),
(205,-10,cs)
);
}
);
width = 426;
}
);
unicode = 115;
}
{
color = 4;
glyphname = t;
layers = (
{
anchors = (
{
name = bottom;
pos = (238,0);
},
{
name = center;
pos = (151,273);
},
{
name = top;
pos = (151,545);
},
{
name = topright;
pos = (334,750);
}
);
background = {
shapes = (
{
pos = (-10,751);
ref = f;
scale = (1,-1);
}
);
};
layerId = m009;
shapes = (
{
closed = 1;
nodes = (
(277,-10,o),
(314,5,o),
(333,15,c),
(315,-5,l),
(297,42,l),
(322,36,l),
(292,21,o),
(266,14,o),
(235,14,cs),
(189,14,o),
(149,42,o),
(149,126,cs),
(149,521,l),
(144,513,l),
(307,513,l),
(307,537,l),
(140,537,l),
(148,523,l),
(148,690,l),
(125,690,l),
(125,554,ls),
(125,542,o),
(123,537,o),
(112,537,cs),
(20,537,l),
(20,513,l),
(133,513,l),
(124,521,l),
(124,124,ls),
(124,12,o),
(189,-10,o),
(236,-10,cs)
);
}
);
width = 345;
},
{
associatedMasterId = m009;
background = {
shapes = (
{
closed = 1;
nodes = (
(253,-10,o),
(269,-6,o),
(292,8,c),
(289,-7,l),
(265,68,l),
(276,64,l),
(230,44,o),
(207,73,o),
(207,108,cs),
(207,750,l),
(122,750,l),
(122,112,ls),
(122,37,o),
(160,-10,o),
(232,-10,cs)
);
}
);
};
layerId = "D6F56CFB-2345-40DD-9CC0-06A16C225C4A";
name = "25 Apr 23 17.11";
shapes = (
{
closed = 1;
nodes = (
(235,-10,o),
(271,-8,o),
(292,9,c),
(286,-7,l),
(260,76,l),
(276,71,l),
(205,46,o),
(156,72,o),
(156,137,cs),
(156,489,l),
(144,475,l),
(267,475,l),
(267,545,l),
(147,545,l),
(155,531,l),
(155,690,l),
(72,690,l),
(72,539,l),
(80,545,l),
(17,545,l),
(17,475,l),
(80,475,l),
(71,482,l),
(71,150,ls),
(71,54,o),
(117,-10,o),
(216,-10,cs)
);
}
);
width = 287;
},
{
anchors = (
{
name = bottom;
pos = (272,0);
},
{
name = center;
pos = (185,273);
},
{
name = top;
pos = (185,545);
},
{
name = topright;
pos = (368,750);
}
);
background = {
shapes = (
{
pos = (24,751);
ref = f;
scale = (1,-1);
}
);
};
layerId = m002;
shapes = (
{
closed = 1;
nodes = (
(295,-10,o),
(333,-3,o),
(369,16,c),
(357,-7,l),
(327,89,l),
(354,87,l),
(325,73,o),
(295,65,o),
(269,65,cs),
(230,65,o),
(193,78,o),
(193,146,cs),
(193,484,l),
(181,470,l),
(343,470,l),
(343,545,l),
(184,545,l),
(192,531,l),
(192,690,l),
(109,690,l),
(109,563,ls),
(109,550,o),
(104,545,o),
(91,545,cs),
(23,545,l),
(23,470,l),
(117,470,l),
(108,495,l),
(108,144,ls),
(108,23,o),
(183,-10,o),
(256,-10,cs)
);
}
);
width = 369;
},
{
associatedMasterId = m002;
background = {
shapes = (
{
closed = 1;
nodes = (
(253,-10,o),
(269,-6,o),
(292,8,c),
(289,-7,l),
(265,68,l),
(276,64,l),
(230,44,o),
(207,73,o),
(207,108,cs),
(207,750,l),
(122,750,l),
(122,112,ls),
(122,37,o),
(160,-10,o),
(232,-10,cs)
);
}
);
};
layerId = "60268954-EA4E-4C80-A446-ADEF34CD3234";
name = "25 Apr 23 17.11";
shapes = (
{
closed = 1;
nodes = (
(235,-10,o),
(271,-8,o),
(292,9,c),
(286,-7,l),
(260,76,l),
(276,71,l),
(205,46,o),
(156,72,o),
(156,137,cs),
(156,489,l),
(144,475,l),
(267,475,l),
(267,545,l),
(147,545,l),
(155,531,l),
(155,690,l),
(72,690,l),
(72,539,l),
(80,545,l),
(17,545,l),
(17,475,l),
(80,475,l),
(71,482,l),
(71,150,ls),
(71,54,o),
(117,-10,o),
(216,-10,cs)
);
}
);
width = 287;
},
{
anchors = (
{
name = bottom;
pos = (289,0);
},
{
name = center;
pos = (202,273);
},
{
name = top;
pos = (202,545);
},
{
name = topright;
pos = (385,750);
}
);
background = {
shapes = (
{
pos = (41,751);
ref = f;
scale = (1,-1);
}
);
};
layerId = m003;
shapes = (
{
closed = 1;
nodes = (
(325,-10,o),
(372,5,o),
(412,35,c),
(396,15,l),
(356,127,l),
(370,129,l),
(348,115,o),
(323,106,o),
(298,106,cs),
(262,106,o),
(239,127,o),
(239,165,cs),
(239,452,l),
(227,436,l),
(372,436,l),
(372,553,l),
(230,553,l),
(239,539,l),
(239,690,l),
(95,690,l),
(95,574,ls),
(95,561,o),
(88,553,o),
(74,553,cs),
(23,553,l),
(23,436,l),
(102,436,l),
(93,463,l),
(93,160,ls),
(93,55,o),
(149,-10,o),
(268,-10,cs)
);
}
);
width = 396;
},
{
associatedMasterId = m003;
background = {
shapes = (
{
closed = 1;
nodes = (
(253,-10,o),
(269,-6,o),
(292,8,c),
(289,-7,l),
(265,68,l),
(276,64,l),
(230,44,o),
(207,73,o),
(207,108,cs),
(207,750,l),
(122,750,l),
(122,112,ls),
(122,37,o),
(160,-10,o),
(232,-10,cs)
);
}
);
};
layerId = "EC2F004B-BBFC-4C09-8A6D-939421934148";
name = "25 Apr 23 17.11";
shapes = (
{
closed = 1;
nodes = (
(235,-10,o),
(271,-8,o),
(292,9,c),
(286,-7,l),
(260,76,l),
(276,71,l),
(205,46,o),
(156,72,o),
(156,137,cs),
(156,489,l),
(144,475,l),
(267,475,l),
(267,545,l),
(147,545,l),
(155,531,l),
(155,690,l),
(72,690,l),
(72,539,l),
(80,545,l),
(17,545,l),
(17,475,l),
(80,475,l),
(71,482,l),
(71,150,ls),
(71,54,o),
(117,-10,o),
(216,-10,cs)
);
}
);
width = 287;
}
);
unicode = 116;
}
{
glyphname = u;
layers = (
{
anchors = (
{
name = connect;
pos = (424,545);
}
);
layerId = m009;
shapes = (
{
closed = 1;
nodes = (
(328,-10,o),
(383,20,o),
(421,76,c),
(432,76,l),
(432,209,l),
(424,209,l),
(413,123,o),
(358,58,o),
(276,58,cs),
(199,58,o),
(158,115,o),
(158,204,cs),
(158,545,l),
(73,545,l),
(73,204,ls),
(73,67,o),
(142,-10,o),
(257,-10,cs)
);
},
{
closed = 1;
nodes = (
(544,123,l),
(594,71,l),
(533,36,o),
(509,61,o),
(509,131,cs),
(509,545,l),
(424,545,l),
(424,113,l),
(424,44,o),
(455,-10,o),
(528,-10,cs),
(558,-10,o),
(579,-1,o),
(598,12,c),
(591,-33,l)
);
}
);
width = 599;
}
);
metricRight = a;
unicode = 117;
}
{
color = 4;
glyphname = v;
layers = (
{
anchors = (
{
name = ytail;
pos = (242,0);
}
);
background = {
shapes = (
{
pos = (-52,0);
ref = n;
}
);
};
layerId = m009;
shapes = (
{
closed = 1;
nodes = (
(285,0,l),
(473,545,l),
(383,545,l),
(268,174,ls),
(253,127,o),
(249,98,o),
(248,76,c),
(239,76,l),
(238,98,o),
(233,128,o),
(219,174,cs),
(103,545,l),
(11,545,l),
(205,0,l)
);
}
);
width = 484;
}
);
metricRight = "=|";
unicode = 118;
}
{
color = 4;
glyphname = w;
layers = (
{
anchors = (
{
name = bottom;
pos = (338,0);
},
{
name = top;
pos = (338,537);
}
);
background = {
shapes = (
{
pos = (76,0);
ref = v;
}
);
};
layerId = m009;
shapes = (
{
closed = 1;
nodes = (
(206,0,l),
(329,454,ls),
(335,477,o),
(340,497,o),
(342,524,c),
(341,524,l),
(342,497,o),
(345,482,o),
(356,445,cs),
(482,0,l),
(516,0,l),
(672,537,l),
(645,537,l),
(516,87,ls),
(505,48,o),
(497,19,o),
(497,7,c),
(500,7,l),
(499,18,o),
(492,48,o),
(484,78,cs),
(354,537,l),
(328,537,l),
(203,75,ls),
(196,50,o),
(191,30,o),
(188,7,c),
(190,7,l),
(190,20,o),
(183,42,o),
(175,72,cs),
(47,537,l),
(20,537,l),
(171,0,l)
);
}
);
width = 692;
},
{
anchors = (
{
name = ytail;
pos = (247,0);
}
);
associatedMasterId = m009;
background = {
shapes = (
{
pos = (13,0);
ref = v;
}
);
};
layerId = "17E2EF85-0121-4951-B15F-07863FD7F2D0";
name = "24 Apr 23 14.52";
shapes = (
{
closed = 1;
nodes = (
(279,0,l),
(403,522,l),
(373,510,l),
(495,0,l),
(604,0,l),
(748,545,l),
(654,545,l),
(534,38,l),
(558,45,l),
(441,545,l),
(339,545,l),
(225,52,l),
(241,54,l),
(127,545,l),
(33,545,l),
(172,0,l)
);
}
);
width = 781;
},
{
anchors = (
{
name = bottom;
pos = (388,0);
},
{
name = top;
pos = (388,545);
}
);
background = {
shapes = (
{
pos = (14,0);
ref = v;
}
);
};
layerId = m002;
shapes = (
{
closed = 1;
nodes = (
(281,0,l),
(370,395,ls),
(381,442,o),
(382,469,o),
(382,485,c),
(381,485,l),
(381,469,o),
(384,443,o),
(395,399,cs),
(492,0,l),
(603,0,l),
(752,545,l),
(665,545,l),
(557,127,ls),
(548,91,o),
(545,75,o),
(545,41,c),
(547,41,l),
(547,75,o),
(544,91,o),
(533,135,cs),
(435,545,l),
(335,545,l),
(238,127,ls),
(229,88,o),
(228,67,o),
(226,44,c),
(228,44,l),
(230,66,o),
(229,87,o),
(219,125,cs),
(112,545,l),
(23,545,l),
(172,0,l)
);
}
);
width = 775;
},
{
anchors = (
{
name = ytail;
pos = (247,0);
}
);
associatedMasterId = m002;
background = {
shapes = (
{
pos = (13,0);
ref = v;
}
);
};
layerId = "A6EF8466-A5DF-4476-B0D7-781E5FD3A627";
name = "24 Apr 23 14.52";
shapes = (
{
closed = 1;
nodes = (
(279,0,l),
(403,522,l),
(373,510,l),
(495,0,l),
(604,0,l),
(748,545,l),
(654,545,l),
(534,38,l),
(558,45,l),
(441,545,l),
(339,545,l),
(225,52,l),
(241,54,l),
(127,545,l),
(33,545,l),
(172,0,l)
);
}
);
width = 781;
},
{
anchors = (
{
name = bottom;
pos = (398,0);
},
{
name = top;
pos = (398,553);
}
);
background = {
shapes = (
{
pos = (-36,0);
ref = v;
}
);
};
layerId = m003;
shapes = (
{
closed = 1;
nodes = (
(312,0,l),
(366,248,ls),
(385,337,o),
(393,391,o),
(393,506,c),
(390,506,l),
(390,391,o),
(396,347,o),
(410,286,cs),
(476,0,l),
(637,0,l),
(786,553,l),
(644,553,l),
(574,262,ls),
(560,204,o),
(549,158,o),
(549,91,c),
(551,91,l),
(551,159,o),
(546,205,o),
(527,286,cs),
(464,553,l),
(322,553,l),
(259,275,ls),
(245,212,o),
(238,188,o),
(239,101,c),
(241,101,l),
(240,188,o),
(233,212,o),
(207,316,cs),
(148,553,l),
(2,553,l),
(158,0,l)
);
}
);
width = 788;
},
{
anchors = (
{
name = ytail;
pos = (247,0);
}
);
associatedMasterId = m003;
background = {
shapes = (
{
pos = (13,0);
ref = v;
}
);
};
layerId = "3CD762EB-F57D-47A4-8DC7-11418E5FABAD";
name = "24 Apr 23 14.52";
shapes = (
{
closed = 1;
nodes = (
(279,0,l),
(403,522,l),
(373,510,l),
(495,0,l),
(604,0,l),
(748,545,l),
(654,545,l),
(534,38,l),
(558,45,l),
(441,545,l),
(339,545,l),
(225,52,l),
(241,54,l),
(127,545,l),
(33,545,l),
(172,0,l)
);
}
);
width = 781;
},
{
anchors = (
{
name = bottom;
pos = (388,0);
},
{
name = top;
pos = (388,545);
}
);
associatedMasterId = m002;
background = {
shapes = (
{
pos = (14,0);
ref = v;
}
);
};
layerId = "23C9D163-4205-4234-8137-C910B7E44DBD";
name = "29 Jun 23 15.28";
shapes = (
{
closed = 1;
nodes = (
(281,0,l),
(397,515,l),
(366,515,l),
(492,0,l),
(603,0,l),
(752,545,l),
(665,545,l),
(541,62,l),
(551,64,l),
(435,545,l),
(335,545,l),
(223,62,l),
(235,64,l),
(112,545,l),
(23,545,l),
(172,0,l)
);
}
);
width = 775;
}
);
metricRight = "=|";
unicode = 119;
}
{
glyphname = x;
layers = (
{
background = {
shapes = (
{
pos = (-60,0);
ref = n;
}
);
};
layerId = m009;
shapes = (
{
closed = 1;
nodes = (
(449,0,l),
(106,545,l),
(16,545,l),
(359,0,l)
);
},
{
closed = 1;
nodes = (
(79,0,l),
(243,235,l),
(205,305,l),
(-5,0,l)
);
},
{
closed = 1;
nodes = (
(459,545,l),
(379,545,l),
(223,305,l),
(261,235,l)
);
}
);
width = 466;
}
);
unicode = 120;
}
{
color = 4;
glyphname = y;
layers = (
{
anchors = (
{
name = bottom;
pos = (197,0);
},
{
name = top;
pos = (197,537);
}
);
background = {
shapes = (
{
closed = 1;
nodes = (
(11,-156,l),
(30,-169,o),
(51,-178,o),
(78,-178,cs),
(143,-178,o),
(170,-124,o),
(170,-55,c),
(178,-45,l),
(178,168,ls),
(178,262,o),
(220,316,o),
(322,316,cs),
(385,316,o),
(439,296,o),
(511,252,c),
(471,258,l),
(518,373,l),
(529,318,l),
(469,361,o),
(382,387,o),
(307,387,cs),
(166,387,o),
(102,305,o),
(102,170,cs),
(102,-41,ls),
(102,-114,o),
(76,-138,o),
(15,-103,c),
(65,-45,l),
(18,-201,l)
);
},
{
closed = 1;
nodes = (
(448,-178,o),
(526,-112,o),
(526,-13,cs),
(526,92,o),
(438,152,o),
(315,152,cs),
(262,152,o),
(216,141,o),
(182,129,c),
(162,129,l),
(162,65,l),
(197,84,o),
(254,94,o),
(300,94,cs),
(377,94,o),
(440,66,o),
(440,-12,cs),
(440,-73,o),
(401,-116,o),
(333,-116,cs),
(235,-116,o),
(178,-25,o),
(178,54,c),
(164,54,l),
(164,-76,l),
(173,-76,l),
(201,-137,o),
(268,-178,o),
(347,-178,cs)
);
}
);
};
layerId = m009;
shapes = (
{
closed = 1;
nodes = (
(149,-215,o),
(182,-180,o),
(208,-107,cs),
(442,537,l),
(415,537,l),
(248,70,ls),
(235,33,o),
(231,17,o),
(231,10,c),
(232,10,l),
(233,17,o),
(231,32,o),
(217,69,cs),
(44,537,l),
(17,537,l),
(228,-21,l),
(225,7,l),
(186,-99,ls),
(160,-170,o),
(133,-192,o),
(95,-192,cs),
(76,-192,o),
(61,-187,o),
(44,-179,c),
(52,-175,l),
(36,-204,l),
(33,-198,l),
(53,-210,o),
(78,-215,o),
(99,-215,cs)
);
}
);
width = 461;
},
{
anchors = (
{
name = bottom;
pos = (266,0);
},
{
name = top;
pos = (266,545);
}
);
associatedMasterId = m009;
background = {
shapes = (
{
closed = 1;
nodes = (
(104,-186,o),
(87,-184,o),
(68,-178,c),
(49,-173,o),
(33,-168,o),
(20,-161,c),
(41,-60,l),
(42,-60,o),
(44,-60,o),
(45,-61,c),
(46,-61,o),
(48,-61,o),
(49,-61,c),
(63,-65,o),
(77,-66,o),
(91,-66,c),
(111,-66,o),
(128,-63,o),
(140,-57,c),
(153,-50,o),
(163,-40,o),
(171,-25,c),
(180,-10,o),
(188,10,o),
(196,37,c),
(206,73,l),
(324,73,l),
(315,1,l),
(300,-33,l),
(297,-38,o),
(294,-43,o),
(292,-47,c),
(290,-52,o),
(288,-57,o),
(286,-61,c),
(272,-94,o),
(257,-118,o),
(243,-136,c),
(228,-153,o),
(211,-166,o),
(192,-174,c),
(172,-182,o),
(148,-186,o),
(120,-186,c)
);
},
{
closed = 1;
nodes = (
(195,1,l),
(-34,545,l),
(107,545,l),
(269,158,l),
(249,158,l),
(398,545,l),
(541,545,l),
(315,1,l)
);
}
);
};
layerId = "465E898B-A340-4BA7-806E-E5599B776A13";
name = "28 Oct 22 12.01";
shapes = (
{
closed = 1;
nodes = (
(221,-186,o),
(266,-134,o),
(320,0,cs),
(541,545,l),
(388,545,l),
(253,144,l),
(270,144,l),
(120,545,l),
(-33,545,l),
(195,0,l),
(233,0,l),
(195,37,l),
(201,-49,o),
(144,-67,o),
(106,-67,cs),
(58,-67,o),
(17,-50,o),
(-7,-39,c),
(52,-20,l),
(13,-197,l),
(-15,-146,l),
(23,-166,o),
(79,-186,o),
(125,-186,cs)
);
}
);
width = 508;
},
{
anchors = (
{
name = bottom;
pos = (250,0);
},
{
name = top;
pos = (250,545);
}
);
background = {
shapes = (
{
closed = 1;
nodes = (
(11,-156,l),
(30,-169,o),
(51,-178,o),
(78,-178,cs),
(143,-178,o),
(170,-124,o),
(170,-55,c),
(178,-45,l),
(178,168,ls),
(178,262,o),
(220,316,o),
(322,316,cs),
(385,316,o),
(439,296,o),
(511,252,c),
(471,258,l),
(518,373,l),
(529,318,l),
(469,361,o),
(382,387,o),
(307,387,cs),
(166,387,o),
(102,305,o),
(102,170,cs),
(102,-41,ls),
(102,-114,o),
(76,-138,o),
(15,-103,c),
(65,-45,l),
(18,-201,l)
);
},
{
closed = 1;
nodes = (
(448,-178,o),
(526,-112,o),
(526,-13,cs),
(526,92,o),
(438,152,o),
(315,152,cs),
(262,152,o),
(216,141,o),
(182,129,c),
(162,129,l),
(162,65,l),
(197,84,o),
(254,94,o),
(300,94,cs),
(377,94,o),
(440,66,o),
(440,-12,cs),
(440,-73,o),
(401,-116,o),
(333,-116,cs),
(235,-116,o),
(178,-25,o),
(178,54,c),
(164,54,l),
(164,-76,l),
(173,-76,l),
(201,-137,o),
(268,-178,o),
(347,-178,cs)
);
}
);
};
layerId = m002;
shapes = (
{
closed = 1;
nodes = (
(194,-215,o),
(241,-145,o),
(280,-35,cs),
(484,545,l),
(391,545,l),
(268,160,ls),
(259,133,o),
(257,115,o),
(252,85,c),
(254,85,l),
(252,114,o),
(248,134,o),
(241,155,cs),
(109,545,l),
(15,545,l),
(217,-12,l),
(216,7,l),
(198,-35,ls),
(161,-122,o),
(139,-139,o),
(93,-139,cs),
(68,-139,o),
(46,-131,o),
(20,-117,c),
(39,-114,l),
(-8,-201,l),
(-6,-185,l),
(14,-201,o),
(52,-215,o),
(95,-215,cs)
);
}
);
width = 499;
},
{
anchors = (
{
name = bottom;
pos = (266,0);
},
{
name = top;
pos = (266,545);
}
);
associatedMasterId = m002;
background = {
shapes = (
{
closed = 1;
nodes = (
(104,-186,o),
(87,-184,o),
(68,-178,c),
(49,-173,o),
(33,-168,o),
(20,-161,c),
(41,-60,l),
(42,-60,o),
(44,-60,o),
(45,-61,c),
(46,-61,o),
(48,-61,o),
(49,-61,c),
(63,-65,o),
(77,-66,o),
(91,-66,c),
(111,-66,o),
(128,-63,o),
(140,-57,c),
(153,-50,o),
(163,-40,o),
(171,-25,c),
(180,-10,o),
(188,10,o),
(196,37,c),
(206,73,l),
(324,73,l),
(315,1,l),
(300,-33,l),
(297,-38,o),
(294,-43,o),
(292,-47,c),
(290,-52,o),
(288,-57,o),
(286,-61,c),
(272,-94,o),
(257,-118,o),
(243,-136,c),
(228,-153,o),
(211,-166,o),
(192,-174,c),
(172,-182,o),
(148,-186,o),
(120,-186,c)
);
},
{
closed = 1;
nodes = (
(195,1,l),
(-34,545,l),
(107,545,l),
(269,158,l),
(249,158,l),
(398,545,l),
(541,545,l),
(315,1,l)
);
}
);
};
layerId = "F25B5A0C-A1E5-4414-83E0-D12FD5266CE2";
name = "28 Oct 22 12.01";
shapes = (
{
closed = 1;
nodes = (
(221,-186,o),
(266,-134,o),
(320,0,cs),
(541,545,l),
(388,545,l),
(253,144,l),
(270,144,l),
(120,545,l),
(-33,545,l),
(195,0,l),
(233,0,l),
(195,37,l),
(201,-49,o),
(144,-67,o),
(106,-67,cs),
(58,-67,o),
(17,-50,o),
(-7,-39,c),
(52,-20,l),
(13,-197,l),
(-15,-146,l),
(23,-166,o),
(79,-186,o),
(125,-186,cs)
);
}
);
width = 508;
},
{
anchors = (
{
name = bottom;
pos = (318,0);
},
{
name = top;
pos = (318,553);
}
);
background = {
shapes = (
{
closed = 1;
nodes = (
(11,-156,l),
(30,-169,o),
(51,-178,o),
(78,-178,cs),
(143,-178,o),
(170,-124,o),
(170,-55,c),
(178,-45,l),
(178,168,ls),
(178,262,o),
(220,316,o),
(322,316,cs),
(385,316,o),
(439,296,o),
(511,252,c),
(471,258,l),
(518,373,l),
(529,318,l),
(469,361,o),
(382,387,o),
(307,387,cs),
(166,387,o),
(102,305,o),
(102,170,cs),
(102,-41,ls),
(102,-114,o),
(76,-138,o),
(15,-103,c),
(65,-45,l),
(18,-201,l)
);
},
{
closed = 1;
nodes = (
(448,-178,o),
(526,-112,o),
(526,-13,cs),
(526,92,o),
(438,152,o),
(315,152,cs),
(262,152,o),
(216,141,o),
(182,129,c),
(162,129,l),
(162,65,l),
(197,84,o),
(254,94,o),
(300,94,cs),
(377,94,o),
(440,66,o),
(440,-12,cs),
(440,-73,o),
(401,-116,o),
(333,-116,cs),
(235,-116,o),
(178,-25,o),
(178,54,c),
(164,54,l),
(164,-76,l),
(173,-76,l),
(201,-137,o),
(268,-178,o),
(347,-178,cs)
);
}
);
};
layerId = m003;
shapes = (
{
closed = 1;
nodes = (
(231,-215,o),
(301,-148,o),
(348,-16,cs),
(551,553,l),
(402,553,l),
(297,238,ls),
(275,172,o),
(271,133,o),
(269,77,c),
(273,77,l),
(274,133,o),
(273,172,o),
(251,238,cs),
(147,553,l),
(-5,553,l),
(205,-43,l),
(221,37,l),
(196,-19,ls),
(172,-73,o),
(140,-99,o),
(103,-99,cs),
(62,-99,o),
(33,-81,o),
(-18,-46,c),
(45,-47,l),
(-43,-203,l),
(-60,-142,l),
(-15,-189,o),
(45,-215,o),
(108,-215,cs)
);
}
);
width = 545;
},
{
anchors = (
{
name = bottom;
pos = (266,0);
},
{
name = top;
pos = (266,545);
}
);
associatedMasterId = m003;
background = {
shapes = (
{
closed = 1;
nodes = (
(104,-186,o),
(87,-184,o),
(68,-178,c),
(49,-173,o),
(33,-168,o),
(20,-161,c),
(41,-60,l),
(42,-60,o),
(44,-60,o),
(45,-61,c),
(46,-61,o),
(48,-61,o),
(49,-61,c),
(63,-65,o),
(77,-66,o),
(91,-66,c),
(111,-66,o),
(128,-63,o),
(140,-57,c),
(153,-50,o),
(163,-40,o),
(171,-25,c),
(180,-10,o),
(188,10,o),
(196,37,c),
(206,73,l),
(324,73,l),
(315,1,l),
(300,-33,l),
(297,-38,o),
(294,-43,o),
(292,-47,c),
(290,-52,o),
(288,-57,o),
(286,-61,c),
(272,-94,o),
(257,-118,o),
(243,-136,c),
(228,-153,o),
(211,-166,o),
(192,-174,c),
(172,-182,o),
(148,-186,o),
(120,-186,c)
);
},
{
closed = 1;
nodes = (
(195,1,l),
(-34,545,l),
(107,545,l),
(269,158,l),
(249,158,l),
(398,545,l),
(541,545,l),
(315,1,l)
);
}
);
};
layerId = "6A45B977-5464-41F4-B9A8-0228DFE11798";
name = "28 Oct 22 12.01";
shapes = (
{
closed = 1;
nodes = (
(221,-186,o),
(266,-134,o),
(320,0,cs),
(541,545,l),
(388,545,l),
(253,144,l),
(270,144,l),
(120,545,l),
(-33,545,l),
(195,0,l),
(233,0,l),
(195,37,l),
(201,-49,o),
(144,-67,o),
(106,-67,cs),
(58,-67,o),
(17,-50,o),
(-7,-39,c),
(52,-20,l),
(13,-197,l),
(-15,-146,l),
(23,-166,o),
(79,-186,o),
(125,-186,cs)
);
}
);
width = 508;
},
{
anchors = (
{
name = bottom;
pos = (250,0);
},
{
name = top;
pos = (250,545);
}
);
associatedMasterId = m002;
background = {
shapes = (
{
closed = 1;
nodes = (
(11,-156,l),
(30,-169,o),
(51,-178,o),
(78,-178,cs),
(143,-178,o),
(170,-124,o),
(170,-55,c),
(178,-45,l),
(178,168,ls),
(178,262,o),
(220,316,o),
(322,316,cs),
(385,316,o),
(439,296,o),
(511,252,c),
(471,258,l),
(518,373,l),
(529,318,l),
(469,361,o),
(382,387,o),
(307,387,cs),
(166,387,o),
(102,305,o),
(102,170,cs),
(102,-41,ls),
(102,-114,o),
(76,-138,o),
(15,-103,c),
(65,-45,l),
(18,-201,l)
);
},
{
closed = 1;
nodes = (
(448,-178,o),
(526,-112,o),
(526,-13,cs),
(526,92,o),
(438,152,o),
(315,152,cs),
(262,152,o),
(216,141,o),
(182,129,c),
(162,129,l),
(162,65,l),
(197,84,o),
(254,94,o),
(300,94,cs),
(377,94,o),
(440,66,o),
(440,-12,cs),
(440,-73,o),
(401,-116,o),
(333,-116,cs),
(235,-116,o),
(178,-25,o),
(178,54,c),
(164,54,l),
(164,-76,l),
(173,-76,l),
(201,-137,o),
(268,-178,o),
(347,-178,cs)
);
}
);
};
layerId = "23BC9F99-0456-4EAE-868D-B303FD8BE745";
name = "29 Jun 23 14.35";
shapes = (
{
closed = 1;
nodes = (
(194,-215,o),
(241,-145,o),
(280,-35,cs),
(484,545,l),
(391,545,l),
(236,62,l),
(272,64,l),
(109,545,l),
(15,545,l),
(217,-12,l),
(216,7,l),
(198,-35,ls),
(161,-122,o),
(139,-139,o),
(93,-139,cs),
(68,-139,o),
(46,-131,o),
(20,-117,c),
(39,-114,l),
(-8,-201,l),
(-6,-185,l),
(14,-201,o),
(52,-215,o),
(95,-215,cs)
);
}
);
width = 499;
}
);
metricRight = v;
unicode = 121;
}
{
color = 4;
glyphname = z;
layers = (
{
background = {
shapes = (
{
pos = (-10,0);
ref = x;
}
);
};
layerId = m009;
shapes = (
{
closed = 1;
nodes = (
(415,0,l),
(415,70,l),
(63,70,l),
(88,40,l),
(415,472,l),
(415,545,l),
(39,545,l),
(39,475,l),
(372,475,l),
(346,505,l),
(20,74,l),
(20,0,l)
);
}
);
width = 442;
}
);
unicode = 122;
}
{
glyphname = braceleft;
layers = (
{
layerId = m009;
shapes = (
{
closed = 1;
nodes = (
(331,-196,l),
(241,-196,o),
(198,-161,o),
(198,-86,cs),
(198,107,ls),
(198,175,o),
(180,208,o),
(135,222,c),
(135,225,l),
(180,240,o),
(198,290,o),
(198,350,cs),
(198,530,ls),
(198,605,o),
(241,640,o),
(331,640,c),
(331,710,l),
(179,710,o),
(111,659,o),
(111,530,cs),
(111,310,ls),
(111,264,o),
(87,244,o),
(47,244,c),
(47,203,l),
(87,203,o),
(111,183,o),
(111,137,cs),
(111,-86,ls),
(111,-215,o),
(179,-266,o),
(331,-266,c)
);
}
);
width = 364;
}
);
unicode = 123;
}
{
glyphname = asciitilde;
layers = (
{
layerId = m009;
shapes = (
{
closed = 1;
nodes = (
(376,205,o),
(404,215,o),
(434,235,c),
(434,305,l),
(404,285,o),
(376,275,o),
(348,275,cs),
(280,275,o),
(234,335,o),
(162,335,cs),
(131,335,o),
(102,324,o),
(75,305,c),
(75,235,l),
(104,256,o),
(130,265,o),
(156,265,cs),
(223,265,o),
(280,205,o),
(348,205,cs)
);
}
);
width = 509;
},
{
layerId = m002;
shapes = (
{
closed = 1;
nodes = (
(376,205,o),
(404,215,o),
(434,235,c),
(434,305,l),
(404,285,o),
(376,275,o),
(348,275,cs),
(280,275,o),
(234,335,o),
(162,335,cs),
(131,335,o),
(102,324,o),
(75,305,c),
(75,235,l),
(104,256,o),
(130,265,o),
(156,265,cs),
(223,265,o),
(280,205,o),
(348,205,cs)
);
}
);
width = 509;
},
{
layerId = m003;
shapes = (
{
closed = 1;
nodes = (
(376,205,o),
(404,215,o),
(434,235,c),
(434,305,l),
(404,285,o),
(376,275,o),
(348,275,cs),
(280,275,o),
(234,335,o),
(162,335,cs),
(131,335,o),
(102,324,o),
(75,305,c),
(75,235,l),
(104,256,o),
(130,265,o),
(156,265,cs),
(223,265,o),
(280,205,o),
(348,205,cs)
);
}
);
width = 509;
}
);
metricLeft = minus;
metricRight = minus;
unicode = 126;
}
{
glyphname = sterling;
layers = (
{
background = {
shapes = (
{
pos = (16,0);
ref = Z;
}
);
};
layerId = m009;
shapes = (
{
closed = 1;
nodes = (
(490,0,l),
(490,70,l),
(127,70,l),
(127,61,l),
(188,80,o),
(212,114,o),
(212,193,cs),
(212,337,l),
(199,320,l),
(430,320,l),
(430,390,l),
(198,390,l),
(212,371,l),
(212,508,ls),
(212,596,o),
(250,632,o),
(321,632,cs),
(375,632,o),
(429,611,o),
(478,573,c),
(510,640,l),
(455,685,o),
(386,710,o),
(320,710,cs),
(210,710,o),
(125,643,o),
(125,505,cs),
(125,375,l),
(138,390,l),
(44,390,l),
(44,320,l),
(145,320,l),
(125,336,l),
(125,188,ls),
(125,103,o),
(102,70,o),
(43,70,c),
(43,0,l)
);
},
{
closed = 0;
nodes = (
(478,573,l)
);
}
);
width = 600;
}
);
unicode = 163;
}
{
glyphname = currency;
layers = (
{
layerId = m009;
shapes = (
{
closed = 1;
nodes = (
(379,181,o),
(461,263,o),
(461,364,cs),
(461,465,o),
(379,547,o),
(278,547,cs),
(176,547,o),
(94,465,o),
(94,364,cs),
(94,263,o),
(176,181,o),
(278,181,cs)
);
},
{
closed = 1;
nodes = (
(159,229,l),
(142,247,l),
(99,204,l),
(117,186,l)
);
},
{
closed = 1;
nodes = (
(158,501,l),
(116,542,l),
(98,525,l),
(140,483,l)
);
},
{
closed = 1;
nodes = (
(183,202,o),
(117,277,o),
(117,364,cs),
(117,452,o),
(183,527,o),
(277,527,cs),
(371,527,o),
(437,452,o),
(437,364,cs),
(437,277,o),
(371,202,o),
(277,202,cs)
);
},
{
closed = 1;
nodes = (
(456,203,l),
(414,245,l),
(397,226,l),
(438,185,l)
);
},
{
closed = 1;
nodes = (
(455,524,l),
(438,542,l),
(396,500,l),
(413,482,l)
);
}
);
width = 554;
},
{
layerId = m002;
shapes = (
{
closed = 1;
nodes = (
(379,158,o),
(461,240,o),
(461,341,cs),
(461,442,o),
(379,524,o),
(278,524,cs),
(176,524,o),
(94,442,o),
(94,341,cs),
(94,240,o),
(176,158,o),
(278,158,cs)
);
},
{
closed = 1;
nodes = (
(185,216,l),
(153,250,l),
(73,170,l),
(106,137,l)
);
},
{
closed = 1;
nodes = (
(183,468,l),
(106,545,l),
(73,512,l),
(151,434,l)
);
},
{
closed = 1;
nodes = (
(202,211,o),
(149,271,o),
(149,341,cs),
(149,411,o),
(202,471,o),
(277,471,cs),
(352,471,o),
(405,411,o),
(405,341,cs),
(405,271,o),
(352,211,o),
(277,211,cs)
);
},
{
closed = 1;
nodes = (
(481,170,l),
(404,247,l),
(372,213,l),
(448,137,l)
);
},
{
closed = 1;
nodes = (
(481,512,l),
(448,545,l),
(370,467,l),
(402,433,l)
);
}
);
width = 554;
},
{
layerId = m003;
shapes = (
{
closed = 1;
nodes = (
(390,113,o),
(481,203,o),
(481,315,cs),
(481,427,o),
(390,517,o),
(278,517,cs),
(165,517,o),
(74,427,o),
(74,315,cs),
(74,203,o),
(165,113,o),
(278,113,cs)
);
},
{
closed = 1;
nodes = (
(229,208,l),
(172,268,l),
(29,126,l),
(88,67,l)
);
},
{
closed = 1;
nodes = (
(226,425,l),
(89,563,l),
(30,504,l),
(169,364,l)
);
},
{
closed = 1;
nodes = (
(225,225,o),
(188,266,o),
(188,315,cs),
(188,364,o),
(225,405,o),
(277,405,cs),
(329,405,o),
(366,364,o),
(366,315,cs),
(366,266,o),
(329,225,o),
(277,225,cs)
);
},
{
closed = 1;
nodes = (
(524,127,l),
(386,264,l),
(329,204,l),
(465,68,l)
);
},
{
closed = 1;
nodes = (
(525,504,l),
(466,563,l),
(326,424,l),
(384,363,l)
);
}
);
width = 554;
}
);
metricRight = "=|";
unicode = 164;
}
{
glyphname = brokenbar;
layers = (
{
background = {
shapes = (
{
pos = (200,0);
ref = bar;
}
);
};
layerId = m009;
shapes = (
{
closed = 1;
nodes = (
(130,-205,l),
(130,176,l),
(102,176,l),
(102,-205,l)
);
},
{
closed = 1;
nodes = (
(130,396,l),
(130,750,l),
(102,750,l),
(102,396,l)
);
}
);
width = 232;
},
{
background = {
shapes = (
{
pos = (190,0);
ref = bar;
}
);
};
layerId = m002;
shapes = (
{
closed = 1;
nodes = (
(164,-205,l),
(164,176,l),
(92,176,l),
(92,-205,l)
);
},
{
closed = 1;
nodes = (
(164,396,l),
(164,750,l),
(92,750,l),
(92,396,l)
);
}
);
width = 256;
},
{
background = {
shapes = (
{
pos = (147,0);
ref = bar;
}
);
};
layerId = m003;
shapes = (
{
closed = 1;
nodes = (
(183,-205,l),
(183,176,l),
(49,176,l),
(49,-205,l)
);
},
{
closed = 1;
nodes = (
(183,396,l),
(183,750,l),
(49,750,l),
(49,396,l)
);
}
);
width = 232;
}
);
metricLeft = bar;
metricRight = bar;
unicode = 166;
}
{
glyphname = section;
layers = (
{
layerId = m009;
shapes = (
{
closed = 1;
nodes = (
(377,-12,o),
(446,63,o),
(446,140,cs),
(446,215,o),
(381,276,o),
(286,314,cs),
(200,348,o),
(164,378,o),
(164,416,cs),
(164,443,o),
(182,471,o),
(240,473,c),
(241,512,l),
(158,504,o),
(81,472,o),
(81,396,cs),
(81,336,o),
(128,289,o),
(254,238,cs),
(324,210,o),
(368,178,o),
(368,134,cs),
(368,86,o),
(315,58,o),
(249,58,cs),
(177,58,o),
(114,87,o),
(77,117,c),
(112,138,l),
(40,11,l),
(45,57,l),
(81,16,o),
(168,-12,o),
(243,-12,cs)
);
},
{
closed = 1;
nodes = (
(400,265,o),
(442,305,o),
(442,368,cs),
(442,442,o),
(386,490,o),
(290,528,cs),
(205,562,o),
(165,592,o),
(166,627,cs),
(167,660,o),
(205,694,o),
(271,694,cs),
(311,694,o),
(368,681,o),
(429,628,c),
(386,615,l),
(444,750,l),
(442,703,l),
(413,734,o),
(344,767,o),
(269,767,cs),
(161,767,o),
(81,698,o),
(81,619,cs),
(81,556,o),
(133,503,o),
(259,452,cs),
(329,424,o),
(364,403,o),
(364,358,cs),
(364,322,o),
(342,295,o),
(310,285,c),
(310,250,l)
);
}
);
width = 476;
}
);
unicode = 167;
}
{
glyphname = copyright;
layers = (
{
background = {
shapes = (
{
closed = 1;
nodes = (
(612,26,o),
(751,164,o),
(751,378,cs),
(751,566,o),
(605,710,o),
(412,710,cs),
(220,710,o),
(72,572,o),
(72,367,cs),
(72,165,o),
(215,26,o),
(412,26,cs)
);
},
{
closed = 1;
nodes = (
(234,50,o),
(102,181,o),
(102,367,cs),
(102,552,o),
(223,686,o),
(412,686,cs),
(596,686,o),
(721,551,o),
(721,375,cs),
(721,175,o),
(594,50,o),
(412,50,cs)
);
}
);
};
layerId = m009;
shapes = (
{
closed = 1;
nodes = (
(612,-10,o),
(751,136,o),
(751,360,cs),
(751,558,o),
(605,710,o),
(412,710,cs),
(220,710,o),
(72,564,o),
(72,350,cs),
(72,137,o),
(215,-10,o),
(412,-10,cs)
);
},
{
closed = 1;
nodes = (
(234,16,o),
(102,155,o),
(102,350,cs),
(102,542,o),
(223,684,o),
(412,684,cs),
(596,684,o),
(721,541,o),
(721,357,cs),
(721,149,o),
(594,16,o),
(412,16,cs)
);
},
{
closed = 1;
nodes = (
(458,156,o),
(504,173,o),
(536,200,c),
(529,179,l),
(505,223,l),
(522,220,l),
(489,197,o),
(451,182,o),
(410,182,cs),
(336,182,o),
(271,232,o),
(271,349,cs),
(271,442,o),
(330,517,o),
(414,517,cs),
(452,517,o),
(484,508,o),
(525,479,c),
(510,477,l),
(531,525,l),
(534,505,l),
(505,525,o),
(470,543,o),
(419,543,cs),
(316,543,o),
(244,466,o),
(244,348,cs),
(244,220,o),
(316,156,o),
(410,156,cs)
);
}
);
width = 823;
},
{
associatedMasterId = m009;
layerId = "F5D21E50-8E8F-4C12-8D8F-D30C578ECE98";
name = "19 Jun 23 16.17";
shapes = (
{
closed = 1;
nodes = (
(622,-10,o),
(768,136,o),
(768,360,cs),
(768,558,o),
(615,710,o),
(412,710,cs),
(210,710,o),
(55,565,o),
(55,349,cs),
(55,137,o),
(205,-10,o),
(412,-10,cs)
);
},
{
closed = 1;
nodes = (
(244,51,o),
(120,174,o),
(120,349,cs),
(120,523,o),
(234,649,o),
(412,649,cs),
(585,649,o),
(703,522,o),
(703,357,cs),
(703,168,o),
(583,51,o),
(412,51,cs)
);
},
{
closed = 1;
nodes = (
(478,133,o),
(536,157,o),
(562,193,c),
(566,135,l),
(499,262,l),
(544,246,l),
(509,216,o),
(466,195,o),
(419,195,cs),
(353,195,o),
(296,243,o),
(296,349,cs),
(296,455,o),
(361,501,o),
(422,501,cs),
(467,501,o),
(503,491,o),
(558,441,c),
(507,434,l),
(564,565,l),
(561,510,l),
(536,536,o),
(494,564,o),
(417,564,cs),
(310,564,o),
(227,482,o),
(227,348,cs),
(227,202,o),
(310,133,o),
(417,133,cs)
);
}
);
width = 823;
},
{
layerId = m002;
shapes = (
{
closed = 1;
nodes = (
(622,-10,o),
(768,136,o),
(768,360,cs),
(768,558,o),
(615,710,o),
(412,710,cs),
(210,710,o),
(55,565,o),
(55,349,cs),
(55,137,o),
(205,-10,o),
(412,-10,cs)
);
},
{
closed = 1;
nodes = (
(244,51,o),
(120,174,o),
(120,349,cs),
(120,523,o),
(234,649,o),
(412,649,cs),
(585,649,o),
(703,522,o),
(703,357,cs),
(703,168,o),
(583,51,o),
(412,51,cs)
);
},
{
closed = 1;
nodes = (
(478,133,o),
(536,157,o),
(562,193,c),
(566,135,l),
(499,262,l),
(544,246,l),
(509,216,o),
(466,195,o),
(419,195,cs),
(353,195,o),
(296,243,o),
(296,349,cs),
(296,455,o),
(361,501,o),
(422,501,cs),
(467,501,o),
(503,491,o),
(558,441,c),
(507,434,l),
(564,565,l),
(561,510,l),
(536,536,o),
(494,564,o),
(417,564,cs),
(310,564,o),
(227,482,o),
(227,348,cs),
(227,202,o),
(310,133,o),
(417,133,cs)
);
}
);
width = 823;
},
{
associatedMasterId = m002;
layerId = "89FD47B2-78F5-432B-8EB5-59E7F43840A1";
name = "19 Jun 23 16.17";
shapes = (
{
closed = 1;
nodes = (
(622,-10,o),
(768,136,o),
(768,360,cs),
(768,558,o),
(615,710,o),
(412,710,cs),
(210,710,o),
(55,565,o),
(55,349,cs),
(55,137,o),
(205,-10,o),
(412,-10,cs)
);
},
{
closed = 1;
nodes = (
(244,51,o),
(120,174,o),
(120,349,cs),
(120,523,o),
(234,649,o),
(412,649,cs),
(585,649,o),
(703,522,o),
(703,357,cs),
(703,168,o),
(583,51,o),
(412,51,cs)
);
},
{
closed = 1;
nodes = (
(478,133,o),
(536,157,o),
(562,193,c),
(566,135,l),
(499,262,l),
(544,246,l),
(509,216,o),
(466,195,o),
(419,195,cs),
(353,195,o),
(296,243,o),
(296,349,cs),
(296,455,o),
(361,501,o),
(422,501,cs),
(467,501,o),
(503,491,o),
(558,441,c),
(507,434,l),
(564,565,l),
(561,510,l),
(536,536,o),
(494,564,o),
(417,564,cs),
(310,564,o),
(227,482,o),
(227,348,cs),
(227,202,o),
(310,133,o),
(417,133,cs)
);
}
);
width = 823;
},
{
layerId = m003;
shapes = (
{
closed = 1;
nodes = (
(629,-10,o),
(779,134,o),
(779,350,cs),
(779,568,o),
(625,710,o),
(413,710,cs),
(204,710,o),
(44,572,o),
(44,350,cs),
(44,131,o),
(199,-10,o),
(413,-10,cs)
);
},
{
closed = 1;
nodes = (
(277,110,o),
(177,205,o),
(177,351,cs),
(177,491,o),
(272,590,o),
(414,590,cs),
(553,590,o),
(646,494,o),
(646,350,cs),
(646,204,o),
(549,110,o),
(413,110,cs)
);
},
{
closed = 1;
nodes = (
(467,149,o),
(511,165,o),
(542,200,c),
(540,183,l),
(490,279,l),
(507,276,l),
(481,257,o),
(461,249,o),
(430,249,cs),
(373,249,o),
(333,290,o),
(333,348,cs),
(333,409,o),
(372,448,o),
(429,448,cs),
(453,448,o),
(477,442,o),
(505,421,c),
(490,421,l),
(535,526,l),
(535,505,l),
(512,527,o),
(475,549,o),
(413,549,cs),
(307,549,o),
(221,471,o),
(221,347,cs),
(221,217,o),
(318,149,o),
(415,149,cs)
);
}
);
width = 823;
},
{
associatedMasterId = m003;
layerId = "62AD0DAF-68F3-4255-86DC-2D009C9583C2";
name = "19 Jun 23 16.17";
shapes = (
{
closed = 1;
nodes = (
(622,-10,o),
(768,136,o),
(768,360,cs),
(768,558,o),
(615,710,o),
(412,710,cs),
(210,710,o),
(55,565,o),
(55,349,cs),
(55,137,o),
(205,-10,o),
(412,-10,cs)
);
},
{
closed = 1;
nodes = (
(244,51,o),
(120,174,o),
(120,349,cs),
(120,523,o),
(234,649,o),
(412,649,cs),
(585,649,o),
(703,522,o),
(703,357,cs),
(703,168,o),
(583,51,o),
(412,51,cs)
);
},
{
closed = 1;
nodes = (
(478,133,o),
(536,157,o),
(562,193,c),
(566,135,l),
(499,262,l),
(544,246,l),
(509,216,o),
(466,195,o),
(419,195,cs),
(353,195,o),
(296,243,o),
(296,349,cs),
(296,455,o),
(361,501,o),
(422,501,cs),
(467,501,o),
(503,491,o),
(558,441,c),
(507,434,l),
(564,565,l),
(561,510,l),
(536,536,o),
(494,564,o),
(417,564,cs),
(310,564,o),
(227,482,o),
(227,348,cs),
(227,202,o),
(310,133,o),
(417,133,cs)
);
}
);
width = 823;
}
);
metricRight = "=|";
unicode = 169;
}
{
glyphname = logicalnot;
layers = (
{
layerId = m009;
shapes = (
{
closed = 1;
nodes = (
(429,300,l),
(413,310,l),
(413,220,l),
(434,220,l),
(434,324,l),
(85,324,l),
(85,300,l)
);
}
);
width = 509;
},
{
layerId = m002;
shapes = (
{
closed = 1;
nodes = (
(397,280,l),
(369,309,l),
(369,190,l),
(434,190,l),
(434,345,l),
(75,345,l),
(75,280,l)
);
}
);
width = 509;
},
{
layerId = m003;
shapes = (
{
closed = 1;
nodes = (
(371,249,l),
(343,278,l),
(343,109,l),
(462,109,l),
(462,372,l),
(41,372,l),
(41,249,l)
);
}
);
width = 509;
}
);
metricLeft = minus;
metricRight = minus;
unicode = 172;
}
{
glyphname = registered;
layers = (
{
layerId = m009;
shapes = (
{
closed = 1;
nodes = (
(498,-10,o),
(659,151,o),
(659,350,cs),
(659,548,o),
(498,710,o),
(300,710,cs),
(101,710,o),
(-60,548,o),
(-60,350,cs),
(-60,151,o),
(101,-10,o),
(300,-10,cs)
);
},
{
closed = 1;
nodes = (
(127,53,o),
(8,189,o),
(8,350,cs),
(8,511,o),
(127,647,o),
(300,647,cs),
(471,647,o),
(591,511,o),
(591,350,cs),
(591,189,o),
(471,53,o),
(300,53,cs)
);
},
{
closed = 1;
nodes = (
(214,141,l),
(214,342,l),
(202,331,l),
(295,331,ls),
(344,331,o),
(360,320,o),
(376,266,cs),
(412,141,l),
(468,141,l),
(422,297,ls),
(413,328,o),
(401,347,o),
(379,356,c),
(379,358,l),
(421,371,o),
(447,408,o),
(447,457,cs),
(447,526,o),
(392,571,o),
(302,571,cs),
(160,571,l),
(160,141,l)
);
},
{
closed = 1;
nodes = (
(214,537,l),
(202,526,l),
(302,526,ls),
(363,526,o),
(395,499,o),
(395,452,cs),
(395,406,o),
(365,374,o),
(316,374,cs),
(204,374,l),
(214,365,l)
);
}
);
width = 600;
}
);
unicode = 174;
}
{
glyphname = degree;
layers = (
{
layerId = m009;
shapes = (
{
closed = 1;
nodes = (
(179,548,o),
(228,597,o),
(228,657,cs),
(228,717,o),
(179,766,o),
(120,766,cs),
(60,766,o),
(11,717,o),
(11,657,cs),
(11,597,o),
(60,548,o),
(120,548,cs)
);
},
{
closed = 1;
nodes = (
(82,592,o),
(55,621,o),
(55,657,cs),
(55,693,o),
(82,722,o),
(120,722,cs),
(157,722,o),
(184,693,o),
(184,657,cs),
(184,621,o),
(157,592,o),
(120,592,cs)
);
}
);
width = 239;
}
);
metricRight = "=|";
unicode = 176;
}
{
glyphname = plusminus;
layers = (
{
background = {
shapes = (
{
pos = (-69,0);
ref = plus;
}
);
};
layerId = m009;
shapes = (
{
closed = 1;
nodes = (
(481,0,l),
(481,24,l),
(75,24,l),
(75,0,l)
);
},
{
closed = 1;
nodes = (
(290,156,l),
(290,537,l),
(265,537,l),
(265,156,l)
);
},
{
closed = 1;
nodes = (
(481,337,l),
(481,361,l),
(75,361,l),
(75,337,l)
);
}
);
width = 556;
},
{
background = {
shapes = (
{
pos = (-69,0);
ref = plus;
}
);
};
layerId = m002;
shapes = (
{
closed = 1;
nodes = (
(481,0,l),
(481,60,l),
(75,60,l),
(75,0,l)
);
},
{
closed = 1;
nodes = (
(313,150,l),
(313,545,l),
(243,545,l),
(243,150,l)
);
},
{
closed = 1;
nodes = (
(481,317,l),
(481,382,l),
(75,382,l),
(75,317,l)
);
}
);
width = 556;
},
{
background = {
shapes = (
{
pos = (-69,0);
ref = plus;
}
);
};
layerId = m003;
shapes = (
{
closed = 1;
nodes = (
(481,0,l),
(481,107,l),
(75,107,l),
(75,0,l)
);
},
{
closed = 1;
nodes = (
(333,141,l),
(333,553,l),
(223,553,l),
(223,141,l)
);
},
{
closed = 1;
nodes = (
(481,297,l),
(481,402,l),
(75,402,l),
(75,297,l)
);
}
);
width = 556;
}
);
metricLeft = minus;
metricRight = minus;
unicode = 177;
}
{
glyphname = paragraph;
layers = (
{
layerId = m009;
shapes = (
{
closed = 1;
nodes = (
(310,-170,l),
(310,652,l),
(300,640,l),
(391,640,l),
(380,651,l),
(380,-170,l),
(450,-170,l),
(450,650,l),
(440,640,l),
(499,640,l),
(499,700,l),
(240,700,l),
(212,700,ls),
(111,700,o),
(35,618,o),
(35,518,cs),
(35,417,o),
(111,335,o),
(212,335,cs),
(265,335,l),
(240,360,l),
(240,-170,l)
);
}
);
width = 550;
}
);
unicode = 182;
}
{
glyphname = AE;
layers = (
{
anchors = (
{
name = bottom;
pos = (515,0);
},
{
name = top;
pos = (515,700);
}
);
layerId = m009;
shapes = (
{
closed = 1;
nodes = (
(67,0,l),
(380,700,l),
(303,700,l),
(-25,0,l)
);
},
{
closed = 1;
nodes = (
(422,187,l),
(422,262,l),
(145,262,l),
(125,187,l)
);
},
{
pos = (269,0);
ref = E;
}
);
width = 779;
},
{
anchors = (
{
name = bottom;
pos = (515,0);
},
{
name = top;
pos = (515,700);
}
);
layerId = m002;
shapes = (
{
closed = 1;
nodes = (
(67,0,l),
(380,700,l),
(303,700,l),
(-25,0,l)
);
},
{
closed = 1;
nodes = (
(422,187,l),
(422,262,l),
(145,262,l),
(125,187,l)
);
},
{
pos = (269,0);
ref = E;
}
);
width = 823;
},
{
anchors = (
{
name = bottom;
pos = (515,0);
},
{
name = top;
pos = (515,700);
}
);
layerId = m003;
shapes = (
{
closed = 1;
nodes = (
(67,0,l),
(380,700,l),
(303,700,l),
(-25,0,l)
);
},
{
closed = 1;
nodes = (
(422,187,l),
(422,262,l),
(145,262,l),
(125,187,l)
);
},
{
pos = (269,0);
ref = E;
}
);
width = 822;
}
);
metricRight = E;
unicode = 198;
}
{
color = 4;
glyphname = Thorn;
layers = (
{
layerId = m009;
shapes = (
{
closed = 1;
nodes = (
(131,0,l),
(131,157,l),
(122,147,l),
(297,147,ls),
(437,147,o),
(495,234,o),
(495,339,cs),
(495,461,o),
(424,531,o),
(304,531,cs),
(118,531,l),
(131,518,l),
(131,700,l),
(102,700,l),
(102,0,l)
);
},
{
closed = 1;
nodes = (
(131,513,l),
(122,505,l),
(308,505,ls),
(402,505,o),
(465,452,o),
(465,338,cs),
(465,218,o),
(391,173,o),
(289,173,cs),
(123,173,l),
(131,157,l)
);
}
);
width = 558;
},
{
layerId = m002;
shapes = (
{
closed = 1;
nodes = (
(179,0,l),
(179,152,l),
(164,135,l),
(330,135,ls),
(469,135,o),
(540,230,o),
(540,339,cs),
(540,482,o),
(450,545,o),
(329,545,cs),
(157,545,l),
(179,523,l),
(179,700,l),
(92,700,l),
(92,0,l)
);
},
{
closed = 1;
nodes = (
(179,485,l),
(160,467,l),
(327,467,ls),
(421,467,o),
(454,416,o),
(454,348,cs),
(454,254,o),
(406,213,o),
(308,213,cs),
(162,213,l),
(179,185,l)
);
}
);
width = 575;
},
{
layerId = m003;
shapes = (
{
closed = 1;
nodes = (
(197,0,l),
(197,143,l),
(182,126,l),
(318,126,ls),
(458,126,o),
(546,218,o),
(546,344,cs),
(546,464,o),
(464,559,o),
(313,559,cs),
(174,559,l),
(197,536,l),
(197,700,l),
(49,700,l),
(49,0,l)
);
},
{
closed = 1;
nodes = (
(197,452,l),
(178,434,l),
(303,434,ls),
(358,434,o),
(397,405,o),
(397,344,cs),
(397,287,o),
(364,251,o),
(300,251,cs),
(180,251,l),
(197,223,l)
);
}
);
width = 540;
}
);
metricLeft = H;
unicode = 222;
}
{
color = 4;
glyphname = germandbls;
layers = (
{
layerId = m009;
shapes = (
{
closed = 1;
nodes = (
(122,-205,l),
(122,561,ls),
(122,661,o),
(168,734,o),
(265,734,cs),
(350,734,o),
(404,679,o),
(409,553,c),
(412,560,l),
(325,561,o),
(273,517,o),
(273,455,cs),
(273,323,o),
(504,327,o),
(504,161,cs),
(504,93,o),
(465,16,o),
(355,16,cs),
(318,16,o),
(259,25,o),
(189,88,c),
(256,129,l),
(190,22,l),
(171,69,l),
(236,7,o),
(297,-10,o),
(353,-10,cs),
(465,-10,o),
(532,57,o),
(532,157,cs),
(532,344,o),
(299,341,o),
(299,457,cs),
(299,512,o),
(352,537,o),
(417,537,cs),
(421,537,ls),
(430,537,o),
(436,543,o),
(435,558,c),
(430,673,o),
(380,760,o),
(266,760,cs),
(166,760,o),
(95,693,o),
(95,565,cs),
(95,-205,l)
);
}
);
width = 570;
},
{
layerId = m002;
shapes = (
{
closed = 1;
nodes = (
(151,-205,l),
(151,571,ls),
(151,647,o),
(195,684,o),
(267,684,cs),
(333,684,o),
(385,645,o),
(386,575,c),
(402,601,l),
(299,607,o),
(236,547,o),
(236,474,cs),
(236,299,o),
(475,328,o),
(475,171,cs),
(475,105,o),
(434,66,o),
(367,66,cs),
(328,66,o),
(270,86,o),
(211,130,c),
(247,129,l),
(187,22,l),
(171,59,l),
(239,11,o),
(306,-10,o),
(367,-10,cs),
(493,-10,o),
(562,68,o),
(562,170,cs),
(562,376,o),
(315,366,o),
(315,476,cs),
(315,523,o),
(360,545,o),
(417,545,cs),
(449,545,ls),
(461,545,o),
(467,551,o),
(466,563,cs),
(457,677,o),
(386,760,o),
(263,760,cs),
(140,760,o),
(66,686,o),
(66,565,cs),
(66,-205,l)
);
}
);
width = 570;
},
{
layerId = m003;
shapes = (
{
closed = 1;
nodes = (
(212,-205,l),
(212,553,ls),
(212,622,o),
(254,637,o),
(300,637,cs),
(358,637,o),
(391,613,o),
(398,574,c),
(411,616,l),
(345,608,o),
(272,553,o),
(272,449,cs),
(272,274,o),
(481,282,o),
(481,178,cs),
(481,143,o),
(458,115,o),
(411,115,cs),
(378,115,o),
(338,129,o),
(298,155,c),
(312,158,l),
(242,27,l),
(237,42,l),
(296,8,o),
(352,-10,o),
(415,-10,cs),
(542,-10,o),
(634,63,o),
(634,186,cs),
(634,381,o),
(403,393,o),
(403,483,cs),
(403,517,o),
(435,553,o),
(508,553,cs),
(511,553,ls),
(525,553,o),
(530,559,o),
(530,576,cs),
(530,640,o),
(461,760,o),
(293,760,cs),
(161,760,o),
(66,686,o),
(66,555,cs),
(66,-205,l)
);
}
);
width = 642;
},
{
associatedMasterId = m003;
layerId = "CEC10688-0B7D-4BD4-9B84-3FBBB33976CD";
name = "5 Jul 23 15.34";
shapes = (
{
closed = 1;
nodes = (
(212,-205,l),
(212,553,ls),
(212,635,o),
(262,653,o),
(306,653,cs),
(348,653,o),
(382,627,o),
(398,590,c),
(451,623,l),
(333,629,o),
(253,569,o),
(253,471,cs),
(253,299,o),
(494,298,o),
(494,171,cs),
(494,147,o),
(477,108,o),
(411,108,cs),
(365,108,o),
(298,129,o),
(232,172,c),
(326,180,l),
(235,0,l),
(186,59,l),
(264,11,o),
(341,-10,o),
(411,-10,cs),
(555,-10,o),
(634,68,o),
(634,170,cs),
(634,386,o),
(375,387,o),
(375,486,cs),
(375,524,o),
(424,553,o),
(498,553,cs),
(516,553,ls),
(532,553,o),
(536,562,o),
(535,572,cs),
(525,675,o),
(444,760,o),
(292,760,cs),
(151,760,o),
(66,686,o),
(66,555,cs),
(66,-205,l)
);
}
);
width = 642;
}
);
unicode = 223;
}
{
color = 4;
glyphname = ae;
layers = (
{
layerId = m009;
shapes = (
{
closed = 1;
nodes = (
(265,-10,o),
(351,32,o),
(376,194,c),
(364,182,l),
(391,60,o),
(477,-10,o),
(585,-10,cs),
(663,-10,o),
(720,26,o),
(752,62,c),
(757,36,l),
(716,87,l),
(737,81,l),
(700,41,o),
(648,15,o),
(585,15,cs),
(448,15,o),
(373,137,o),
(379,282,c),
(376,277,l),
(776,277,l),
(759,259,l),
(768,461,o),
(687,547,o),
(573,547,cs),
(477,547,o),
(404,486,o),
(372,388,c),
(381,386,l),
(370,493,o),
(303,547,o),
(210,547,cs),
(162,547,o),
(107,534,o),
(50,494,c),
(53,507,l),
(74,471,l),
(59,471,l),
(115,511,o),
(163,522,o),
(207,522,cs),
(298,522,o),
(354,475,o),
(355,364,cs),
(356,265,ls),
(358,101,o),
(290,17,o),
(195,17,cs),
(112,17,o),
(68,80,o),
(68,154,cs),
(68,247,o),
(137,292,o),
(222,292,cs),
(277,292,o),
(324,273,o),
(364,251,c),
(364,275,l),
(328,296,o),
(278,315,o),
(219,315,cs),
(118,315,o),
(40,259,o),
(40,153,cs),
(40,67,o),
(93,-10,o),
(192,-10,cs)
);
},
{
closed = 1;
nodes = (
(389,467,o),
(484,522,o),
(570,522,cs),
(687,522,o),
(739,419,o),
(731,290,c),
(742,300,l),
(377,300,l),
(380,289,l)
);
}
);
width = 799;
},
{
layerId = m002;
shapes = (
{
closed = 1;
nodes = (
(307,-10,o),
(398,34,o),
(423,173,c),
(400,170,l),
(432,54,o),
(521,-10,o),
(639,-10,cs),
(722,-10,o),
(784,18,o),
(836,82,c),
(826,41,l),
(765,137,l),
(795,143,l),
(751,87,o),
(703,63,o),
(643,63,cs),
(532,63,o),
(462,146,o),
(462,257,c),
(449,252,l),
(874,252,l),
(831,205,l),
(855,446,o),
(769,555,o),
(620,555,cs),
(524,555,o),
(453,497,o),
(415,416,c),
(434,416,l),
(411,504,o),
(346,555,o),
(247,555,cs),
(180,555,o),
(120,538,o),
(55,500,c),
(63,527,l),
(108,428,l),
(87,431,l),
(131,460,o),
(183,479,o),
(242,479,cs),
(329,479,o),
(376,434,o),
(376,336,cs),
(376,233,l),
(370,120,o),
(308,63,o),
(232,63,cs),
(175,63,o),
(131,94,o),
(131,156,cs),
(131,228,o),
(191,255,o),
(258,255,cs),
(306,255,o),
(352,242,o),
(389,224,c),
(402,286,l),
(349,312,o),
(294,324,o),
(244,324,cs),
(130,324,o),
(44,260,o),
(44,153,cs),
(44,53,o),
(114,-10,o),
(222,-10,cs)
);
},
{
closed = 1;
nodes = (
(462,416,o),
(523,481,o),
(617,481,cs),
(707,481,o),
(761,417,o),
(753,287,c),
(778,320,l),
(457,320,l),
(464,284,l)
);
}
);
width = 883;
},
{
layerId = m003;
shapes = (
{
closed = 1;
nodes = (
(338,-10,o),
(428,64,o),
(445,181,c),
(402,165,l),
(438,62,o),
(524,-10,o),
(652,-10,cs),
(734,-10,o),
(808,20,o),
(857,73,c),
(852,54,l),
(780,163,l),
(794,164,l),
(746,123,o),
(705,111,o),
(662,111,cs),
(567,111,o),
(504,172,o),
(511,249,c),
(490,232,l),
(885,232,l),
(865,213,l),
(890,447,o),
(783,563,o),
(638,563,cs),
(545,563,o),
(465,515,o),
(421,435,c),
(462,435,l),
(436,522,o),
(368,563,o),
(259,563,cs),
(189,563,o),
(106,545,o),
(24,500,c),
(28,521,l),
(83,389,l),
(67,392,l),
(133,429,o),
(186,445,o),
(240,445,cs),
(325,445,o),
(369,406,o),
(369,338,cs),
(369,239,ls),
(369,155,o),
(312,95,o),
(242,95,cs),
(195,95,o),
(165,123,o),
(165,167,cs),
(165,220,o),
(208,242,o),
(265,242,cs),
(300,242,o),
(337,234,o),
(406,214,c),
(416,299,l),
(349,322,o),
(305,336,o),
(245,336,cs),
(110,336,o),
(26,265,o),
(26,159,cs),
(26,52,o),
(112,-10,o),
(220,-10,cs)
);
},
{
closed = 1;
nodes = (
(518,414,o),
(573,445,o),
(629,445,cs),
(688,445,o),
(735,411,o),
(733,326,c),
(750,335,l),
(492,335,l),
(510,325,l)
);
}
);
width = 892;
}
);
metricLeft = a;
metricRight = e;
unicode = 230;
}
{
color = 4;
glyphname = eth;
layers = (
{
anchors = (
{
name = _center;
pos = (379,530);
}
);
layerId = m009;
shapes = (
{
closed = 1;
nodes = (
(387,-10,o),
(484,82,o),
(484,323,cs),
(484,543,o),
(408,657,o),
(274,705,c),
(287,711,l),
(271,669,l),
(263,683,l),
(419,630,o),
(466,476,o),
(456,294,c),
(455,294,l),
(422,392,o),
(351,441,o),
(261,441,cs),
(150,441,o),
(64,353,o),
(64,219,cs),
(64,96,o),
(137,-10,o),
(264,-10,cs)
);
},
{
closed = 1;
nodes = (
(158,16,o),
(94,104,o),
(94,215,cs),
(94,333,o),
(158,415,o),
(262,415,cs),
(360,415,o),
(441,343,o),
(441,221,cs),
(441,110,o),
(375,16,o),
(262,16,cs)
);
},
{
closed = 1;
nodes = (
(297,501,l),
(500,649,l),
(497,636,l),
(475,666,l),
(487,667,l),
(281,516,l),
(289,535,l),
(313,497,l)
);
}
);
width = 562;
},
{
anchors = (
{
name = _center;
pos = (379,530);
}
);
layerId = m002;
shapes = (
{
closed = 1;
nodes = (
(426,-10,o),
(515,115,o),
(515,322,cs),
(515,555,o),
(401,674,o),
(259,703,c),
(276,714,l),
(240,615,l),
(230,640,l),
(392,603,o),
(440,464,o),
(434,320,c),
(441,334,l),
(396,423,o),
(325,451,o),
(256,451,cs),
(144,451,o),
(42,370,o),
(42,225,cs),
(42,85,o),
(139,-10,o),
(269,-10,cs)
);
},
{
closed = 1;
nodes = (
(178,68,o),
(125,136,o),
(125,229,cs),
(125,321,o),
(174,381,o),
(266,381,cs),
(346,381,o),
(412,328,o),
(412,220,cs),
(412,137,o),
(356,68,o),
(269,68,cs)
);
},
{
closed = 1;
nodes = (
(279,478,l),
(529,661,l),
(520,632,l),
(459,718,l),
(495,717,l),
(235,525,l),
(243,547,l),
(290,475,l)
);
}
);
width = 562;
},
{
anchors = (
{
name = _center;
pos = (383,530);
}
);
layerId = m003;
shapes = (
{
closed = 1;
nodes = (
(422,-10,o),
(541,106,o),
(541,334,cs),
(541,576,o),
(407,670,o),
(255,703,c),
(271,718,l),
(214,569,l),
(210,599,l),
(321,569,o),
(406,503,o),
(406,389,c),
(404,388,l),
(363,454,o),
(294,474,o),
(241,474,cs),
(136,474,o),
(24,397,o),
(24,241,cs),
(24,85,o),
(136,-10,o),
(272,-10,cs)
);
},
{
closed = 1;
nodes = (
(202,114,o),
(160,167,o),
(160,237,cs),
(160,305,o),
(199,350,o),
(268,350,cs),
(331,350,o),
(384,312,o),
(384,237,cs),
(384,167,o),
(339,114,o),
(271,114,cs)
);
},
{
closed = 1;
nodes = (
(277,474,l),
(509,646,l),
(506,627,l),
(448,708,l),
(469,712,l),
(233,538,l),
(232,553,l),
(285,471,l)
);
}
);
width = 561;
}
);
metricLeft = "=|six";
metricRight = "=|six";
unicode = 240;
}
{
glyphname = divide;
layers = (
{
layerId = m009;
shapes = (
{
ref = minus;
},
{
closed = 1;
nodes = (
(364,435,o),
(377,449,o),
(377,465,cs),
(377,482,o),
(364,495,o),
(347,495,cs),
(331,495,o),
(317,482,o),
(317,465,cs),
(317,449,o),
(331,435,o),
(347,435,cs)
);
},
{
closed = 1;
nodes = (
(364,50,o),
(377,64,o),
(377,80,cs),
(377,97,o),
(364,110,o),
(347,110,cs),
(331,110,o),
(317,97,o),
(317,80,cs),
(317,64,o),
(331,50,o),
(347,50,cs)
);
}
);
width = 695;
},
{
layerId = m002;
shapes = (
{
ref = minus;
},
{
closed = 1;
nodes = (
(380,435,o),
(407,462,o),
(407,495,cs),
(407,528,o),
(380,555,o),
(347,555,cs),
(314,555,o),
(287,528,o),
(287,495,cs),
(287,462,o),
(314,435,o),
(347,435,cs)
);
},
{
closed = 1;
nodes = (
(380,-10,o),
(407,17,o),
(407,50,cs),
(407,83,o),
(380,110,o),
(347,110,cs),
(314,110,o),
(287,83,o),
(287,50,cs),
(287,17,o),
(314,-10,o),
(347,-10,cs)
);
}
);
width = 695;
},
{
layerId = m003;
shapes = (
{
ref = minus;
},
{
closed = 1;
nodes = (
(394,391,o),
(433,430,o),
(433,477,cs),
(433,524,o),
(394,563,o),
(347,563,cs),
(300,563,o),
(261,524,o),
(261,477,cs),
(261,430,o),
(300,391,o),
(347,391,cs)
);
},
{
closed = 1;
nodes = (
(394,-10,o),
(433,29,o),
(433,76,cs),
(433,123,o),
(394,162,o),
(347,162,cs),
(300,162,o),
(261,123,o),
(261,76,cs),
(261,29,o),
(300,-10,o),
(347,-10,cs)
);
}
);
width = 695;
}
);
metricLeft = plus;
metricRight = plus;
unicode = 247;
}
{
glyphname = thorn;
layers = (
{
layerId = m009;
shapes = (
{
closed = 1;
nodes = (
(177,-205,l),
(177,95,l),
(166,102,l),
(166,394,l),
(177,449,l),
(177,750,l),
(92,750,l),
(92,-205,l)
);
},
{
pos = (14,0);
ref = _perut_b;
}
);
width = 623;
},
{
layerId = m002;
shapes = (
{
closed = 1;
nodes = (
(177,-205,l),
(177,95,l),
(166,102,l),
(166,394,l),
(177,449,l),
(177,750,l),
(92,750,l),
(92,-205,l)
);
},
{
pos = (14,0);
ref = _perut_b;
}
);
width = 623;
},
{
layerId = m003;
shapes = (
{
closed = 1;
nodes = (
(177,-205,l),
(177,95,l),
(166,102,l),
(166,394,l),
(177,449,l),
(177,750,l),
(92,750,l),
(92,-205,l)
);
},
{
pos = (14,0);
ref = _perut_b;
}
);
width = 623;
}
);
metricLeft = n;
metricRight = o;
unicode = 254;
}
{
glyphname = idotless;
layers = (
{
anchors = (
{
name = bottom;
pos = (121,0);
},
{
name = ogonek;
pos = (134,0);
},
{
name = top;
pos = (121,525);
}
);
layerId = m009;
shapes = (
{
closed = 1;
nodes = (
(134,0,l),
(134,525,l),
(107,525,l),
(107,0,l)
);
}
);
width = 241;
},
{
anchors = (
{
name = bottom;
pos = (133,0);
},
{
name = ogonek;
pos = (175,0);
},
{
name = top;
pos = (133,545);
}
);
layerId = m002;
shapes = (
{
closed = 1;
nodes = (
(175,0,l),
(175,545,l),
(90,545,l),
(90,0,l)
);
}
);
width = 265;
},
{
anchors = (
{
name = bottom;
pos = (131,0);
},
{
name = ogonek;
pos = (204,0);
},
{
name = top;
pos = (131,565);
}
);
layerId = m003;
shapes = (
{
closed = 1;
nodes = (
(204,0,l),
(204,565,l),
(58,565,l),
(58,0,l)
);
}
);
width = 262;
}
);
unicode = 305;
}
{
glyphname = oe;
kernLeft = o;
kernRight = e;
layers = (
{
layerId = m002;
shapes = (
{
closed = 1;
nodes = (
(396,-10,o),
(477,33,o),
(511,114,c),
(501,116,l),
(545,31,o),
(624,-10,o),
(712,-10,cs),
(840,-10,o),
(918,75,o),
(931,177,c),
(945,153,l),
(829,159,l),
(848,177,l),
(835,90,o),
(771,66,o),
(710,66,cs),
(599,66,o),
(542,146,o),
(542,257,c),
(529,250,l),
(954,250,l),
(932,227,l),
(959,439,o),
(855,555,o),
(709,555,cs),
(611,555,o),
(536,502,o),
(496,413,c),
(508,431,l),
(474,510,o),
(398,555,o),
(302,555,cs),
(158,555,o),
(47,451,o),
(47,273,cs),
(47,93,o),
(158,-10,o),
(302,-10,cs)
);
},
{
closed = 1;
nodes = (
(215,66,o),
(134,121,o),
(134,273,cs),
(134,427,o),
(215,479,o),
(302,479,cs),
(389,479,o),
(468,427,o),
(468,273,cs),
(468,119,o),
(391,66,o),
(302,66,cs)
);
},
{
closed = 1;
nodes = (
(542,416,o),
(608,481,o),
(705,481,cs),
(799,481,o),
(858,421,o),
(854,287,c),
(874,318,l),
(537,318,l),
(544,284,l)
);
}
);
width = 984;
}
);
metricLeft = o;
metricRight = e;
unicode = 339;
}
{
color = 4;
glyphname = Schwa;
layers = (
{
layerId = m009;
shapes = (
{
closed = 1;
nodes = (
(515,-10,o),
(622,126,o),
(622,347,cs),
(622,577,o),
(506,710,o),
(338,710,cs),
(268,710,o),
(187,687,o),
(128,632,c),
(130,660,l),
(161,612,l),
(141,612,l),
(199,660,o),
(259,684,o),
(331,684,cs),
(500,684,o),
(591,552,o),
(591,337,cs),
(591,328,ls),
(591,168,o),
(507,16,o),
(337,16,cs),
(213,16,o),
(88,90,o),
(103,325,c),
(92,316,l),
(600,316,l),
(600,342,l),
(63,342,l),
(77,353,l),
(51,117,o),
(160,-10,o),
(333,-10,cs)
);
}
);
width = 705;
},
{
layerId = m002;
shapes = (
{
closed = 1;
nodes = (
(515,-10,o),
(645,116,o),
(645,351,cs),
(645,583,o),
(518,710,o),
(335,710,cs),
(239,710,o),
(158,675,o),
(100,626,c),
(104,653,l),
(163,561,l),
(135,560,l),
(184,602,o),
(246,632,o),
(327,632,cs),
(462,632,o),
(561,546,o),
(555,350,cs),
(554,319,ls),
(548,145,o),
(454,68,o),
(336,68,cs),
(222,68,o),
(114,140,o),
(129,316,c),
(118,296,l),
(575,296,l),
(575,369,l),
(-2,369,l),
(49,410,l),
(0,137,o),
(132,-10,o),
(331,-10,cs)
);
}
);
width = 695;
},
{
layerId = m003;
shapes = (
{
closed = 1;
nodes = (
(561,-10,o),
(707,125,o),
(707,353,cs),
(707,575,o),
(569,710,o),
(362,710,cs),
(273,710,o),
(186,685,o),
(104,625,c),
(105,658,l),
(187,511,l),
(171,513,l),
(235,555,o),
(290,572,o),
(351,572,cs),
(478,572,o),
(548,500,o),
(548,371,cs),
(548,308,ls),
(548,201,o),
(476,128,o),
(361,128,cs),
(249,128,o),
(180,199,o),
(200,297,c),
(175,267,l),
(563,267,l),
(563,399,l),
(27,399,l),
(51,410,l),
(1,148,o),
(141,-10,o),
(359,-10,cs)
);
}
);
width = 732;
}
);
metricRight = O;
unicode = 399;
}
{
glyphname = florin;
kernLeft = florin;
kernRight = florin;
layers = (
{
layerId = m002;
shapes = (
{
closed = 1;
nodes = (
(334,470,l),
(334,545,l),
(53,545,l),
(53,470,l)
);
},
{
alignment = 1;
ref = integral;
}
);
width = 373;
}
);
unicode = 402;
}
{
glyphname = jdotless;
layers = (
{
anchors = (
{
name = bottom;
pos = (129,-250);
},
{
name = top;
pos = (136,545);
}
);
layerId = m009;
shapes = (
{
closed = 1;
nodes = (
(122,-215,o),
(177,-175,o),
(177,-78,cs),
(177,545,l),
(92,545,l),
(92,-82,ls),
(92,-123,o),
(73,-139,o),
(44,-139,cs),
(25,-139,o),
(3,-131,o),
(-23,-117,c),
(-4,-114,l),
(-49,-201,l),
(-49,-185,l),
(-29,-201,o),
(13,-215,o),
(52,-215,cs)
);
}
);
width = 257;
}
);
unicode = 567;
}
{
glyphname = schwa;
layers = (
{
layerId = m009;
shapes = (
{
closed = 1;
nodes = (
(434,-10,o),
(502,113,o),
(502,265,cs),
(502,421,o),
(431,547,o),
(277,547,cs),
(227,547,o),
(170,534,o),
(113,494,c),
(116,507,l),
(137,471,l),
(122,471,l),
(174,509,o),
(226,522,o),
(274,522,cs),
(427,522,o),
(474,386,o),
(474,266,c),
(488,271,l),
(47,271,l),
(66,290,l),
(56,126,o),
(121,-10,o),
(281,-10,cs)
);
},
{
closed = 1;
nodes = (
(172,16,o),
(93,91,o),
(93,260,c),
(85,248,l),
(489,248,l),
(473,258,l),
(471,111,o),
(408,16,o),
(283,16,cs)
);
}
);
width = 585;
},
{
layerId = m002;
shapes = (
{
closed = 1;
nodes = (
(439,-10,o),
(526,113,o),
(526,267,cs),
(526,450,o),
(417,555,o),
(272,555,cs),
(204,555,o),
(145,538,o),
(80,500,c),
(88,527,l),
(133,428,l),
(112,431,l),
(156,460,o),
(208,479,o),
(266,479,cs),
(373,479,o),
(443,396,o),
(443,288,c),
(466,293,l),
(-7,293,l),
(34,340,l),
(11,106,o),
(120,-10,o),
(273,-10,cs)
);
},
{
closed = 1;
nodes = (
(185,68,o),
(116,130,o),
(117,258,c),
(89,225,l),
(457,225,l),
(441,261,l),
(443,129,o),
(372,68,o),
(275,68,cs)
);
}
);
width = 571;
},
{
background = {
anchors = (
{
name = bottom;
pos = (331,8);
},
{
name = ogonek;
pos = (143,494);
},
{
name = top;
pos = (289,553);
}
);
shapes = (
{
closed = 1;
nodes = (
(223,563,o),
(144,529,o),
(95,465,c),
(101,516,l),
(206,357,l),
(133,353,l),
(198,423,o),
(248,442,o),
(302,442,cs),
(397,442,o),
(460,381,o),
(453,304,c),
(474,321,l),
(55,321,l),
(99,340,l),
(75,100,o),
(180,-10,o),
(335,-10,cs),
(487,-10,o),
(595,103,o),
(595,276,cs),
(595,453,o),
(482,563,o),
(315,563,cs)
);
},
{
closed = 1;
nodes = (
(446,139,o),
(390,108,o),
(337,108,cs),
(275,108,o),
(229,142,o),
(231,227,c),
(214,211,l),
(472,211,l),
(454,228,l)
);
}
);
};
layerId = m003;
shapes = (
{
closed = 1;
nodes = (
(463,-10,o),
(594,82,o),
(594,281,cs),
(594,462,o),
(485,563,o),
(310,563,cs),
(241,563,o),
(157,547,o),
(76,500,c),
(80,521,l),
(135,389,l),
(119,392,l),
(187,431,o),
(242,445,o),
(294,445,cs),
(378,445,o),
(451,409,o),
(440,279,c),
(460,321,l),
(7,321,l),
(37,340,l),
(10,145,o),
(103,-10,o),
(306,-10,cs)
);
},
{
closed = 1;
nodes = (
(231,110,o),
(168,163,o),
(188,250,c),
(153,211,l),
(451,211,l),
(439,250,l),
(446,165,o),
(393,110,o),
(310,110,cs)
);
}
);
width = 623;
}
);
metricRight = o;
unicode = 601;
}
{
glyphname = jdotlessstroke;
kernLeft = j;
kernRight = g;
layers = (
{
layerId = m002;
shapes = (
{
ref = jdotless;
},
{
closed = 1;
nodes = (
(210,198,l),
(210,264,l),
(2,264,l),
(2,198,l)
);
}
);
width = 244;
}
);
unicode = 607;
}
{
glyphname = wsuperior;
layers = (
{
anchors = (
{
name = bottom;
pos = (244,357);
},
{
name = top;
pos = (244,700);
}
);
background = {
shapes = (
{
pos = (9,0);
ref = v;
}
);
};
layerId = m002;
shapes = (
{
closed = 1;
nodes = (
(179,357,l),
(233,603,ls),
(240,635,o),
(241,652,o),
(241,662,c),
(241,662,l),
(241,650,o),
(242,636,o),
(249,606,cs),
(308,357,l),
(378,357,l),
(471,700,l),
(415,700,l),
(349,440,ls),
(343,417,o),
(341,405,o),
(341,384,c),
(343,384,l),
(343,405,o),
(341,415,o),
(334,445,cs),
(274,700,l),
(211,700,l),
(152,440,ls),
(146,412,o),
(146,407,o),
(144,386,c),
(145,386,l),
(146,402,o),
(145,415,o),
(139,439,cs),
(74,700,l),
(17,700,l),
(110,357,l)
);
}
);
userData = {
RMXScaler = {
height = 63;
verticalShift = 357;
weight = -27;
width = 62;
};
};
width = 488;
},
{
anchors = (
{
name = ytail;
pos = (247,0);
}
);
associatedMasterId = m002;
background = {
shapes = (
{
pos = (13,0);
ref = v;
}
);
};
layerId = "A6EF8466-A5DF-4476-B0D7-781E5FD3A627";
name = "24 Apr 23 14.52";
shapes = (
{
closed = 1;
nodes = (
(279,0,l),
(403,522,l),
(373,510,l),
(495,0,l),
(604,0,l),
(748,545,l),
(654,545,l),
(534,38,l),
(558,45,l),
(441,545,l),
(339,545,l),
(225,52,l),
(241,54,l),
(127,545,l),
(33,545,l),
(172,0,l)
);
}
);
width = 781;
},
{
anchors = (
{
name = bottom;
pos = (388,0);
},
{
name = top;
pos = (388,545);
}
);
associatedMasterId = m002;
background = {
shapes = (
{
pos = (14,0);
ref = v;
}
);
};
layerId = "23C9D163-4205-4234-8137-C910B7E44DBD";
name = "29 Jun 23 15.28";
shapes = (
{
closed = 1;
nodes = (
(281,0,l),
(397,515,l),
(366,515,l),
(492,0,l),
(603,0,l),
(752,545,l),
(665,545,l),
(541,62,l),
(551,64,l),
(435,545,l),
(335,545,l),
(223,62,l),
(235,64,l),
(112,545,l),
(23,545,l),
(172,0,l)
);
}
);
width = 775;
}
);
subCategory = "";
unicode = 695;
userData = {
RMXScaler = {
source = w;
};
};
}
{
glyphname = ysuperior;
layers = (
{
anchors = (
{
name = bottom;
pos = (153,357);
},
{
name = top;
pos = (158,700);
}
);
background = {
shapes = (
{
closed = 1;
nodes = (
(11,-156,l),
(30,-169,o),
(51,-178,o),
(78,-178,cs),
(143,-178,o),
(170,-124,o),
(170,-55,c),
(178,-45,l),
(178,168,ls),
(178,262,o),
(220,316,o),
(322,316,cs),
(385,316,o),
(439,296,o),
(511,252,c),
(471,258,l),
(518,373,l),
(529,318,l),
(469,361,o),
(382,387,o),
(307,387,cs),
(166,387,o),
(102,305,o),
(102,170,cs),
(102,-41,ls),
(102,-114,o),
(76,-138,o),
(15,-103,c),
(65,-45,l),
(18,-201,l)
);
},
{
closed = 1;
nodes = (
(448,-178,o),
(526,-112,o),
(526,-13,cs),
(526,92,o),
(438,152,o),
(315,152,cs),
(262,152,o),
(216,141,o),
(182,129,c),
(162,129,l),
(162,65,l),
(197,84,o),
(254,94,o),
(300,94,cs),
(377,94,o),
(440,66,o),
(440,-12,cs),
(440,-73,o),
(401,-116,o),
(333,-116,cs),
(235,-116,o),
(178,-25,o),
(178,54,c),
(164,54,l),
(164,-76,l),
(173,-76,l),
(201,-137,o),
(268,-178,o),
(347,-178,cs)
);
}
);
};
layerId = m002;
shapes = (
{
closed = 1;
nodes = (
(122,222,o),
(152,266,o),
(176,335,cs),
(303,700,l),
(243,700,l),
(168,459,ls),
(162,439,o),
(162,434,o),
(157,410,c),
(159,410,l),
(158,424,o),
(156,438,o),
(150,456,cs),
(69,700,l),
(9,700,l),
(135,349,l),
(135,362,l),
(123,335,ls),
(99,281,o),
(83,270,o),
(59,270,cs),
(41,270,o),
(28,276,o),
(13,286,c),
(25,286,l),
(-5,231,l),
(-4,242,l),
(11,230,o),
(35,222,o),
(61,222,cs)
);
}
);
userData = {
RMXScaler = {
height = 63;
verticalShift = 357;
weight = -27;
width = 62;
};
};
width = 313;
},
{
anchors = (
{
name = bottom;
pos = (266,0);
},
{
name = top;
pos = (266,545);
}
);
associatedMasterId = m002;
background = {
shapes = (
{
closed = 1;
nodes = (
(104,-186,o),
(87,-184,o),
(68,-178,c),
(49,-173,o),
(33,-168,o),
(20,-161,c),
(41,-60,l),
(42,-60,o),
(44,-60,o),
(45,-61,c),
(46,-61,o),
(48,-61,o),
(49,-61,c),
(63,-65,o),
(77,-66,o),
(91,-66,c),
(111,-66,o),
(128,-63,o),
(140,-57,c),
(153,-50,o),
(163,-40,o),
(171,-25,c),
(180,-10,o),
(188,10,o),
(196,37,c),
(206,73,l),
(324,73,l),
(315,1,l),
(300,-33,l),
(297,-38,o),
(294,-43,o),
(292,-47,c),
(290,-52,o),
(288,-57,o),
(286,-61,c),
(272,-94,o),
(257,-118,o),
(243,-136,c),
(228,-153,o),
(211,-166,o),
(192,-174,c),
(172,-182,o),
(148,-186,o),
(120,-186,c)
);
},
{
closed = 1;
nodes = (
(195,1,l),
(-34,545,l),
(107,545,l),
(269,158,l),
(249,158,l),
(398,545,l),
(541,545,l),
(315,1,l)
);
}
);
};
layerId = "F25B5A0C-A1E5-4414-83E0-D12FD5266CE2";
name = "28 Oct 22 12.01";
shapes = (
{
closed = 1;
nodes = (
(221,-186,o),
(266,-134,o),
(320,0,cs),
(541,545,l),
(388,545,l),
(253,144,l),
(270,144,l),
(120,545,l),
(-33,545,l),
(195,0,l),
(233,0,l),
(195,37,l),
(201,-49,o),
(144,-67,o),
(106,-67,cs),
(58,-67,o),
(17,-50,o),
(-7,-39,c),
(52,-20,l),
(13,-197,l),
(-15,-146,l),
(23,-166,o),
(79,-186,o),
(125,-186,cs)
);
}
);
width = 508;
},
{
anchors = (
{
name = bottom;
pos = (250,0);
},
{
name = top;
pos = (250,545);
}
);
associatedMasterId = m002;
background = {
shapes = (
{
closed = 1;
nodes = (
(11,-156,l),
(30,-169,o),
(51,-178,o),
(78,-178,cs),
(143,-178,o),
(170,-124,o),
(170,-55,c),
(178,-45,l),
(178,168,ls),
(178,262,o),
(220,316,o),
(322,316,cs),
(385,316,o),
(439,296,o),
(511,252,c),
(471,258,l),
(518,373,l),
(529,318,l),
(469,361,o),
(382,387,o),
(307,387,cs),
(166,387,o),
(102,305,o),
(102,170,cs),
(102,-41,ls),
(102,-114,o),
(76,-138,o),
(15,-103,c),
(65,-45,l),
(18,-201,l)
);
},
{
closed = 1;
nodes = (
(448,-178,o),
(526,-112,o),
(526,-13,cs),
(526,92,o),
(438,152,o),
(315,152,cs),
(262,152,o),
(216,141,o),
(182,129,c),
(162,129,l),
(162,65,l),
(197,84,o),
(254,94,o),
(300,94,cs),
(377,94,o),
(440,66,o),
(440,-12,cs),
(440,-73,o),
(401,-116,o),
(333,-116,cs),
(235,-116,o),
(178,-25,o),
(178,54,c),
(164,54,l),
(164,-76,l),
(173,-76,l),
(201,-137,o),
(268,-178,o),
(347,-178,cs)
);
}
);
};
layerId = "23BC9F99-0456-4EAE-868D-B303FD8BE745";
name = "29 Jun 23 14.35";
shapes = (
{
closed = 1;
nodes = (
(194,-215,o),
(241,-145,o),
(280,-35,cs),
(484,545,l),
(391,545,l),
(236,62,l),
(272,64,l),
(109,545,l),
(15,545,l),
(217,-12,l),
(216,7,l),
(198,-35,ls),
(161,-122,o),
(139,-139,o),
(93,-139,cs),
(68,-139,o),
(46,-131,o),
(20,-117,c),
(39,-114,l),
(-8,-201,l),
(-6,-185,l),
(14,-201,o),
(52,-215,o),
(95,-215,cs)
);
}
);
width = 499;
}
);
subCategory = "";
unicode = 696;
userData = {
RMXScaler = {
source = y;
};
};
}
{
glyphname = gravecomb;
layers = (
{
anchors = (
{
name = _top;
pos = (133,545);
},
{
name = top;
pos = (133,750);
}
);
layerId = m009;
shapes = (
{
closed = 1;
nodes = (
(181,612,l),
(141,750,l),
(40,750,l),
(135,612,l)
);
}
);
width = 265;
}
);
unicode = 768;
}
{
glyphname = circumflexcomb;
layers = (
{
anchors = (
{
name = _top;
pos = (133,545);
},
{
name = top;
pos = (133,750);
}
);
layerId = m009;
shapes = (
{
closed = 1;
nodes = (
(71,612,l),
(144,712,l),
(117,712,l),
(196,612,l),
(251,612,l),
(163,750,l),
(102,750,l),
(14,612,l)
);
}
);
width = 265;
},
{
anchors = (
{
name = _top;
pos = (133,545);
},
{
name = top;
pos = (133,750);
}
);
layerId = m002;
shapes = (
{
closed = 1;
nodes = (
(71,612,l),
(144,712,l),
(117,712,l),
(196,612,l),
(251,612,l),
(163,750,l),
(102,750,l),
(14,612,l)
);
}
);
width = 265;
},
{
anchors = (
{
name = _top;
pos = (133,545);
},
{
name = top;
pos = (133,750);
}
);
layerId = m003;
shapes = (
{
closed = 1;
nodes = (
(71,612,l),
(144,712,l),
(117,712,l),
(196,612,l),
(251,612,l),
(163,750,l),
(102,750,l),
(14,612,l)
);
}
);
width = 265;
}
);
unicode = 770;
}
{
glyphname = tildecomb;
layers = (
{
anchors = (
{
name = _top;
pos = (133,545);
},
{
name = top;
pos = (133,711);
}
);
layerId = m009;
shapes = (
{
closed = 1;
nodes = (
(19,603,l),
(83,616,l),
(76,601,l),
(56,634,o),
(66,658,o),
(84,658,cs),
(117,658,o),
(123,607,o),
(176,607,cs),
(232,607,o),
(249,684,o),
(222,726,c),
(245,714,l),
(179,700,l),
(190,713,l),
(199,677,o),
(191,661,o),
(175,661,cs),
(151,661,o),
(137,710,o),
(87,710,cs),
(26,710,o),
(10,638,o),
(39,594,c)
);
}
);
width = 265;
},
{
anchors = (
{
name = _top;
pos = (133,545);
},
{
name = top;
pos = (133,711);
}
);
layerId = m002;
shapes = (
{
closed = 1;
nodes = (
(19,603,l),
(83,616,l),
(76,601,l),
(56,634,o),
(66,658,o),
(84,658,cs),
(117,658,o),
(123,607,o),
(176,607,cs),
(232,607,o),
(249,684,o),
(222,726,c),
(245,714,l),
(179,700,l),
(190,713,l),
(199,677,o),
(191,661,o),
(175,661,cs),
(151,661,o),
(137,710,o),
(87,710,cs),
(26,710,o),
(10,638,o),
(39,594,c)
);
}
);
width = 265;
},
{
anchors = (
{
name = _top;
pos = (133,545);
},
{
name = top;
pos = (133,711);
}
);
layerId = m003;
shapes = (
{
closed = 1;
nodes = (
(19,603,l),
(83,616,l),
(76,601,l),
(56,634,o),
(66,658,o),
(84,658,cs),
(117,658,o),
(123,607,o),
(176,607,cs),
(232,607,o),
(249,684,o),
(222,726,c),
(245,714,l),
(179,700,l),
(190,713,l),
(199,677,o),
(191,661,o),
(175,661,cs),
(151,661,o),
(137,710,o),
(87,710,cs),
(26,710,o),
(10,638,o),
(39,594,c)
);
}
);
width = 265;
}
);
unicode = 771;
}
{
glyphname = macroncomb;
layers = (
{
anchors = (
{
name = _top;
pos = (133,545);
},
{
name = top;
pos = (133,688);
}
);
layerId = m009;
shapes = (
{
closed = 1;
nodes = (
(232,624,l),
(232,688,l),
(43,688,l),
(43,624,l)
);
}
);
width = 265;
},
{
anchors = (
{
name = _top;
pos = (133,545);
},
{
name = top;
pos = (133,688);
}
);
layerId = m002;
shapes = (
{
closed = 1;
nodes = (
(232,624,l),
(232,688,l),
(43,688,l),
(43,624,l)
);
}
);
width = 265;
},
{
anchors = (
{
name = _top;
pos = (133,545);
},
{
name = top;
pos = (133,688);
}
);
layerId = m003;
shapes = (
{
closed = 1;
nodes = (
(232,624,l),
(232,688,l),
(43,688,l),
(43,624,l)
);
}
);
width = 265;
}
);
unicode = 772;
}
{
glyphname = brevecomb;
layers = (
{
anchors = (
{
name = _top;
pos = (133,545);
},
{
name = top;
pos = (133,750);
}
);
layerId = m009;
shapes = (
{
closed = 1;
nodes = (
(21,674,o),
(60,607,o),
(132,607,cs),
(207,607,o),
(244,674,o),
(242,750,c),
(200,750,l),
(195,698,o),
(173,665,o),
(133,665,cs),
(93,665,o),
(72,696,o),
(67,750,c),
(24,750,l)
);
}
);
width = 265;
},
{
anchors = (
{
name = _top;
pos = (133,545);
},
{
name = top;
pos = (133,750);
}
);
layerId = m002;
shapes = (
{
closed = 1;
nodes = (
(21,674,o),
(60,607,o),
(132,607,cs),
(207,607,o),
(244,674,o),
(242,750,c),
(200,750,l),
(195,698,o),
(173,665,o),
(133,665,cs),
(93,665,o),
(72,696,o),
(67,750,c),
(24,750,l)
);
}
);
width = 265;
},
{
anchors = (
{
name = _top;
pos = (133,545);
},
{
name = top;
pos = (133,750);
}
);
layerId = m003;
shapes = (
{
closed = 1;
nodes = (
(21,674,o),
(60,607,o),
(132,607,cs),
(207,607,o),
(244,674,o),
(242,750,c),
(200,750,l),
(195,698,o),
(173,665,o),
(133,665,cs),
(93,665,o),
(72,696,o),
(67,750,c),
(24,750,l)
);
}
);
width = 265;
}
);
unicode = 774;
}
{
glyphname = dotaccentcomb;
layers = (
{
anchors = (
{
name = _top;
pos = (133,537);
},
{
name = top;
pos = (133,750);
}
);
layerId = m009;
shapes = (
{
closed = 1;
nodes = (
(154,692,l),
(154,750,l),
(111,750,l),
(111,692,l)
);
}
);
width = 265;
},
{
anchors = (
{
name = _top;
pos = (133,545);
},
{
name = top;
pos = (133,750);
}
);
layerId = m002;
shapes = (
{
closed = 1;
nodes = (
(180,662,l),
(180,750,l),
(85,750,l),
(85,662,l)
);
}
);
width = 265;
},
{
anchors = (
{
name = _top;
pos = (133,553);
},
{
name = top;
pos = (133,750);
}
);
layerId = m003;
shapes = (
{
closed = 1;
nodes = (
(211,608,l),
(211,750,l),
(55,750,l),
(55,608,l)
);
}
);
width = 265;
}
);
unicode = 775;
}
{
glyphname = dieresiscomb;
layers = (
{
anchors = (
{
name = _top;
pos = (180,537);
},
{
name = top;
pos = (180,710);
}
);
layerId = m009;
shapes = (
{
closed = 1;
nodes = (
(154,663,l),
(154,710,l),
(111,710,l),
(111,663,l)
);
},
{
closed = 1;
nodes = (
(249,663,l),
(249,710,l),
(206,710,l),
(206,663,l)
);
}
);
width = 360;
},
{
anchors = (
{
name = _top;
pos = (201,545);
},
{
name = top;
pos = (201,700);
}
);
layerId = m002;
shapes = (
{
closed = 1;
nodes = (
(175,612,l),
(175,700,l),
(85,700,l),
(85,612,l)
);
},
{
closed = 1;
nodes = (
(317,612,l),
(317,700,l),
(227,700,l),
(227,612,l)
);
}
);
width = 402;
},
{
anchors = (
{
name = _top;
pos = (205,553);
},
{
name = top;
pos = (205,700);
}
);
layerId = m003;
shapes = (
{
closed = 1;
nodes = (
(184,597,l),
(184,715,l),
(55,715,l),
(55,597,l)
);
},
{
closed = 1;
nodes = (
(354,597,l),
(354,715,l),
(226,715,l),
(226,597,l)
);
}
);
width = 409;
}
);
metricLeft = dotaccentcomb;
metricRight = "=|";
unicode = 776;
}
{
glyphname = ringcomb;
layers = (
{
anchors = (
{
name = _top;
pos = (120,537);
},
{
name = top;
pos = (120,754);
}
);
layerId = m009;
shapes = (
{
closed = 1;
nodes = (
(148,655,o),
(171,678,o),
(171,707,cs),
(171,737,o),
(149,758,o),
(120,758,cs),
(90,758,o),
(68,736,o),
(68,707,cs),
(68,677,o),
(91,655,o),
(120,655,cs)
);
},
{
closed = 1;
nodes = (
(101,675,o),
(88,689,o),
(88,707,cs),
(88,725,o),
(101,739,o),
(120,739,cs),
(138,739,o),
(151,725,o),
(151,707,cs),
(151,689,o),
(138,675,o),
(120,675,cs)
);
}
);
width = 239;
},
{
anchors = (
{
name = _top;
pos = (120,545);
},
{
name = top;
pos = (120,754);
}
);
layerId = m002;
shapes = (
{
closed = 1;
nodes = (
(160,607,o),
(193,640,o),
(193,681,cs),
(193,724,o),
(162,754,o),
(120,754,cs),
(77,754,o),
(46,722,o),
(46,681,cs),
(46,638,o),
(79,607,o),
(120,607,cs)
);
},
{
closed = 1;
nodes = (
(102,650,o),
(89,664,o),
(89,681,cs),
(89,698,o),
(102,712,o),
(120,712,cs),
(137,712,o),
(150,698,o),
(150,681,cs),
(150,664,o),
(137,650,o),
(120,650,cs)
);
}
);
width = 239;
},
{
anchors = (
{
name = _top;
pos = (120,553);
},
{
name = top;
pos = (120,754);
}
);
layerId = m003;
shapes = (
{
closed = 1;
nodes = (
(173,587,o),
(212,623,o),
(212,673,cs),
(212,722,o),
(173,757,o),
(120,757,cs),
(67,757,o),
(27,722,o),
(27,673,cs),
(27,623,o),
(67,587,o),
(120,587,cs)
);
},
{
closed = 1;
nodes = (
(99,637,o),
(85,651,o),
(85,673,cs),
(85,694,o),
(99,707,o),
(120,707,cs),
(141,707,o),
(154,694,o),
(154,673,cs),
(154,651,o),
(141,637,o),
(120,637,cs)
);
}
);
width = 239;
}
);
unicode = 778;
}
{
glyphname = cedillacomb;
layers = (
{
anchors = (
{
name = _bottom;
pos = (175,0);
},
{
name = bottom;
pos = (154,-215);
}
);
layerId = m009;
shapes = (
{
closed = 1;
nodes = (
(189,-215,o),
(232,-178,o),
(232,-122,cs),
(232,-53,o),
(180,-32,o),
(146,-28,c),
(148,-51,l),
(175,0,l),
(125,0,l),
(93,-68,l),
(89,-51,l),
(139,-56,o),
(172,-71,o),
(172,-107,cs),
(172,-139,o),
(151,-152,o),
(125,-152,cs),
(103,-152,o),
(83,-144,o),
(57,-130,c),
(76,-114,l),
(31,-201,l),
(31,-185,l),
(51,-201,o),
(90,-215,o),
(126,-215,cs)
);
}
);
width = 265;
}
);
unicode = 807;
}
{
glyphname = ogonekcomb;
layers = (
{
anchors = (
{
name = _ogonek;
pos = (160,0);
}
);
layerId = m009;
shapes = (
{
closed = 1;
nodes = (
(158,-178,l),
(110,-176,o),
(86,-153,o),
(86,-118,cs),
(86,-73,o),
(127,-31,o),
(160,0,c),
(143,0,l),
(108,-29,o),
(62,-76,o),
(62,-127,cs),
(62,-172,o),
(98,-197,o),
(158,-197,c)
);
}
);
width = 265;
},
{
anchors = (
{
name = _ogonek;
pos = (175,0);
}
);
layerId = m002;
shapes = (
{
closed = 1;
nodes = (
(162,-150,l),
(128,-150,o),
(112,-135,o),
(112,-108,cs),
(112,-69,o),
(152,-25,o),
(175,0,c),
(127,0,l),
(96,-25,o),
(47,-70,o),
(47,-128,cs),
(47,-178,o),
(90,-215,o),
(161,-215,c)
);
}
);
width = 265;
},
{
anchors = (
{
name = _ogonek;
pos = (185,0);
}
);
layerId = m003;
shapes = (
{
closed = 1;
nodes = (
(176,-133,l),
(143,-133,o),
(126,-121,o),
(126,-98,cs),
(126,-64,o),
(162,-25,o),
(185,0,c),
(116,0,l),
(72,-28,o),
(27,-70,o),
(27,-132,cs),
(27,-193,o),
(72,-230,o),
(175,-230,c)
);
}
);
width = 265;
}
);
unicode = 808;
}
{
glyphname = "uluRicem-bali";
layers = (
{
layerId = m009;
shapes = (
{
ref = "ulu-bali";
},
{
closed = 1;
nodes = (
(348,700,o),
(379,731,o),
(379,769,cs),
(379,807,o),
(348,838,o),
(310,838,cs),
(272,838,o),
(241,807,o),
(241,769,cs),
(241,731,o),
(272,700,o),
(310,700,cs)
);
}
);
width = 600;
}
);
unicode = 6912;
}
{
color = 1;
glyphname = "uluCandra-bali";
layers = (
{
background = {
shapes = (
{
pos = (-39,1630);
ref = "ulu-bali";
scale = (1,-1);
}
);
};
layerId = m009;
shapes = (
{
closed = 1;
nodes = (
(-290,633,o),
(-215,715,o),
(-215,823,cs),
(-215,876,o),
(-234,935,o),
(-272,993,c),
(-258,989,l),
(-314,962,l),
(-312,977,l),
(-289,935,o),
(-273,886,o),
(-273,838,cs),
(-273,779,o),
(-296,729,o),
(-356,707,c),
(-357,709,l),
(-328,733,o),
(-320,766,o),
(-320,792,cs),
(-320,845,o),
(-356,892,o),
(-424,892,cs),
(-492,892,o),
(-528,845,o),
(-528,792,cs),
(-528,766,o),
(-520,734,o),
(-491,709,c),
(-492,707,l),
(-552,730,o),
(-574,779,o),
(-574,840,cs),
(-574,887,o),
(-560,934,o),
(-538,973,c),
(-533,963,l),
(-593,992,l),
(-576,995,l),
(-616,935,o),
(-635,875,o),
(-635,823,cs),
(-635,713,o),
(-554,633,o),
(-424,633,cs)
);
},
{
closed = 1;
nodes = (
(-467,701,o),
(-488,746,o),
(-488,777,cs),
(-488,815,o),
(-466,842,o),
(-424,842,cs),
(-382,842,o),
(-359,815,o),
(-359,777,cs),
(-359,746,o),
(-377,701,o),
(-423,701,cs)
);
},
{
closed = 1;
nodes = (
(-395,874,l),
(-411,1014,l),
(-439,1014,l),
(-455,874,l)
);
}
);
width = 0;
}
);
metricLeft = "ulu-bali";
unicode = 6913;
}
{
glyphname = "cecek-bali";
layers = (
{
layerId = m009;
shapes = (
{
closed = 1;
nodes = (
(204,699,o),
(213,773,o),
(213,832,cs),
(213,940,o),
(184,996,o),
(114,996,cs),
(70,996,o),
(38,967,o),
(27,930,c),
(59,901,l),
(68,914,o),
(78,924,o),
(93,924,cs),
(132,924,o),
(146,868,o),
(146,788,cs),
(146,732,o),
(143,683,o),
(133,625,c),
(94,664,l),
(229,640,l),
(188,613,l)
);
}
);
width = 224;
}
);
unicode = 6914;
}
{
glyphname = "bisah-bali";
layers = (
{
layerId = m009;
shapes = (
{
closed = 1;
nodes = (
(226,-407,l),
(199,-264,o),
(209,-194,o),
(265,-91,cs),
(330,26,o),
(370,73,o),
(370,146,cs),
(370,230,o),
(316,298,o),
(248,307,c),
(248,310,l),
(298,332,o),
(323,379,o),
(323,433,cs),
(323,507,o),
(273,555,o),
(202,555,cs),
(158,555,o),
(115,538,o),
(75,489,c),
(95,455,l),
(126,483,o),
(150,501,o),
(188,501,cs),
(231,501,o),
(257,472,o),
(257,421,cs),
(257,371,o),
(231,332,o),
(145,318,c),
(145,284,l),
(250,284,o),
(308,235,o),
(308,148,cs),
(308,81,o),
(275,28,o),
(230,-59,cs),
(166,-184,o),
(160,-263,o),
(193,-420,c)
);
}
);
width = 420;
}
);
unicode = 6916;
}
{
glyphname = "akara-bali";
layers = (
{
layerId = m009;
shapes = (
{
closed = 1;
nodes = (
(378,-10,o),
(446,44,o),
(446,132,cs),
(446,190,o),
(416,243,o),
(336,250,c),
(336,253,l),
(390,272,o),
(411,307,o),
(411,357,cs),
(411,420,o),
(364,448,o),
(320,448,cs),
(276,448,o),
(233,431,o),
(193,382,c),
(213,348,l),
(249,381,o),
(268,394,o),
(304,394,cs),
(330,394,o),
(345,380,o),
(345,351,cs),
(345,314,o),
(307,261,o),
(233,261,c),
(233,227,l),
(338,227,o),
(377,195,o),
(377,138,cs),
(377,89,o),
(332,60,o),
(263,60,cs),
(161,60,o),
(80,126,o),
(80,270,cs),
(80,404,o),
(167,507,o),
(319,507,cs),
(399,507,o),
(465,488,o),
(551,404,c),
(577,437,l),
(477,541,o),
(401,557,o),
(311,557,cs),
(137,557,o),
(13,435,o),
(13,275,cs),
(13,93,o),
(138,-10,o),
(268,-10,cs)
);
},
{
closed = 1;
nodes = (
(825,-10,o),
(889,73,o),
(889,216,cs),
(889,522,l),
(869,498,l),
(909,498,ls),
(949,498,o),
(971,478,o),
(971,436,cs),
(971,0,l),
(1024,0,l),
(1024,420,ls),
(1024,509,o),
(993,545,o),
(903,545,cs),
(836,545,l),
(836,222,ls),
(836,118,o),
(793,69,o),
(693,69,cs),
(619,69,o),
(573,102,o),
(535,169,c),
(502,138,l),
(552,37,o),
(619,-10,o),
(705,-10,cs)
);
},
{
closed = 1;
nodes = (
(1099,195,l),
(848,332,ls),
(814,351,o),
(787,358,o),
(765,358,cs),
(719,358,o),
(691,323,o),
(691,288,cs),
(691,243,o),
(731,196,o),
(761,176,c),
(777,199,l),
(759,210,o),
(744,232,o),
(744,255,cs),
(744,280,o),
(766,303,o),
(792,303,cs),
(806,303,o),
(824,297,o),
(848,285,cs),
(1086,159,l)
);
}
);
width = 1120;
}
);
unicode = 6917;
}
{
glyphname = "ikara-bali";
layers = (
{
layerId = m009;
shapes = (
{
ref = "nga-bali";
},
{
closed = 1;
nodes = (
(678,-291,o),
(708,-249,o),
(708,-216,cs),
(708,-180,o),
(685,-164,o),
(604,-143,cs),
(569,-134,o),
(545,-127,o),
(545,-107,cs),
(545,-91,o),
(568,-83,o),
(597,-83,cs),
(631,-83,o),
(648,-85,o),
(689,-89,c),
(689,-53,l),
(648,-49,o),
(631,-48,o),
(597,-48,cs),
(546,-48,o),
(486,-62,o),
(486,-105,cs),
(486,-150,o),
(534,-172,o),
(588,-185,cs),
(640,-198,o),
(659,-208,o),
(659,-222,cs),
(659,-239,o),
(636,-248,o),
(603,-248,cs),
(549,-248,o),
(517,-234,o),
(480,-209,c),
(477,-240,l),
(511,-271,o),
(560,-291,o),
(604,-291,cs)
);
}
);
width = 905;
}
);
unicode = 6919;
}
{
color = 9;
glyphname = "ukara-bali";
layers = (
{
background = {
shapes = (
{
closed = 1;
nodes = (
(260,-386,l),
(260,-310,l),
(189,-310,ls),
(90,-310,o),
(54,-258,o),
(54,-197,cs),
(54,7,o),
(444,150,o),
(444,382,cs),
(444,478,o),
(375,555,o),
(286,555,cs),
(179,555,o),
(135,463,o),
(136,377,c),
(177,377,l),
(176,438,o),
(220,487,o),
(280,487,cs),
(329,487,o),
(374,440,o),
(374,375,cs),
(374,184,o),
(-24,33,o),
(-24,-205,cs),
(-24,-315,o),
(65,-386,o),
(190,-386,cs)
);
},
{
closed = 1;
nodes = (
(260,-386,l),
(260,-205,ls),
(260,-116,o),
(307,-68,o),
(394,-68,cs),
(479,-68,o),
(524,-115,o),
(524,-205,cs),
(524,-386,l),
(580,-386,l),
(580,-206,ls),
(580,-65,o),
(523,0,o),
(400,0,cs),
(272,0,o),
(204,-71,o),
(204,-206,cs),
(204,-386,l)
);
}
);
};
layerId = m009;
shapes = (
{
closed = 1;
nodes = (
(268,-769,cs),
(297,-769,o),
(300,-731,o),
(285,-713,cs),
(222,-640,o),
(197,-569,o),
(197,-486,cs),
(197,-394,o),
(245,-321,o),
(346,-321,cs),
(464,-321,o),
(515,-423,o),
(515,-534,cs),
(515,-612,o),
(500,-685,o),
(475,-750,c),
(517,-769,l),
(562,-689,o),
(584,-601,o),
(584,-510,cs),
(584,-369,o),
(508,-243,o),
(353,-243,cs),
(211,-243,o),
(130,-351,o),
(130,-480,cs),
(130,-557,o),
(159,-639,o),
(222,-712,c),
(250,-699,l),
(144,-699,o),
(61,-611,o),
(61,-483,cs),
(61,-188,o),
(514,-14,o),
(514,321,cs),
(514,465,o),
(428,555,o),
(309,555,cs),
(190,555,o),
(116,462,o),
(115,358,c),
(113,357,l),
(85,414,o),
(86,483,o),
(91,542,c),
(108,525,l),
(-4,525,l),
(15,535,l),
(15,421,o),
(50,333,o),
(135,255,c),
(122,258,l),
(184,285,l),
(178,267,l),
(153,365,o),
(180,487,o),
(298,487,cs),
(395,487,o),
(431,400,o),
(431,314,cs),
(431,10,o),
(-13,-153,o),
(-13,-483,cs),
(-13,-656,o),
(111,-769,o)
);
}
);
width = 561;
},
{
associatedMasterId = m009;
background = {
shapes = (
{
closed = 1;
nodes = (
(255,-386,l),
(255,-310,l),
(184,-310,ls),
(85,-310,o),
(49,-258,o),
(49,-197,cs),
(49,7,o),
(439,150,o),
(439,382,cs),
(439,478,o),
(370,555,o),
(281,555,cs),
(174,555,o),
(130,463,o),
(131,377,c),
(172,377,l),
(171,438,o),
(215,487,o),
(275,487,cs),
(324,487,o),
(369,440,o),
(369,375,cs),
(369,184,o),
(-29,33,o),
(-29,-205,cs),
(-29,-315,o),
(60,-386,o),
(185,-386,cs)
);
},
{
closed = 1;
nodes = (
(255,-386,l),
(255,-205,ls),
(255,-116,o),
(302,-68,o),
(389,-68,cs),
(474,-68,o),
(519,-115,o),
(519,-205,cs),
(519,-386,l),
(575,-386,l),
(575,-206,ls),
(575,-65,o),
(518,0,o),
(395,0,cs),
(267,0,o),
(199,-71,o),
(199,-206,cs),
(199,-386,l)
);
}
);
};
layerId = "B60F32FE-4655-4CA3-9E5E-09F6151ACD19";
name = "8 May 23 15.53";
shapes = (
{
closed = 1;
nodes = (
(-3,-312,o),
(132,-386,o),
(209,-386,cs),
(239,-386,o),
(249,-375,o),
(249,-363,cs),
(249,-350,o),
(244,-343,o),
(227,-317,cs),
(201,-278,o),
(189,-236,o),
(189,-198,cs),
(189,-126,o),
(233,-68,o),
(314,-68,cs),
(407,-68,o),
(445,-143,o),
(445,-326,cs),
(445,-386,l),
(520,-386,l),
(520,-326,ls),
(520,-90,o),
(448,0,o),
(315,0,cs),
(190,0,o),
(128,-89,o),
(128,-186,cs),
(128,-228,o),
(140,-273,o),
(164,-311,c),
(162,-314,l),
(105,-291,o),
(67,-231,o),
(67,-157,cs),
(67,67,o),
(440,131,o),
(440,382,cs),
(440,487,o),
(372,555,o),
(276,555,c),
(265,490,l),
(324,490,o),
(359,452,o),
(359,382,cs),
(359,170,o),
(-3,112,o),
(-3,-161,cs)
);
},
{
pos = (20,0);
ref = _taling_tenas;
}
);
width = 480;
},
{
associatedMasterId = m009;
background = {
shapes = (
{
closed = 1;
nodes = (
(248,-386,l),
(248,-310,l),
(177,-310,ls),
(78,-310,o),
(42,-258,o),
(42,-197,cs),
(42,7,o),
(432,150,o),
(432,382,cs),
(432,478,o),
(363,555,o),
(274,555,cs),
(167,555,o),
(123,463,o),
(124,377,c),
(165,377,l),
(164,438,o),
(208,487,o),
(268,487,cs),
(317,487,o),
(362,440,o),
(362,375,cs),
(362,184,o),
(-36,33,o),
(-36,-205,cs),
(-36,-315,o),
(53,-386,o),
(178,-386,cs)
);
},
{
closed = 1;
nodes = (
(248,-386,l),
(248,-205,ls),
(248,-116,o),
(295,-68,o),
(382,-68,cs),
(467,-68,o),
(512,-115,o),
(512,-205,cs),
(512,-386,l),
(568,-386,l),
(568,-206,ls),
(568,-65,o),
(511,0,o),
(388,0,cs),
(260,0,o),
(192,-71,o),
(192,-206,cs),
(192,-386,l)
);
}
);
};
layerId = "89BA0E76-1873-4F03-B36E-6CEE98C3AFBB";
name = "8 May 23 16.17";
shapes = (
{
closed = 1;
nodes = (
(252,-769,o),
(262,-758,o),
(262,-746,cs),
(262,-733,o),
(257,-726,o),
(240,-700,cs),
(213,-659,o),
(188,-582,o),
(188,-517,cs),
(188,-414,o),
(249,-346,o),
(349,-346,cs),
(352,-346,ls),
(450,-346,o),
(517,-424,o),
(517,-542,cs),
(517,-611,o),
(498,-688,o),
(474,-750,c),
(516,-769,l),
(563,-685,o),
(583,-598,o),
(583,-534,cs),
(583,-363,o),
(494,-270,o),
(353,-270,cs),
(350,-270,ls),
(230,-270,o),
(120,-350,o),
(120,-501,cs),
(120,-586,o),
(149,-653,o),
(189,-712,c),
(187,-715,l),
(127,-676,o),
(64,-561,o),
(64,-439,cs),
(64,-128,o),
(502,-44,o),
(502,325,cs),
(502,465,o),
(417,555,o),
(295,555,cs),
(179,555,o),
(104,462,o),
(103,358,c),
(101,357,l),
(72,416,o),
(74,487,o),
(79,542,c),
(96,525,l),
(-16,525,l),
(3,535,l),
(3,421,o),
(38,333,o),
(123,255,c),
(110,258,l),
(172,285,l),
(166,267,l),
(137,379,o),
(178,487,o),
(286,487,cs),
(383,487,o),
(419,400,o),
(419,322,cs),
(419,10,o),
(2,-80,o),
(2,-430,cs),
(2,-590,o),
(112,-769,o),
(222,-769,cs)
);
}
);
width = 560;
}
);
unicode = 6921;
}
{
glyphname = "laLenga-bali";
layers = (
{
layerId = m009;
shapes = (
{
closed = 1;
nodes = (
(867,-199,o),
(893,-4,o),
(893,259,cs),
(893,485,o),
(840,555,o),
(745,555,cs),
(677,555,o),
(620,519,o),
(604,423,c),
(603,423,l),
(590,519,o),
(545,555,o),
(479,555,cs),
(391,555,o),
(329,484,o),
(329,349,cs),
(329,69,l),
(278,71,o),
(248,105,o),
(248,197,cs),
(248,412,ls),
(248,500,o),
(202,555,o),
(137,555,cs),
(61,555,o),
(25,481,o),
(30,398,c),
(85,398,l),
(85,459,o),
(111,483,o),
(139,483,cs),
(166,483,o),
(197,461,o),
(197,401,cs),
(197,195,ls),
(197,44,o),
(238,0,o),
(329,0,cs),
(384,0,l),
(384,350,ls),
(384,439,o),
(432,487,o),
(484,487,cs),
(537,487,o),
(568,437,o),
(581,333,c),
(627,333,l),
(639,429,o),
(690,487,o),
(742,487,cs),
(789,487,o),
(839,441,o),
(839,260,cs),
(839,14,o),
(820,-133,o),
(750,-426,c),
(799,-449,l)
);
},
{
closed = 1;
nodes = (
(779,-402,l),
(780,-397,l),
(779,-363,l),
(707,-305,o),
(649,-288,o),
(500,-288,cs),
(372,-288,o),
(297,-260,o),
(297,-202,cs),
(297,-138,o),
(395,-112,o),
(487,-112,cs),
(672,-112,o),
(744,-189,o),
(891,-189,cs),
(962,-189,o),
(1016,-170,o),
(1061,-131,c),
(1049,-87,l),
(1005,-112,o),
(963,-122,o),
(897,-122,cs),
(772,-122,o),
(681,-29,o),
(496,-29,cs),
(343,-29,o),
(237,-87,o),
(237,-197,cs),
(237,-317,o),
(374,-351,o),
(504,-351,cs),
(646,-351,o),
(695,-363,o),
(750,-426,c)
);
}
);
width = 905;
}
);
unicode = 6925;
}
{
color = 9;
glyphname = "laLengaTedung-bali";
layers = (
{
anchors = (
{
name = bottom;
pos = (981,-778);
},
{
name = top;
pos = (637,650);
}
);
layerId = m009;
shapes = (
{
closed = 1;
nodes = (
(945,-614,o),
(1019,-391,o),
(1019,-69,cs),
(1019,10,l),
(943,10,l),
(943,-59,ls),
(943,-314,o),
(890,-544,o),
(664,-695,c),
(694,-718,l),
(614,-475,o),
(303,-525,o),
(303,-332,cs),
(303,-252,o),
(364,-198,o),
(451,-195,cs),
(623,-188,o),
(750,-318,o),
(968,-318,cs),
(1010,-318,o),
(1057,-288,o),
(1098,-288,cs),
(1132,-288,o),
(1148,-310,o),
(1148,-339,cs),
(1148,-380,o),
(1112,-434,o),
(1039,-446,c),
(1039,-504,l),
(1120,-515,o),
(1145,-535,o),
(1145,-574,cs),
(1145,-616,o),
(1114,-657,o),
(1046,-657,cs),
(1010,-657,o),
(971,-647,o),
(934,-631,c),
(947,-627,l),
(909,-711,l),
(897,-677,l),
(942,-700,o),
(1000,-717,o),
(1060,-717,cs),
(1173,-717,o),
(1224,-643,o),
(1224,-575,cs),
(1224,-536,o),
(1204,-482,o),
(1132,-467,c),
(1132,-464,l),
(1186,-433,o),
(1214,-378,o),
(1214,-329,cs),
(1214,-273,o),
(1179,-224,o),
(1110,-224,cs),
(1057,-224,o),
(999,-254,o),
(954,-254,cs),
(779,-254,o),
(650,-122,o),
(459,-122,cs),
(328,-122,o),
(225,-205,o),
(225,-332,cs),
(225,-597,o),
(573,-511,o),
(648,-781,c),
(631,-759,l),
(683,-783,l),
(662,-783,l)
);
},
{
pos = (33,0);
ref = _nga_tenas;
},
{
pos = (10,0);
ref = _okara_tenas;
},
{
alignment = -1;
pos = (-20,0);
ref = _nga_bali_ekor;
}
);
width = 1079;
}
);
metricLeft = "laLenga-bali";
unicode = 6926;
}
{
glyphname = "ekara-bali";
layers = (
{
anchors = (
{
name = bottom;
pos = (732,0);
},
{
name = top;
pos = (375,650);
}
);
layerId = m009;
shapes = (
{
closed = 1;
nodes = (
(59,285,l),
(59,156,o),
(128,26,o),
(261,-8,cs),
(292,-16,o),
(299,3,o),
(299,16,cs),
(299,156,o),
(360,237,o),
(474,237,cs),
(576,237,o),
(656,175,o),
(656,22,cs),
(656,0,l),
(732,0,l),
(732,22,ls),
(732,203,o),
(624,310,o),
(485,310,cs),
(331,310,o),
(232,203,o),
(247,31,c),
(268,49,l),
(194,83,o),
(134,171,o),
(134,277,c)
);
},
{
ref = _ekara_tenas;
}
);
width = 735;
}
);
unicode = 6927;
}
{
glyphname = "aikara-bali";
layers = (
{
anchors = (
{
name = bottom;
pos = (1134,-368);
},
{
name = top;
pos = (649,650);
}
);
background = {
shapes = (
{
closed = 1;
nodes = (
(658,-383,o),
(658,-278,o),
(712,-278,cs),
(767,-278,o),
(780,-383,o),
(886,-383,cs),
(951,-383,o),
(1004,-344,o),
(1004,-222,cs),
(1004,615,ls),
(1004,740,o),
(968,790,o),
(896,790,cs),
(821,790,o),
(783,727,o),
(786,663,cs),
(790,573,o),
(882,516,o),
(966,516,cs),
(1049,516,o),
(1110,562,o),
(1145,633,c),
(1112,664,l),
(1082,609,o),
(1032,581,o),
(974,581,cs),
(920,581,o),
(844,616,o),
(844,676,cs),
(844,707,o),
(865,727,o),
(896,727,cs),
(927,727,o),
(951,706,o),
(951,635,cs),
(951,-224,ls),
(951,-300,o),
(922,-319,o),
(874,-319,cs),
(801,-320,o),
(777,-215,o),
(716,-215,cs),
(650,-215,o),
(637,-322,o),
(579,-319,cs),
(530,-317,o),
(498,-271,o),
(498,-196,cs),
(498,22,o),
(870,119,o),
(870,379,cs),
(870,484,o),
(818,555,o),
(723,555,cs),
(655,555,o),
(612,519,o),
(596,423,c),
(595,423,l),
(582,519,o),
(537,555,o),
(471,555,cs),
(383,555,o),
(321,484,o),
(321,349,cs),
(321,69,l),
(270,71,o),
(240,105,o),
(240,197,cs),
(240,412,ls),
(240,500,o),
(194,555,o),
(129,555,cs),
(53,555,o),
(17,481,o),
(22,398,c),
(77,398,l),
(77,459,o),
(103,483,o),
(131,483,cs),
(158,483,o),
(189,461,o),
(189,401,cs),
(189,195,ls),
(189,44,o),
(230,0,o),
(321,0,cs),
(376,0,l),
(376,350,ls),
(376,439,o),
(424,487,o),
(476,487,cs),
(529,487,o),
(560,437,o),
(573,333,c),
(619,333,l),
(631,429,o),
(668,487,o),
(729,487,cs),
(777,487,o),
(815,450,o),
(815,380,cs),
(815,176,o),
(435,65,o),
(435,-199,cs),
(435,-301,o),
(482,-383,o),
(567,-383,cs)
);
}
);
};
layerId = m002;
name = Regular;
shapes = (
{
alignment = -1;
pos = (45,0);
ref = _nga_tenas;
},
{
alignment = -1;
pos = (22,0);
ref = _okara_tenas;
},
{
alignment = -1;
pos = (22,0);
ref = _iluk_duwur;
},
{
pos = (22,0);
ref = _aikara_ikuh;
}
);
width = 1228;
},
{
anchors = (
{
name = bottom;
pos = (1122,-368);
},
{
name = top;
pos = (637,650);
}
);
associatedMasterId = m002;
background = {
shapes = (
{
closed = 1;
nodes = (
(646,-383,o),
(646,-278,o),
(700,-278,cs),
(755,-278,o),
(768,-383,o),
(874,-383,cs),
(939,-383,o),
(992,-344,o),
(992,-222,cs),
(992,615,ls),
(992,740,o),
(956,790,o),
(884,790,cs),
(809,790,o),
(771,727,o),
(774,663,cs),
(778,573,o),
(870,516,o),
(954,516,cs),
(1037,516,o),
(1098,562,o),
(1133,633,c),
(1100,664,l),
(1070,609,o),
(1020,581,o),
(962,581,cs),
(908,581,o),
(832,616,o),
(832,676,cs),
(832,707,o),
(853,727,o),
(884,727,cs),
(915,727,o),
(939,706,o),
(939,635,cs),
(939,-224,ls),
(939,-300,o),
(910,-319,o),
(862,-319,cs),
(789,-320,o),
(765,-215,o),
(704,-215,cs),
(638,-215,o),
(625,-322,o),
(567,-319,cs),
(518,-317,o),
(486,-271,o),
(486,-196,cs),
(486,22,o),
(858,119,o),
(858,379,cs),
(858,484,o),
(806,555,o),
(711,555,cs),
(643,555,o),
(600,519,o),
(584,423,c),
(583,423,l),
(570,519,o),
(525,555,o),
(459,555,cs),
(371,555,o),
(309,484,o),
(309,349,cs),
(309,69,l),
(258,71,o),
(228,105,o),
(228,197,cs),
(228,412,ls),
(228,500,o),
(182,555,o),
(117,555,cs),
(41,555,o),
(5,481,o),
(10,398,c),
(65,398,l),
(65,459,o),
(91,483,o),
(119,483,cs),
(146,483,o),
(177,461,o),
(177,401,cs),
(177,195,ls),
(177,44,o),
(218,0,o),
(309,0,cs),
(364,0,l),
(364,350,ls),
(364,439,o),
(412,487,o),
(464,487,cs),
(517,487,o),
(548,437,o),
(561,333,c),
(607,333,l),
(619,429,o),
(656,487,o),
(717,487,cs),
(765,487,o),
(803,450,o),
(803,380,cs),
(803,176,o),
(423,65,o),
(423,-199,cs),
(423,-301,o),
(470,-383,o),
(555,-383,cs)
);
}
);
};
layerId = m003;
name = Bold;
shapes = (
{
alignment = -1;
pos = (33,0);
ref = _nga_tenas;
},
{
alignment = -1;
pos = (10,0);
ref = _okara_tenas;
},
{
alignment = -1;
pos = (10,0);
ref = _iluk_duwur;
},
{
pos = (10,0);
ref = _aikara_ikuh;
}
);
width = 1216;
}
);
metricLeft = "ha-bali";
unicode = 6928;
}
